<?xml version="1.0" encoding="UTF-8"?>
<!DOCTYPE svg PUBLIC "-//W3C//DTD SVG 1.1//EN" "http://www.w3.org/Graphics/SVG/1.1/DTD/svg11.dtd">
<svg xmlns="http://www.w3.org/2000/svg" viewBox="0 0 29700 21000">
 <defs>
  <style type="text/css">
   <![CDATA[
    .str0 {stroke:#52658C;stroke-width:20;stroke-miterlimit:22.9256}
    .str1 {stroke:#E6E7E8;stroke-width:20;stroke-miterlimit:22.9256}
    .fil0 {fill:#52658C}
    .fil1 {fill:#E6E7E8}
   ]]>
  </style>
 </defs>
 <g id="Camada_x0020_1_1">
  <metadata id="CorelCorpID_0Corel-Layer"/>
 </g>
 <g id="Camada_x0020_1">
  <metadata id="CorelCorpID_1Corel-Layer"/>
 </g>
 <g id="Camada_x0020_1_1_0_0_1_4">
  <metadata id="CorelCorpID_2Corel-Layer"/>
 </g>
 <g id="Camada_x0020_1_1_0_0_1_4_0">
  <metadata id="CorelCorpID_3Corel-Layer"/>
 </g>
 <g id="Camada_x0020_1_1">
  <metadata id="CorelCorpID_4Corel-Layer"/>
 </g>
 <g id="Camada_x0020_1_1_0_2">
  <metadata id="CorelCorpID_5Corel-Layer"/>
 </g>
 <g id="Camada_x0020_1_1_2">
  <metadata id="CorelCorpID_6Corel-Layer"/>
 </g>
 <g id="Camada_x0020_1_1_3">
  <metadata id="CorelCorpID_7Corel-Layer"/>
 </g>
 <g id="Camada_x0020_1_1_3_3">
  <metadata id="CorelCorpID_8Corel-Layer"/>
 </g>
 <g id="Camada_x0020_1_1_3_4">
  <metadata id="CorelCorpID_9Corel-Layer"/>
 </g>
 <g id="Camada_x0020_1_5">
  <metadata id="CorelCorpID_10Corel-Layer"/>
  <path class="fil0 str0" d="M980.27 768.35c9354.34,0 18708.68,0 28063.02,0 0,1298.39 0,2596.79 -2449.42,3517.17 -2449.42,920.37 -7348.25,1462.75 -12014.34,3262.42 -4666.09,1799.67 -9099.42,4856.64 -11327.17,3936.26 -2227.76,-920.37 -2249.92,-5818.12 -2272.09,-10715.85z"/>
 </g>
 <g id="Camada_x0020_1_1_0_0_1_4_1">
  <metadata id="CorelCorpID_11Corel-Layer"/>
  <path class="fil1 str1" d="M-24.94 82.02c9877.78,0 19755.57,0 29633.35,0 0,1290.96 0,2581.91 -2586.48,3497.03 -2586.49,915.1 -7759.44,1454.36 -12686.63,3243.73 -4927.2,1789.36 -9608.61,4828.83 -11961.01,3913.72 -2352.42,-915.11 -2375.82,-5784.8 -2399.23,-10654.48z"/>
 </g>
 <g id="Camada_x0020_1_1_3_6">
  <metadata id="CorelCorpID_12Corel-Layer"/>
 </g>
</svg>
