<?xml version="1.0" encoding="UTF-8"?>
<!DOCTYPE svg PUBLIC "-//W3C//DTD SVG 1.1//EN" "http://www.w3.org/Graphics/SVG/1.1/DTD/svg11.dtd">
<!-- Creator: CorelDRAW 2020 (64 Bit) -->
<svg xmlns="http://www.w3.org/2000/svg" xml:space="preserve" width="1950px" height="3546px" version="1.1" style="shape-rendering:geometricPrecision; text-rendering:geometricPrecision; image-rendering:optimizeQuality; fill-rule:evenodd; clip-rule:evenodd"
viewBox="0 0 195000 354611"
 xmlns:xlink="http://www.w3.org/1999/xlink"
 xmlns:xodm="http://www.corel.com/coreldraw/odm/2003">
 <defs>
  <style type="text/css">
   <![CDATA[
    .str0 {stroke:#4E5A62;stroke-width:236;stroke-miterlimit:22.9256}
    .str1 {stroke:#A7C4D2;stroke-width:236;stroke-miterlimit:22.9256}
    .fil0 {fill:#4E5A62}
    .fil1 {fill:#A7C4D2}
   ]]>
  </style>
 </defs>
 <g id="Camada_x0020_1">
  <metadata id="CorelCorpID_0Corel-Layer"/>
  <path class="fil0 str0" d="M-293 88c0,72770 0,145540 0,218310 65132,0 130264,0 195396,0 -70,-72701 -139,-145401 -209,-218102 -65062,-69 -130125,-139 -195187,-208z"/>
 </g>
 <g id="Camada_x0020_1_1_1">
  <metadata id="CorelCorpID_1Corel-Layer"/>
 </g>
 <g id="Camada_x0020_1_0_0">
  <metadata id="CorelCorpID_2Corel-Layer"/>
 </g>
 <g id="Camada_x0020_1_0_1">
  <metadata id="CorelCorpID_3Corel-Layer"/>
 </g>
 <g id="Camada_x0020_1_0_0_0">
  <metadata id="CorelCorpID_4Corel-Layer"/>
 </g>
 <g id="Camada_x0020_1_0_1_1">
  <metadata id="CorelCorpID_5Corel-Layer"/>
 </g>
 <g id="Camada_x0020_1_0">
  <metadata id="CorelCorpID_6Corel-Layer"/>
 </g>
 <g id="Camada_x0020_1_0_0_0_2">
  <metadata id="CorelCorpID_7Corel-Layer"/>
 </g>
 <g id="Camada_x0020_1_2">
  <metadata id="CorelCorpID_8Corel-Layer"/>
  <path class="fil1 str1" d="M-378 50977c4848,3822 9696,7643 14873,10921 5177,3278 10682,6011 16217,7609 5534,1598 11096,2060 17485,1562 6389,-498 13606,-1956 21683,-4162 8078,-2205 17017,-5159 27586,-8255 10568,-3095 22767,-6333 32378,-8013 9612,-1680 16635,-1803 24177,-796 7542,1007 15603,3144 22557,5488 6954,2344 12800,4895 18647,7446 98,-20903 196,-41805 294,-62708 -65270,-70 -130541,-139 -195812,-209 -28,17039 -57,34078 -85,51117z"/>
 </g>
</svg>
