<?xml version="1.0" encoding="UTF-8"?>
<!DOCTYPE svg PUBLIC "-//W3C//DTD SVG 1.1//EN" "http://www.w3.org/Graphics/SVG/1.1/DTD/svg11.dtd">
<!-- Creator: CorelDRAW 2020 (64 Bit) -->
<svg xmlns="http://www.w3.org/2000/svg" xml:space="preserve" width="19291px" height="33372px" version="1.1" style="shape-rendering:geometricPrecision; text-rendering:geometricPrecision; image-rendering:optimizeQuality; fill-rule:evenodd; clip-rule:evenodd"
viewBox="0 0 1929100 3337110"
 xmlns:xlink="http://www.w3.org/1999/xlink"
 xmlns:xodm="http://www.corel.com/coreldraw/odm/2003">
 <defs>
  <style type="text/css">
   <![CDATA[
    .str0 {stroke:#A7C4D2;stroke-width:2306;stroke-miterlimit:22.9256}
    .fil0 {fill:#A7C4D2}
   ]]>
  </style>
 </defs>
 <g id="Camada_x0020_1_2">
  <metadata id="CorelCorpID_0Corel-Layer"/>
 </g>
 <g id="Camada_x0020_1_0_0">
  <metadata id="CorelCorpID_1Corel-Layer"/>
 </g>
 <g id="Camada_x0020_1_0_0_0">
  <metadata id="CorelCorpID_2Corel-Layer"/>
 </g>
 <g id="Camada_x0020_1_2_1">
  <metadata id="CorelCorpID_3Corel-Layer"/>
 </g>
 <g id="Camada_x0020_1_2_3">
  <metadata id="CorelCorpID_4Corel-Layer"/>
 </g>
 <g id="Camada_x0020_1_2_3_2">
  <metadata id="CorelCorpID_5Corel-Layer"/>
 </g>
 <g id="Camada_x0020_1_2_3_3">
  <metadata id="CorelCorpID_6Corel-Layer"/>
 </g>
 <g id="Camada_x0020_1_2_1_4">
  <metadata id="CorelCorpID_7Corel-Layer"/>
  <path class="fil0 str0" d="M-1105 305517c47764,37654 95527,75298 146528,107592 51005,32294 105240,59220 159769,74963 54522,15744 109316,20296 172262,15391 62942,-4909 134044,-19272 213616,-41005 79585,-21724 167650,-50824 271777,-81328 104114,-30491 224296,-62391 318985,-78942 94694,-16553 163885,-17764 238187,-7843 74304,9921 153718,30973 222228,54068 68511,23092 126107,48224 183709,73356 968,-205934 -464,-223012 500,-428945 -643033,-691 -1286076,-1369 -1929119,-2059 -274,167867 1836,146885 1559,314753l-1 -1z"/>
 </g>
</svg>
