<?xml version="1.0" encoding="UTF-8"?>
<!DOCTYPE svg PUBLIC "-//W3C//DTD SVG 1.1//EN" "http://www.w3.org/Graphics/SVG/1.1/DTD/svg11.dtd">
<!-- Creator: CorelDRAW 2020 (64 Bit) -->
<svg xmlns="http://www.w3.org/2000/svg" xml:space="preserve" width="27516px" height="12502px" version="1.1" style="shape-rendering:geometricPrecision; text-rendering:geometricPrecision; image-rendering:optimizeQuality; fill-rule:evenodd; clip-rule:evenodd"
viewBox="0 0 2751600 1250211"
 xmlns:xlink="http://www.w3.org/1999/xlink"
 xmlns:xodm="http://www.corel.com/coreldraw/odm/2003">
 <defs>
  <style type="text/css">
   <![CDATA[
    .str0 {stroke:#4E5A62;stroke-width:737;stroke-miterlimit:22.9256}
    .fil1 {fill:#E6E7E8;fill-rule:nonzero}
    .fil0 {fill:#4E5A62;fill-rule:nonzero}
    .fil3 {fill:#C8C5E2;fill-rule:nonzero;fill-opacity:0.301961}
    .fil2 {fill:#D2D3D5;fill-rule:nonzero;fill-opacity:0.301961}
   ]]>
  </style>
 </defs>
 <g id="Camada_x0020_1_0_0">
  <metadata id="CorelCorpID_0Corel-Layer"/>
  <path class="fil0 str0" d="M12085 426294c81048,77849 164927,159259 221478,211629 56578,52332 88647,79186 124475,107330 35830,28103 75377,57485 119144,86507 43789,29022 91822,57685 140589,83045 48739,25388 98228,47476 149291,67865 51052,20382 103696,39090 157335,55076 53651,15995 108276,29265 167111,40136 58844,10858 121860,19286 181269,24010 59423,4737 115267,5743 182432,3331 67193,-2412 145686,-8271 215663,-15623 69977,-7384 131399,-16270 202567,-28779 71131,-12539 152007,-28747 219325,-42264 67322,-13496 121088,-24266 172111,-27097 50995,-2872 99243,2228 140861,11961 41602,9765 76570,24169 112214,42108 35612,17948 71927,39431 103149,61619 31187,22185 57310,45105 78033,69271 20719,24170 22819,27735 38143,53192 -32381,-34706 -51514,-47458 -98787,-80845 -47261,-33347 -109455,-65397 -164912,-85229 -55448,-19836 -104146,-27469 -153157,-28379 -49010,-918 -98393,4884 -155090,15293 -56666,10430 -120726,25506 -192431,41346 -71687,15839 -151097,32409 -227968,46354 -76870,13946 -151241,25232 -229118,31463 -77907,6221 -159359,7355 -223993,6221 -64634,-1122 -112417,-4512 -166436,-11317 -53982,-6778 -114195,-16933 -187766,-36922 -73580,-19960 -160518,-49714 -250084,-96224 -89566,-46502 -181757,-109802 -252469,-165031 -93040,-72596 -179463,-155969 -257133,-244804 -41805,-47848 -69974,-86719 -130578,-158618l-35268 -36624 0 -1z"/>
  <path class="fil1" d="M-801 -422c0,137111 0,276441 0,413571 51454,52126 102936,109136 161487,164115 58581,54938 124262,112757 188165,163749 63872,50995 126000,95190 182804,129759 56772,34568 108264,59500 166805,84975 58582,25517 124262,51580 189053,72537 64762,20985 128665,36834 196115,49861 67446,13036 138420,23250 220956,27197 82532,3975 176591,1706 272435,-6212 95837,-7949 193487,-21532 284859,-36834 91431,-15323 176595,-32303 243163,-45330 66559,-13036 114495,-22119 162274,-24716 47783,-2637 95447,1191 134477,9696 39031,8496 69468,21660 99790,37312 30313,15664 60476,33778 93326,57028 32831,23214 68308,51570 94740,78005 26435,26426 43808,50964 61150,75496 0,-414374 0,-835838 0,-1250209 -230371,0 -2751596,-4 -2751599,0l0 0z"/>
  <path class="fil2" d="M5820 420045c88532,-46358 177063,-92713 252284,-127203 75258,-34478 137236,-57094 197449,-68959 60172,-11877 118616,-13008 172630,-2812 53982,10165 103577,31647 153134,70065 49589,38452 99147,93841 154935,159971 55779,66160 117729,143030 177941,201805 60210,58807 118617,99487 178829,132837 60210,33356 122191,59360 189444,77455 67290,18095 139883,28263 221334,28263 81451,0 171752,-10168 253200,-27716 81451,-17517 154016,-42390 217762,-62741 63756,-20320 118629,-36159 170871,-40133 52216,-3938 101802,3974 143392,27137 41630,23192 75261,61607 100952,96675 25663,35028 43367,66675 64147,120569 20751,53895 44589,130003 68415,206114 -12999,-14345 -26026,-28719 -43574,-45564 -17576,-16817 -39674,-36075 -73608,-61035 -33934,-24928 -79714,-55544 -126703,-76479 -46999,-20898 -95209,-32128 -143401,-34997 -48180,-2903 -96344,2528 -143030,9637 -46726,7118 -91978,15907 -135489,24238 -43524,8358 -85301,16258 -116920,22304 -31609,6043 -53063,10252 -93803,16658 -40740,6414 -100737,14989 -156184,21885 -55445,6893 -106352,12058 -158350,15348 -52001,3303 -105102,4669 -159662,4250 -54567,-431 -110627,-2656 -164668,-9043 -54079,-6406 -106168,-16992 -151820,-26941 -45661,-9952 -84897,-19317 -131808,-33750 -46933,-14470 -101559,-34003 -153129,-53532 -51579,-19501 -100130,-39002 -153594,-66462 -53494,-27497 -111898,-62984 -158959,-95884 -47057,-32897 -82729,-63200 -116907,-91978 -34178,-28776 -66862,-56032 -103393,-88404 -36562,-32409 -76958,-69918 -98412,-89935 -21454,-19988 -23963,-22488 -43008,-41502 -19070,-19042 -54682,-54598 -90297,-90141l0 0 0 0 0 0z"/>
  <path class="fil3" d="M691048 951911c44249,-5459 88532,-10918 145170,-23251 56666,-12324 125697,-31550 192100,-54714 66402,-23191 130149,-50320 185665,-77848 55532,-27497 102865,-55416 159541,-85385 56638,-29969 122640,-61950 181300,-84195 58679,-22216 110005,-34637 163137,-42577 53101,-7899 108002,-11289 164668,-5643 56638,5643 115082,20360 170861,45230 55760,24872 108880,59931 153138,96678 44273,36733 79673,75161 113332,117550 33631,42412 65497,88766 84479,118345 18973,29597 25048,42411 31150,55260 -35915,-7899 -71802,-15780 -109798,-18555 -37959,-2771 -77995,-428 -135033,8459 -57039,8877 -131037,24285 -206014,38630 -74987,14346 -150910,27617 -221250,37565 -70337,9981 -135071,16661 -191678,21183 -56581,4512 -105005,6865 -157621,7840 -52605,978 -109368,578 -167256,-4825 -57928,-5368 -116938,-15748 -175354,-27341 -58432,-11630 -116232,-24472 -179588,-45077 -63319,-20595 -132134,-48979 -200949,-77329l0 0z"/>
 </g>
</svg>
