<?xml version="1.0" encoding="UTF-8"?>
<!DOCTYPE svg PUBLIC "-//W3C//DTD SVG 1.1//EN" "http://www.w3.org/Graphics/SVG/1.1/DTD/svg11.dtd">
<!-- Creator: CorelDRAW 2020 (64 Bit) -->
<svg xmlns="http://www.w3.org/2000/svg" xml:space="preserve" width="107499px" height="58750px" version="1.1" style="shape-rendering:geometricPrecision; text-rendering:geometricPrecision; image-rendering:optimizeQuality; fill-rule:evenodd; clip-rule:evenodd"
viewBox="0 0 10749900 5874946"
 xmlns:xlink="http://www.w3.org/1999/xlink"
 xmlns:xodm="http://www.corel.com/coreldraw/odm/2003">
 <defs>
  <style type="text/css">
   <![CDATA[
    .str1 {stroke:#4E5A62;stroke-width:236;stroke-miterlimit:22.9256}
    .str0 {stroke:#A7C4D2;stroke-width:236;stroke-miterlimit:22.9256}
    .fil1 {fill:#4E5A62}
    .fil0 {fill:#A7C4D2}
   ]]>
  </style>
 </defs>
 <g id="Camada_x0020_1_1_1">
  <metadata id="CorelCorpID_0Corel-Layer"/>
 </g>
 <g id="Camada_x0020_1_0_0">
  <metadata id="CorelCorpID_1Corel-Layer"/>
 </g>
 <g id="Camada_x0020_1_0_1">
  <metadata id="CorelCorpID_2Corel-Layer"/>
 </g>
 <g id="Camada_x0020_1_0_0_0">
  <metadata id="CorelCorpID_3Corel-Layer"/>
 </g>
 <g id="Camada_x0020_1_0_1_1">
  <metadata id="CorelCorpID_4Corel-Layer"/>
 </g>
 <g id="Camada_x0020_1_0">
  <metadata id="CorelCorpID_5Corel-Layer"/>
 </g>
 <g id="Camada_x0020_1_0_0_0_2">
  <metadata id="CorelCorpID_6Corel-Layer"/>
  <path class="fil0 str0" d="M-22004 -38922c3599989,0 7199979,0 10799968,0 0,1973327 0,3946655 0,5919983 -3599989,0 -7199979,0 -10799968,0 0,-1973328 0,-3946656 0,-5919983z"/>
  <path class="fil1 str1" d="M-12223 773143c175248,100496 350496,200992 523314,280888 172818,79897 343207,139193 544485,183691 201278,44497 433446,74195 635348,90165 201903,15969 373539,18210 594230,12134 220691,-6076 490437,-20469 732111,-37470 241673,-17001 455275,-36610 696204,-61125 240928,-24515 509184,-53935 768637,-83583 259453,-29647 510103,-59523 800262,-94013 290158,-34491 619824,-73596 880540,-102927 260716,-29331 452482,-48888 650814,-66939 198333,-18051 403233,-34595 608338,-47928 205104,-13332 410413,-23452 632466,-26909 222053,-3458 460851,-253 689746,14771 228895,15023 447888,41864 691589,96095 243700,54231 512109,135852 742666,222463 230557,86611 423263,178213 615969,269815 858,1493954 1717,2987908 2576,4481862 -3602589,-3356 -7205178,-6713 -10807766,-10069 -510,-1706974 -1019,-3413948 -1529,-5120921z"/>
 </g>
</svg>
