<?xml version="1.0" encoding="UTF-8"?>
<!DOCTYPE svg PUBLIC "-//W3C//DTD SVG 1.1//EN" "http://www.w3.org/Graphics/SVG/1.1/DTD/svg11.dtd">
<!-- Creator: CorelDRAW 2020 (64 Bit) -->
<svg xmlns="http://www.w3.org/2000/svg" xml:space="preserve" width="34135px" height="24160px" version="1.1" style="shape-rendering:geometricPrecision; text-rendering:geometricPrecision; image-rendering:optimizeQuality; fill-rule:evenodd; clip-rule:evenodd"
viewBox="0 0 3413500 2415992"
 xmlns:xlink="http://www.w3.org/1999/xlink"
 xmlns:xodm="http://www.corel.com/coreldraw/odm/2003">
 <defs>
  <style type="text/css">
   <![CDATA[
    .str1 {stroke:#4E5A62;stroke-width:2303;stroke-miterlimit:22.9256}
    .str0 {stroke:#CCE7D4;stroke-width:2303;stroke-miterlimit:22.9256}
    .fil1 {fill:#4E5A62}
    .fil0 {fill:#CCE7D4}
   ]]>
  </style>
 </defs>
 <g id="Camada_x0020_1_0">
  <metadata id="CorelCorpID_0Corel-Layer"/>
  <rect class="fil0 str0" x="12758" y="-20681" width="3413500" height="2415992"/>
  <path class="fil1 str1" d="M12761 631777c236512,20716 473027,41425 701555,-23300 228524,-64731 449062,-214896 695164,-313283 246106,-98388 517777,-144991 743108,-168297 225328,-23300 404315,-23300 572112,-23300 167799,0 324412,0 439471,-20712 115062,-20713 188574,-62138 225331,-82853 36756,-20713 36756,-20713 36756,-20713 -1137832,0 -2275665,0 -3413497,0 0,217487 0,434971 0,652458l0 0 0 0z"/>
 </g>
</svg>
