<?xml version="1.0" encoding="UTF-8"?>
<!DOCTYPE svg PUBLIC "-//W3C//DTD SVG 1.1//EN" "http://www.w3.org/Graphics/SVG/1.1/DTD/svg11.dtd">
<!-- Creator: CorelDRAW 2020 (64 Bit) -->
<svg xmlns="http://www.w3.org/2000/svg" xml:space="preserve" width="200px" height="200px" version="1.1" style="shape-rendering:geometricPrecision; text-rendering:geometricPrecision; image-rendering:optimizeQuality; fill-rule:evenodd; clip-rule:evenodd"
viewBox="0 0 20000 20000"
 xmlns:xlink="http://www.w3.org/1999/xlink"
 xmlns:xodm="http://www.corel.com/coreldraw/odm/2003">
 <defs>
  <style type="text/css">
   <![CDATA[
    .str0 {stroke:#C8C5E2;stroke-width:369;stroke-miterlimit:22.9256;stroke-opacity:0.039216}
    .fil2 {fill:#4E5A62;fill-rule:nonzero}
    .fil0 {fill:#C8C5E2;fill-opacity:0.039216}
    .fil3 {fill:#C3C8E5;fill-rule:nonzero;fill-opacity:0.058824}
    .fil4 {fill:#91D8F7;fill-rule:nonzero;fill-opacity:0.168627}
    .fil1 {fill:#C0CAE6;fill-rule:nonzero;fill-opacity:0.400000}
   ]]>
  </style>
 </defs>
 <g id="Camada_x0020_1">
  <metadata id="CorelCorpID_0Corel-Layer"/>
  <path class="fil0 str0" d="M68626 20728c-128,-75 -241,-159 -348,-247 -316,-258 -576,-544 -1022,-713 -595,-226 -1419,-574 -2030,-656 -611,-83 -1311,-87 -1911,-40 -600,47 -1370,295 -2021,433 -650,139 -1383,439 -2171,656 -788,217 -1665,557 -2623,796 -957,240 -1946,514 -2889,687 -942,173 -1675,323 -2476,413 -801,91 -1676,175 -2374,198 -699,22 -1393,46 -2033,12 -640,-34 -1282,-109 -1873,-211 -592,-102 -1185,-231 -1784,-419 -599,-187 -1192,-420 -1713,-659 -520,-238 -1057,-544 -1480,-806 -422,-262 -832,-558 -1227,-867 -395,-310 -750,-630 -1097,-963 -347,-333 -630,-638 -942,-1015 -313,-377 -653,-842 -930,-1248 -277,-407 -501,-801 -731,-1204 -231,-402 -427,-703 -653,-1122 5,-1726 -6,-3540 0,-5266 813,-728 1716,-1484 3109,-2025 1393,-541 3366,-896 5502,244 2136,1140 4436,3775 6297,6119 1861,2344 3283,4398 5522,4654 2240,257 5297,-1284 7480,-1634 2184,-350 3493,491 4382,1518 888,1026 1567,2154 2036,3365l0 0z"/>
 </g>
 <g id="Camada_x0020_1_0">
  <metadata id="CorelCorpID_1Corel-Layer"/>
  <g id="_858197152">
   <path class="fil1" d="M22 3069c591,568 1182,1136 1594,1518 412,382 646,578 907,783 261,205 550,420 869,631 319,212 669,421 1024,606 356,185 716,347 1089,495 372,149 756,285 1147,402 391,117 789,214 1218,293 428,79 888,141 1321,175 433,34 840,42 1330,24 489,-17 1062,-60 1572,-114 510,-53 957,-118 1476,-210 519,-91 1108,-209 1599,-308 490,-98 882,-177 1254,-198 372,-21 724,17 1027,88 303,71 558,176 818,307 260,131 524,288 752,449 227,162 418,329 569,506 151,176 262,362 374,548 -236,-253 -472,-507 -816,-750 -345,-243 -798,-477 -1202,-622 -405,-145 -760,-200 -1117,-207 -357,-7 -717,36 -1130,112 -413,76 -880,186 -1403,301 -523,116 -1101,237 -1661,338 -561,102 -1103,185 -1671,230 -568,45 -1161,54 -1632,45 -471,-8 -820,-33 -1213,-82 -394,-50 -833,-124 -1369,-269 -536,-146 -1170,-363 -1823,-702 -653,-340 -1325,-801 -1840,-1204 -516,-403 -875,-747 -1138,-1006 -264,-258 -432,-431 -736,-780 -305,-349 -747,-874 -1189,-1399z"/>
   <path class="fil2" d="M-46 -8c0,998 0,1996 0,2994 374,379 748,758 1174,1158 426,400 904,821 1368,1192 465,371 916,693 1329,945 413,251 788,433 1214,618 425,186 903,375 1374,528 471,152 936,268 1426,363 491,95 1007,169 1607,198 600,29 1284,12 1981,-46 697,-57 1407,-156 2071,-268 665,-111 1284,-235 1768,-330 484,-94 833,-160 1180,-179 348,-20 694,8 978,70 284,62 505,158 726,272 220,114 440,246 678,415 239,169 497,375 689,567 193,193 319,371 445,550 0,-3016 0,-6031 0,-9047 -6669,0 -13339,0 -20008,0z"/>
   <path class="fil3" d="M-46 2986c645,-338 1290,-677 1839,-928 548,-252 1000,-417 1439,-503 439,-87 864,-95 1258,-21 394,74 755,231 1116,512 362,280 723,684 1130,1167 406,482 858,1043 1297,1472 438,429 864,725 1303,969 439,243 891,433 1381,565 491,132 1020,206 1613,206 594,0 1252,-74 1846,-202 593,-128 1123,-310 1587,-458 465,-148 865,-264 1246,-293 380,-29 742,29 1045,198 303,169 549,450 736,705 187,256 316,487 467,880 152,393 325,948 499,1504 -95,-105 -190,-210 -318,-333 -128,-122 -289,-263 -536,-445 -247,-182 -581,-405 -924,-558 -342,-152 -694,-234 -1045,-255 -351,-21 -702,18 -1043,70 -340,52 -670,116 -987,177 -317,61 -622,118 -852,163 -231,44 -387,74 -684,121 -297,47 -734,110 -1139,160 -404,50 -775,88 -1154,112 -379,24 -766,34 -1163,31 -398,-3 -807,-20 -1201,-66 -394,-47 -774,-124 -1106,-197 -333,-72 -619,-141 -961,-246 -342,-105 -740,-248 -1116,-390 -376,-143 -730,-285 -1120,-486 -390,-200 -816,-459 -1158,-699 -343,-240 -604,-461 -853,-671 -249,-210 -487,-409 -753,-645 -267,-236 -561,-510 -718,-656 -156,-146 -174,-164 -313,-303 -139,-138 -399,-398 -658,-657z"/>
   <path class="fil4" d="M4948 6866c323,-40 646,-80 1059,-170 412,-90 916,-230 1400,-399 484,-169 948,-367 1353,-568 405,-201 750,-404 1163,-623 413,-218 894,-452 1321,-614 428,-162 802,-253 1190,-310 387,-58 787,-83 1200,-42 413,42 839,149 1245,330 407,182 794,437 1117,705 322,268 580,549 826,858 245,309 477,648 615,863 139,216 183,310 227,404 -261,-58 -523,-116 -800,-136 -277,-20 -568,-3 -984,62 -416,65 -955,177 -1502,282 -546,104 -1100,201 -1612,274 -513,73 -985,121 -1398,154 -412,33 -765,50 -1149,57 -383,8 -797,5 -1219,-35 -422,-39 -852,-115 -1278,-199 -426,-85 -847,-179 -1309,-329 -461,-150 -963,-357 -1465,-564z"/>
  </g>
 </g>
</svg>
