<?xml version="1.0" encoding="UTF-8"?>
<!DOCTYPE svg PUBLIC "-//W3C//DTD SVG 1.1//EN" "http://www.w3.org/Graphics/SVG/1.1/DTD/svg11.dtd">
<!-- Creator: CorelDRAW 2020 (64 Bit) -->
<svg xmlns="http://www.w3.org/2000/svg" xml:space="preserve" width="2811px" height="1270px" version="1.1" style="shape-rendering:geometricPrecision; text-rendering:geometricPrecision; image-rendering:optimizeQuality; fill-rule:evenodd; clip-rule:evenodd"
viewBox="0 0 281100 126996"
 xmlns:xlink="http://www.w3.org/1999/xlink"
 xmlns:xodm="http://www.corel.com/coreldraw/odm/2003">
 <defs>
  <style type="text/css">
   <![CDATA[
    .fil1 {fill:#4E5A62;fill-rule:nonzero}
    .fil2 {fill:#C3C8E5;fill-rule:nonzero;fill-opacity:0.058824}
    .fil3 {fill:#91D8F7;fill-rule:nonzero;fill-opacity:0.168627}
    .fil0 {fill:#CCE7D4;fill-rule:nonzero}
   ]]>
  </style>
 </defs>
 <g id="Camada_x0020_1_1_1">
  <metadata id="CorelCorpID_0Corel-Layer"/>
 </g>
 <g id="Camada_x0020_1_1_1_0">
  <metadata id="CorelCorpID_1Corel-Layer"/>
 </g>
 <g id="Camada_x0020_1_0_0">
  <metadata id="CorelCorpID_2Corel-Layer"/>
  <path class="fil0" d="M5075 46638c8300,7972 12940,12503 18731,17866 5794,5359 9078,8109 12747,10991 3669,2878 7719,5887 12201,8859 4484,2972 9403,5907 14397,8504 4991,2600 10059,4862 15288,6950 5228,2087 10619,4003 16112,5640 5494,1638 11088,2997 17113,4110 6026,1112 12479,1975 18563,2459 6085,485 11804,588 18682,341 6881,-247 14919,-847 22085,-1600 7166,-756 13456,-1666 20744,-2947 7284,-1284 15566,-2944 22460,-4328 6894,-1382 12400,-2485 17625,-2775 5222,-294 10163,228 14425,1225 4260,1000 7841,2475 11491,4312 3647,1838 7366,4038 10563,6310 3194,2272 5869,4619 7991,7094 2122,2475 2337,2840 3906,5447 -3316,-3554 -5275,-4860 -10116,-8279 -4840,-3415 -11209,-6697 -16888,-8728 -5678,-2031 -10665,-2813 -15684,-2906 -5019,-94 -10076,500 -15882,1566 -5803,1068 -12363,2612 -19706,4234 -7341,1622 -15473,3319 -23345,4747 -7872,1428 -15488,2584 -23463,3222 -7978,637 -16319,753 -22938,637 -6619,-115 -11512,-462 -17044,-1159 -5528,-694 -11694,-1734 -19228,-3781 -7535,-2044 -16438,-5091 -25610,-9854 -9172,-4762 -18613,-11244 -25854,-16900 -9528,-7434 -18378,-15972 -26332,-25069 -4281,-4900 -6828,-8825 -13034,-16188z"/>
  <path class="fil1" d="M-194 -141c0,14041 0,28084 0,42127 5269,5338 10541,10676 16537,16306 5999,5626 12725,11547 19269,16769 6541,5222 12903,9748 18720,13288 5814,3540 11087,6093 17082,8702 5999,2613 12725,5282 19360,7428 6632,2149 13176,3772 20083,5106 6907,1335 14175,2381 22627,2785 8452,407 18084,175 27899,-636 9814,-814 19814,-2205 29171,-3772 9363,-1569 18084,-3308 24901,-4642 6816,-1335 11725,-2265 16618,-2531 4893,-270 9774,122 13771,993 3997,870 7114,2218 10219,3821 3104,1604 6193,3459 9557,5840 3362,2377 6995,5281 9702,7988 2707,2706 4486,5219 6262,7731 0,-42434 0,-84869 0,-127303 -93925,0 -187853,0 -281778,0l0 0z"/>
  <path class="fil2" d="M484 42192c9066,-4747 18132,-9494 25835,-13026 7707,-3531 14054,-5847 20220,-7062 6162,-1216 12147,-1332 17678,-288 5528,1041 10607,3241 15682,7175 5078,3938 10153,9610 15866,16382 5712,6775 12056,14647 18222,20666 6166,6022 12147,10188 18313,13603 6166,3416 12513,6079 19400,7932 6891,1853 14325,2894 22666,2894 8341,0 17588,-1041 25929,-2838 8341,-1794 15772,-4341 22300,-6425 6529,-2081 12148,-3703 17498,-4110 5347,-403 10425,407 14684,2779 4263,2375 7707,6309 10338,9900 2628,3587 4441,6828 6569,12347 2125,5519 4566,13313 7006,21107 -1331,-1469 -2665,-2941 -4462,-4666 -1800,-1722 -4063,-3694 -7538,-6250 -3475,-2553 -8163,-5688 -12975,-7832 -4813,-2140 -9750,-3290 -14685,-3584 -4934,-297 -9866,259 -14647,987 -4785,729 -9419,1629 -13875,2482 -4457,856 -8735,1665 -11973,2284 -3237,619 -5434,1050 -9606,1706 -4172,657 -10316,1535 -15994,2241 -5678,706 -10891,1235 -16216,1572 -5325,338 -10763,478 -16350,435 -5588,-44 -11329,-272 -16863,-926 -5538,-656 -10872,-1740 -15547,-2759 -4676,-1019 -8694,-1978 -13498,-3456 -4806,-1482 -10400,-3482 -15681,-5482 -5282,-1997 -10254,-3994 -15729,-6806 -5478,-2816 -11459,-6450 -16278,-9819 -4819,-3369 -8472,-6472 -11972,-9419 -3500,-2947 -6847,-5738 -10588,-9053 -3744,-3319 -7881,-7160 -10078,-9210 -2197,-2047 -2454,-2303 -4404,-4250 -1953,-1950 -5600,-5591 -9247,-9231l0 0z"/>
  <path class="fil3" d="M70655 96658c4531,-559 9066,-1118 14866,-2381 5803,-1262 12872,-3231 19672,-5603 6800,-2375 13328,-5153 19013,-7972 5687,-2816 10534,-5675 16338,-8744 5800,-3069 12559,-6344 18566,-8622 6009,-2275 11265,-3547 16706,-4360 5438,-809 11060,-1156 16863,-578 5800,578 11785,2085 17497,4632 5710,2547 11150,6137 15682,9900 4534,3762 8159,7697 11606,12038 3444,4343 6707,9090 8651,12119 1943,3031 2565,4343 3190,5659 -3678,-809 -7353,-1616 -11244,-1900 -3887,-284 -7987,-44 -13828,866 -5841,909 -13419,2487 -21097,3956 -7679,1469 -15454,2828 -22657,3847 -7203,1022 -13832,1706 -19629,2169 -5794,462 -10753,703 -16141,803 -5387,100 -11200,59 -17128,-494 -5932,-550 -11975,-1613 -17957,-2800 -5984,-1191 -11903,-2506 -18391,-4616 -6484,-2109 -13531,-5016 -20578,-7919z"/>
 </g>
</svg>
