<?xml version="1.0" encoding="UTF-8"?>
<!DOCTYPE svg PUBLIC "-//W3C//DTD SVG 1.1//EN" "http://www.w3.org/Graphics/SVG/1.1/DTD/svg11.dtd">
<!-- Creator: CorelDRAW 2020 (64 Bit) -->
<svg xmlns="http://www.w3.org/2000/svg" xml:space="preserve" width="1945px" height="2540px" version="1.1" style="shape-rendering:geometricPrecision; text-rendering:geometricPrecision; image-rendering:optimizeQuality; fill-rule:evenodd; clip-rule:evenodd"
viewBox="0 0 194500 253995"
 xmlns:xlink="http://www.w3.org/1999/xlink"
 xmlns:xodm="http://www.corel.com/coreldraw/odm/2003">
 <defs>
  <style type="text/css">
   <![CDATA[
    .str0 {stroke:#4E5A62;stroke-width:737;stroke-miterlimit:22.9256}
    .fil0 {fill:#E6E7E8}
    .fil1 {fill:#4E5A62}
    .fil2 {fill:#C8C5E2;fill-opacity:0.278431}
    .fil3 {fill:#D2D3D5;fill-opacity:0.301961}
   ]]>
  </style>
 </defs>
 <g id="Camada_x0020_1">
  <metadata id="CorelCorpID_0Corel-Layer"/>
  <path class="fil0" d="M-162 202993c2189,2878 4378,5760 6711,8539 2327,2779 4798,5460 7367,7990 2565,2529 5228,4905 8298,7299 3067,2392 6541,4799 10189,6932 3644,2135 7457,3996 11481,5532 4026,1533 8263,2738 11816,3597 3553,858 6420,1374 9521,1755 3101,384 6438,633 10035,758 3600,125 7458,122 11591,-121 4130,-247 8533,-734 13231,-1590 4697,-858 9693,-2088 14827,-3731 5133,-1642 10408,-3696 15169,-5682 4757,-1986 8997,-3903 12810,-5489 3817,-1586 7207,-2841 10023,-3712 2813,-875 5046,-1365 8257,-1377 3211,-9 7398,462 11001,1420 3603,956 6623,2398 9543,4212 2923,1814 5745,3997 7962,5664 2224,1664 3842,2810 5460,3956 -141,-79963 -285,-159929 -426,-239892 -64957,3 -129910,6 -194866,9 0,67977 0,135954 0,203930l0 1z"/>
 </g>
 <g id="Camada_x0020_1_2">
  <metadata id="CorelCorpID_1Corel-Layer"/>
  <path class="fil1 str0" d="M-162 202270c2067,2645 4134,5286 6570,8127 2434,2841 5237,5882 8436,8964 3199,3081 6796,6207 10067,8717 3271,2507 6221,4399 10047,6360 3829,1964 8537,3996 13005,5504 4469,1508 8697,2489 12369,3141 3672,656 6786,990 11067,1218 4280,231 9728,362 14090,269 4359,-94 7636,-413 11719,-1087 4086,-671 8985,-1705 13620,-2972 4635,-1271 9013,-2782 12939,-4296 3923,-1518 7398,-3038 10512,-4400 3111,-1361 5858,-2557 8699,-3756 2844,-1199 5780,-2397 8982,-3337 3201,-940 6670,-1621 10179,-1711 3509,-94 7059,400 10572,1564 3512,1165 6987,3000 10261,5124 3274,2120 6344,4527 9414,6934 -5767,-2944 -11531,-5888 -16796,-7671 -5266,-1783 -10026,-2404 -14627,-1936 -4604,468 -9041,2029 -13472,3925 -4431,1895 -8853,4130 -14454,6684 -5601,2554 -12381,5433 -19305,7825 -6928,2391 -13999,4293 -19967,5463 -5971,1171 -10835,1608 -15520,1674 -4686,69 -9195,-234 -14116,-1130 -4917,-893 -10248,-2376 -15325,-4406 -5074,-2026 -9894,-4602 -14423,-7499 -4531,-2895 -8774,-6117 -12506,-9386 -3735,-3269 -6959,-6588 -10547,-11246 -3590,-4658 -7539,-10659 -11490,-16660l0 0z"/>
  <path class="fil2" d="M10849 215706c4321,-50 8643,-97 14149,-646 5511,-549 12209,-1602 19334,-4340 7125,-2741 14680,-7165 22557,-13307 7875,-6138 16072,-13990 23132,-20653 7055,-6663 12973,-12133 18743,-16860 5771,-4727 11397,-8711 16847,-11674 5447,-2963 10719,-4908 15319,-5798 4601,-890 8530,-724 13212,609 4682,1333 10117,3834 14918,6678 4798,2845 8960,6032 13040,9420 4080,3384 8081,6972 12080,10556 316,23083 633,46168 950,69254 -3246,-2563 -6492,-5127 -10023,-7553 -3531,-2426 -7351,-4714 -11214,-6113 -3867,-1399 -7777,-1908 -11365,-1936 -3588,-28 -6846,422 -10051,1405 -3202,987 -6350,2510 -9766,4069 -3412,1557 -7093,3150 -11365,4895 -4271,1745 -9135,3641 -14014,5139 -4880,1496 -9775,2598 -14106,3550 -4331,956 -8094,1764 -13303,2176 -5212,416 -11867,431 -17474,160 -5607,-269 -10167,-828 -14752,-1783 -4585,-959 -9198,-2314 -13528,-4012 -4331,-1696 -8377,-3734 -12137,-5957 -3760,-2223 -7235,-4628 -10719,-7541 -3481,-2909 -6974,-6325 -10465,-9738l1 0z"/>
  <path class="fil3" d="M-162 111521c2609,-3450 5215,-6897 7520,-9913 2302,-3013 4303,-5595 6702,-8130 2402,-2535 5203,-5024 7834,-6760 2631,-1736 5093,-2716 7721,-3003 2631,-287 5428,122 8003,1171 2578,1049 4933,2738 7918,6104 2986,3362 6605,8401 9465,13004 2860,4602 4964,8767 7272,13769 2305,5001 4814,10840 7012,16110 2198,5274 4083,9985 5852,14397 1765,4414 3418,8533 5134,12698 1715,4165 3496,8376 5177,12170 1681,3793 3262,7172 6059,12024 2797,4855 6808,11187 10258,15467 3446,4281 6332,6507 9518,7762 3189,1255 6683,1539 10772,924 4096,-612 8787,-2120 13356,-3822 4566,-1704 9010,-3603 12413,-4930 3402,-1327 5767,-2082 8617,-2475 2848,-391 6178,-419 9471,540 3296,958 6554,2903 9700,6097 3142,3198 6175,7641 9408,13554 3233,5910 6673,13288 10110,20666 -2537,-1767 -5074,-3534 -7890,-5498 -2816,-1961 -5911,-4118 -7796,-5320 -1882,-1203 -2553,-1449 -4620,-2205 -2063,-759 -5519,-2026 -9404,-2335 -3886,-306 -8201,343 -12243,1386 -4046,1043 -7822,2479 -11626,4012 -3804,1533 -7642,3166 -12111,4999 -4472,1832 -9574,3865 -15670,5679 -6100,1817 -13190,3416 -19419,4293 -6225,877 -11584,1030 -17094,899 -5507,-128 -11164,-540 -17010,-1636 -5845,-1096 -11879,-2875 -16884,-4786 -5005,-1914 -8982,-3956 -12924,-6432 -3941,-2479 -7852,-5392 -11236,-8317 -3380,-2926 -6237,-5864 -9377,-9398 -3139,-3532 -6563,-7656 -9988,-11780 0,-30330 0,-60656 0,-90985z"/>
 </g>
 <g id="Camada_x0020_1_0_0">
  <metadata id="CorelCorpID_2Corel-Layer"/>
 </g>
 <g id="Camada_x0020_1_0_0_0">
  <metadata id="CorelCorpID_3Corel-Layer"/>
 </g>
</svg>
