<?xml version="1.0" encoding="UTF-8"?>
<!DOCTYPE svg PUBLIC "-//W3C//DTD SVG 1.1//EN" "http://www.w3.org/Graphics/SVG/1.1/DTD/svg11.dtd">
<!-- Creator: CorelDRAW 2020 (64 Bit) -->
<svg xmlns="http://www.w3.org/2000/svg" xml:space="preserve" width="268689px" height="122630px" version="1.1" style="shape-rendering:geometricPrecision; text-rendering:geometricPrecision; image-rendering:optimizeQuality; fill-rule:evenodd; clip-rule:evenodd"
viewBox="0 0 26868900 12262987"
 xmlns:xlink="http://www.w3.org/1999/xlink"
 xmlns:xodm="http://www.corel.com/coreldraw/odm/2003">
 <defs>
  <style type="text/css">
   <![CDATA[
    .str0 {stroke:#A7C4D2;stroke-width:236;stroke-miterlimit:22.9256}
    .fil0 {fill:#A7C4D2}
   ]]>
  </style>
 </defs>
 <g id="Camada_x0020_1_0_0_0">
  <metadata id="CorelCorpID_0Corel-Layer"/>
 </g>
 <g id="Camada_x0020_1_0_0">
  <metadata id="CorelCorpID_1Corel-Layer"/>
 </g>
 <g id="Camada_x0020_1_0_0_0_2">
  <metadata id="CorelCorpID_2Corel-Layer"/>
 </g>
 <g id="Camada_x0020_1_0_0_0">
  <metadata id="CorelCorpID_3Corel-Layer"/>
 </g>
 <g id="Camada_x0020_1_0_0_1">
  <metadata id="CorelCorpID_4Corel-Layer"/>
  <path class="fil0 str0" d="M11849393 10304724c686774,17088 1314484,-11237 1942379,-48356 627892,-37119 1255971,-83034 1934828,-167244 678858,-84213 1408496,-206719 2089557,-335347 681064,-128629 1313552,-263382 1870272,-381851 556723,-118472 1037677,-220663 1529818,-296576 492142,-75912 995468,-125544 1557809,-79712 562342,45831 1183699,187122 1699825,371475 516129,184351 927027,411757 1302765,641970 375738,230210 775222,463226 1115798,696239 0,525498 0,1050996 0,1576493 -8956300,0 -17971506,0 -26927806,0 0,-2585570 0,-3545920 0,-6131493 2564051,2287494 8452285,4069000 11884755,4154402z"/>
 </g>
</svg>
