<?xml version="1.0" encoding="UTF-8"?>
<!DOCTYPE svg PUBLIC "-//W3C//DTD SVG 1.1//EN" "http://www.w3.org/Graphics/SVG/1.1/DTD/svg11.dtd">
<!-- Creator: CorelDRAW 2020 (64 Bit) -->
<svg xmlns="http://www.w3.org/2000/svg" xml:space="preserve" width="3508px" height="2480px" version="1.1" style="shape-rendering:geometricPrecision; text-rendering:geometricPrecision; image-rendering:optimizeQuality; fill-rule:evenodd; clip-rule:evenodd"
viewBox="0 0 350800 248040"
 xmlns:xlink="http://www.w3.org/1999/xlink"
 xmlns:xodm="http://www.corel.com/coreldraw/odm/2003">
 <defs>
  <style type="text/css">
   <![CDATA[
    .fil8 {fill:black}
    .fil1 {fill:#016FB9}
    .fil7 {fill:#020202}
    .fil4 {fill:#28A8DE}
    .fil5 {fill:#CECECE}
    .fil0 {fill:#E34C25}
    .fil6 {fill:#EAEAEA}
    .fil2 {fill:#F06428}
    .fil3 {fill:#FDFDFD}
   ]]>
  </style>
 </defs>
 <g id="Camada_x0020_1">
  <metadata id="CorelCorpID_0Corel-Layer"/>
  <g id="_1216997072">
   <path class="fil0" d="M118989 203614l-40960 -229c-2453,-3074 -10188,-24505 -10544,-28552l17695 -5057 5714 14362 22438 -1 -7266 -29039c-8258,-469 -31507,8349 -42671,10236l-19881 -55102 46438 -12590 -4560 -18795 60566 -15801c1964,4180 22839,123078 23841,133656 -9494,3697 -33359,20673 -46035,26170l-4775 -19258zm4842 33031l-38236 0c-10691,-514 -20338,-1124 -25050,-1124 -489,-5874 -29325,-80620 -33854,-94265l-20091 -55207 94172 -24957c8652,-2358 50605,-14378 56424,-14378l17053 97550c546,2310 -108,859 777,2472 -19,15579 6851,39614 8914,56117 -2673,1532 -6210,3211 -7939,5695l-23505 13282c-3993,2417 -7277,4123 -11388,6593l-11292 6690c-1257,687 -3328,1183 -5985,1532z"/>
   <path class="fil1" d="M231316 202863l-38342 -21265 4313 -29804 18790 4638 -2553 16001 23498 10996 257 77 7750 -31339 -45129 -12173c-237,-10003 3369,-18174 3370,-18183 491,-3200 42656,-7532 48768,-8523l-46010 -13278 2579 -18150 51117 13023c3119,-3614 4176,-11727 5276,-16895l61167 16029 -46387 127903 -53098 328 4634 -19385zm-56290 -56127c-19,15579 6851,39614 8914,56117 -2673,1532 -6210,3211 -7939,5695 7658,3497 14817,8355 22291,12850l21838 13001c6103,2886 56766,1122 68557,1122l48468 -131349c2097,-5836 5159,-13057 6601,-19247l-121607 -32362c-5476,-1502 -9798,-2327 -15273,-3832 -20910,-5750 -10862,-11687 -25789,64580 -1154,5895 -1781,10146 -2844,16261 -846,4867 -2440,11616 -3217,17164z"/>
   <path class="fil2" d="M89952 97642l2055 -132c4252,-2003 40374,-11567 44960,-11584 1725,5182 3735,14511 2510,18551 -6078,2232 -35792,10555 -41199,10291l-4955 3158c4029,685 2964,2182 4301,7386 968,3770 1920,6301 2135,10292l1931 -128 42299 -11447 10166 58605c-5059,3707 -11773,7139 -17040,10309 -5316,3199 -11759,8254 -17684,9273l-442 1398 4775 19258c12676,-5497 36541,-22473 46035,-26170 -1002,-10578 -21877,-129476 -23841,-133656l-60566 15801 4560 18795z"/>
   <path class="fil3" d="M245838 152399l23296 6833 -8539 23450 -23316 824 -257 -77 -4671 19517 43855 118 20164 -56235c-5064,-3445 -27471,-7161 -34884,-10128 -2892,-1157 -1703,-747 -2479,-1203 9506,-4481 31369,-4569 43166,-7340 3368,-4323 5736,-12342 7240,-18509 -991,-607 -386,-412 -2481,-1259l-47015 -12399 -14079 56408z"/>
   <path class="fil4" d="M259724 94883l193 1108 47015 12399c2095,847 1490,652 2481,1259 -1504,6167 -3872,14186 -7240,18509 -11797,2771 -33660,2859 -43166,7340 776,456 -413,46 2479,1203 7413,2967 29820,6683 34884,10128l-20164 56235 -43855 -118 -1035 -83 -4634 19385 53098 -328 46387 -127903 -61167 -16029c-1100,5168 -2157,13281 -5276,16895z"/>
   <path class="fil5" d="M245029 152167l809 232 14079 -56408 -193 -1108 -51117 -13023 -2579 18150 46010 13278c-6112,991 -48277,5323 -48768,8523 -1,9 -3607,8180 -3370,18183l45129 12173z"/>
   <path class="fil6" d="M106066 155098l0 -1851c-3265,-3967 -5422,-12748 -4376,-17771l-1931 128 -23480 6342c-3404,-4061 -6032,-12744 -7093,-18725 7236,-1315 17537,-5650 24137,-5295l4955 -3158 -3547 344c-769,-3160 -1646,-6367 -2414,-9187 -1273,-4677 -1953,-4339 -310,-8415l-2055 132 -46438 12590 19881 55102c11164,-1887 34413,-10705 42671,-10236z"/>
   <path class="fil3" d="M101690 135476c-1046,5023 1111,13804 4376,17771 6685,795 14569,-3654 21910,-4600 2688,5641 4363,18165 4541,25007l-17478 10028c-1579,5023 -461,5644 1080,10888 925,3147 1055,6291 3312,7646 5925,-1019 12368,-6074 17684,-9273 5267,-3170 11981,-6602 17040,-10309l-10166 -58605 -42299 11447z"/>
   <polygon class="fil5" points="231316,202863 232351,202946 237022,183429 213524,172433 216077,156432 197287,151794 192974,181598 "/>
   <path class="fil6" d="M118989 203614l442 -1398c-2257,-1355 -2387,-4499 -3312,-7646 -1541,-5244 -2659,-5865 -1080,-10888l-1707 455 -22438 1 -5714 -14362 -17695 5057c356,4047 8091,25478 10544,28552l40960 229z"/>
   <path class="fil3" d="M92007 97510c-1643,4076 -963,3738 310,8415 768,2820 1645,6027 2414,9187l3547 -344c5407,264 35121,-8059 41199,-10291 1225,-4040 -785,-13369 -2510,-18551 -4586,17 -40708,9581 -44960,11584z"/>
   <path class="fil7" d="M90889 28732c-11999,-6349 -2278,-8416 -19106,-4495 2253,9669 5643,19674 7867,29220 3372,-786 6402,-1939 10115,-2248 -965,-4142 -2345,-7954 -3372,-12362 5861,1564 3131,4054 8991,5619 847,-3635 1910,-4930 2248,-8991 5439,3986 1255,11239 5619,11239 4074,0 6273,-944 8991,-2248l-7867 -29220c-3195,1533 -7453,1310 -9814,3672 -2362,2361 -2139,6619 -3672,9814z"/>
   <path class="fil8" d="M260591 39971c3758,83 16577,3282 19105,4495 -1673,3161 1243,4318 -9208,1390 -4636,-1299 -6569,-2514 -12145,-2514l-1294 6706c6928,3280 21360,4590 28266,7904 1557,-3243 4392,-13323 4496,-17981 -7038,-586 -12068,-3910 -19106,-4496 435,-4976 -743,-2706 2423,-2608l17807 4856c1027,-2140 1998,-6000 2247,-8991 -5161,-1202 -8707,-2464 -14155,-3826 -4007,-1002 -11084,-2670 -13941,-4041 -1320,2752 -4495,14925 -4495,19106z"/>
   <path class="fil8" d="M290935 47838c6799,565 12984,3986 19105,4495l0 3372c-5813,-130 -14677,-3202 -20229,-4496 -770,3307 -1124,3430 -1124,7867 9391,782 18705,5962 28096,6743 1510,-3148 3544,-12774 4496,-16858 -6735,-1568 -13230,-3988 -20230,-5619l0 -2248c7495,167 14081,3891 21353,4496 720,-3090 1528,-5901 2248,-8991 -5566,-124 -9926,-2149 -14604,-3378 -4192,-1101 -10173,-3266 -14616,-3365 -474,5692 -3178,12326 -4495,17982z"/>
   <path class="fil8" d="M27953 35475c81,3649 1073,7667 2248,10115 -2678,624 -5652,1185 -7867,2248 -1027,-2140 -1999,-6000 -2248,-8991 -3649,81 -7667,1073 -10115,2247 203,9107 5946,19638 6743,29221 3373,-786 6403,-1939 10115,-2248 -81,-3649 -1073,-7667 -2248,-10115 2678,-624 5652,-1184 7868,-2247 1325,2762 2155,4866 2247,8990 4389,0 8350,-861 11239,-2247 -1480,-3085 -7528,-25138 -7867,-29220 -4178,973 -5046,2134 -10115,2247z"/>
   <polygon class="fil4" points="237279,183506 260595,182682 269134,159232 245838,152399 245029,152167 "/>
   <path class="fil8" d="M226875 42218c4512,1051 8899,2184 13352,3507 3684,1094 10104,3133 14744,3236 364,-4366 1014,-2928 1124,-7867 -6799,-565 -12984,-3986 -19105,-4495 913,-1904 3151,-9714 3371,-12362 5068,2431 14243,3286 19106,5619 1174,-2447 2166,-6466 2248,-10115 -6413,-143 -21716,-6212 -28097,-6743 -1485,6375 -6743,23882 -6743,29220z"/>
   <path class="fil2" d="M106066 153247l0 1851 7266 29039 1707 -455 17478 -10028c-178,-6842 -1853,-19366 -4541,-25007 -7341,946 -15225,5395 -21910,4600z"/>
   <path class="fil0" d="M99759 135604c-215,-3991 -1167,-6522 -2135,-10292 -1337,-5204 -272,-6701 -4301,-7386 -6600,-355 -16901,3980 -24137,5295 1061,5981 3689,14664 7093,18725l23480 -6342z"/>
   <path class="fil8" d="M41439 32104c309,3712 1463,6742 2248,10114 2991,-249 6851,-1221 8991,-2247 566,6799 3986,12984 4495,19105 5069,-113 5937,-1274 10115,-2248 -566,-6799 -3986,-12984 -4495,-19105 2215,-1063 5188,-1624 7866,-2248 -309,-3712 -1462,-6742 -2247,-10115l-26973 6744z"/>
   <path class="fil8" d="M108870 14122c340,4083 6387,26135 7867,29220l22477 -5619c0,-5649 -1010,-5032 -1124,-10115 -5858,131 -9716,2232 -14610,3372 -111,-5027 -3292,-13942 -4495,-19106 -4795,400 -5320,1849 -10115,2248z"/>
  </g>
 </g>
</svg>
