<?xml version="1.0" encoding="UTF-8"?>
<!DOCTYPE svg PUBLIC "-//W3C//DTD SVG 1.1//EN" "http://www.w3.org/Graphics/SVG/1.1/DTD/svg11.dtd">
<!-- Creator: CorelDRAW 2020 (64 Bit) -->
<svg xmlns="http://www.w3.org/2000/svg" xml:space="preserve" width="3508px" height="2480px" version="1.1" style="shape-rendering:geometricPrecision; text-rendering:geometricPrecision; image-rendering:optimizeQuality; fill-rule:evenodd; clip-rule:evenodd"
viewBox="0 0 350800 248040"
 xmlns:xlink="http://www.w3.org/1999/xlink"
 xmlns:xodm="http://www.corel.com/coreldraw/odm/2003">
 <defs>
  <style type="text/css">
   <![CDATA[
    .str0 {stroke:#D6BF01;stroke-width:236;stroke-miterlimit:22.9256}
    .fil0 {fill:#D6BF01}
    .fil4 {fill:#EEEEEE}
    .fil2 {fill:#FEFEFE}
    .fil1 {fill:#FFDE00}
    .fil3 {fill:#FFF07C}
   ]]>
  </style>
 </defs>
 <g id="Camada_x0020_1">
  <metadata id="CorelCorpID_0Corel-Layer"/>
  <g id="_1136681840">
   <path class="fil0 str0" d="M184728 244121c29546,-8172 59092,-16343 88638,-24514 5715,-72064 11431,-144128 17147,-216191 -71072,0 -142145,0 -213217,0 7207,72561 14414,145121 21620,217682 28604,7674 57208,15348 85812,23023z"/>
   <path class="fil1" d="M194693 126873c-691,-452 -475,-6 -447,-2443 123,-10678 -327,-76683 124,-78678 2240,-512 53885,-40 63831,-139 1347,-13 1208,-101 1771,265l-2420 27071 -35801 129 2 26407 33353 83 -7316 82732c-1476,681 -4543,1347 -6392,1868l-20114 5575c-4880,1366 -23490,6768 -26901,7364l-6 -28118c70,-40 161,-161 192,-107l27627 -7722 3085 -34256 -30588 -31zm-9307 -104826c-613,1217 -261,24249 -261,25346l0 127890c0,17005 291,34265 -12,51238 2573,-357 6309,-1703 8905,-2399 2953,-792 5697,-1564 8666,-2390l43752 -12118c571,-160 8371,-2131 8762,-2635 425,-548 3801,-41675 4228,-46039 1767,-18091 12489,-137906 12170,-138840l-86210 -53z"/>
   <path class="fil2" d="M194693 126873l30588 31 -3085 34256 -27627 7722c-31,-54 -122,67 -192,107l6 28118c3411,-596 22021,-5998 26901,-7364l20114 -5575c1849,-521 4916,-1187 6392,-1868l7316 -82732 -33353 -83 -2 -26407 35801 -129 2420 -27071 -65498 14c347,9547 -457,78928 219,80981z"/>
   <path class="fil2" d="M140972 160381l-28261 -7328c285,3851 1878,26481 2666,28003l52818 14653 60 -150552 -27293 -1 10 115225z"/>
   <path class="fil3" d="M194693 126873c-676,-2053 128,-71434 -219,-80981l65498 -14c-563,-366 -424,-278 -1771,-265 -9946,99 -61591,-373 -63831,139 -451,1995 -1,68000 -124,78678 -28,2437 -244,1991 447,2443z"/>
  </g>
  <path class="fil2" d="M132740 170621l2625 -98 108 -840 -129 -2646c-878,-307 -1573,-215 -2502,-193l-102 3777z"/>
  <path class="fil4" d="M132842 166844c929,-22 1624,-114 2502,193l-325 -3919 -2165 5 -12 3721z"/>
 </g>
</svg>
