<?xml version="1.0" encoding="UTF-8"?>
<!DOCTYPE svg PUBLIC "-//W3C//DTD SVG 1.1//EN" "http://www.w3.org/Graphics/SVG/1.1/DTD/svg11.dtd">
<!-- Creator: CorelDRAW 2020 (64 Bit) -->
<svg xmlns="http://www.w3.org/2000/svg" xml:space="preserve" width="3508px" height="2480px" version="1.1" style="shape-rendering:geometricPrecision; text-rendering:geometricPrecision; image-rendering:optimizeQuality; fill-rule:evenodd; clip-rule:evenodd"
viewBox="0 0 350800 248040"
 xmlns:xlink="http://www.w3.org/1999/xlink"
 xmlns:xodm="http://www.corel.com/coreldraw/odm/2003">
 <defs>
  <style type="text/css">
   <![CDATA[
    .fil2 {fill:#5D86A0}
    .fil0 {fill:#5D87A0}
    .fil1 {fill:#F7971C}
   ]]>
  </style>
 </defs>
 <g id="Camada_x0020_1">
  <metadata id="CorelCorpID_0Corel-Layer"/>
  <g id="_1118623408">
   <path class="fil0" d="M3737 218386l11988 0c0,-1556 213,-2265 205,-3860l201 -11989c-4,-1595 209,-2481 210,-3854 2,-1256 -96,-2843 4,-4060l607 -11787c8,-660 -44,-1388 -9,-2041 48,-892 182,-849 211,-1821 20,-668 -33,-1377 -13,-2045 28,-973 163,-929 210,-1821 35,-654 -43,-1370 10,-2022 64,-773 192,-847 200,-1832 23,-2633 266,-5074 399,-7729 44,-899 184,-843 207,-1825 50,-2108 403,-3805 403,-5896l19912 62582 10362 0 17502 -55037c269,-802 2054,-7103 2614,-7748 0,2951 750,7962 1000,11191 106,1356 141,2597 337,3930 367,2508 209,5058 547,7580 302,2248 229,4073 362,5734 63,795 202,990 198,2037 -14,3721 827,11921 812,15646 -12,2866 212,5016 195,7932 -9,1549 216,2258 208,3857l-2 4878 13410 0 -195 -7730c-14,-1128 -205,-1293 -219,-2422 -43,-3539 -292,-6681 -392,-10174l-383 -4899c-179,-1603 -156,-3450 -233,-5050l-4673 -48765 -15239 0c-823,0 -1283,2326 -1549,3125 -438,1314 -793,2342 -1222,3654 -849,2602 -1534,4814 -2386,7368l-13256 39977c-328,981 -1011,2805 -1093,3784 -590,-432 -1074,-2514 -1346,-3327 -432,-1296 -836,-2350 -1210,-3667 -746,-2633 -1547,-4806 -2397,-7355l-13815 -42062c-217,-687 -248,-1497 -941,-1497l-16052 0 -3424 33556 -1860 29837c-45,847 20,1793 9,2651 -13,1128 -205,1293 -219,2422 -45,3673 -195,6824 -195,10574z"/>
   <path class="fil1" d="M238823 209648c-11981,0 -16470,-8347 -18024,-18955 -1691,-11541 -1930,-32906 7658,-39769 5434,-3888 14292,-3777 19512,2 5796,4197 7367,12259 8162,19268 82,719 122,1918 252,2795 280,1886 -74,4059 180,5930 639,4706 -1013,16214 -3243,20844 -2877,5974 -7033,9885 -14497,9885zm-32306 -31696c0,11280 602,22135 7026,31375 6931,9968 22233,12045 33090,9130 1317,-354 1197,-179 3377,1136l13236 7693c761,455 2647,1690 3414,1868 139,-596 839,-1707 1180,-2274l3900 -6666c-1176,-622 -2342,-1064 -3590,-1693l-10836 -5418c707,-1058 6363,-4668 9627,-14552 2104,-6372 2234,-8807 2940,-15143l233 -5863c0,-9692 -1570,-20625 -7028,-28529 -3847,-5570 -10009,-8952 -16627,-10194 -4520,-848 -11635,-711 -16091,400 -17466,4353 -23851,21926 -23851,38730z"/>
   <path class="fil2" d="M205704 13980c0,5425 3381,8762 6096,12394 3389,4537 4649,5417 6321,11154 1319,4525 3304,9823 5261,14042 874,1886 2827,5386 4212,6759 3084,3055 1582,2032 420,7017 -377,1620 -729,3092 -1203,4689 -2973,10008 -1484,25406 5258,32990 4476,5036 10381,4453 11609,-2103 300,-1600 446,-3115 690,-4796 104,-713 320,-1588 465,-2380 196,-1079 -23,-1622 696,-2149l4061 8334c1621,2423 3608,4702 5640,6754 2045,2066 4376,3928 6672,5722 2924,2285 3198,3704 6790,5605 -281,-1051 -2687,-2457 -3830,-3891l-3514 -4208c-2247,-2995 -4192,-5952 -6182,-9260 -2020,-3359 -3634,-6419 -5440,-10002 -1165,-2313 -2694,-5614 -3459,-8122 -425,-1390 -252,-1779 -1348,-2513 -460,688 -899,1337 -1474,1979 -3170,3537 -4404,7623 -4991,12483 -254,2094 -646,4316 -646,6466 -4803,0 -6925,-10096 -7549,-13786 -935,-5528 -838,-12108 917,-17431 274,-831 477,-1497 768,-2280 904,-2431 2003,-4941 2003,-7750 0,-2056 -2972,-3505 -5273,-7528 -555,-971 -1068,-1824 -1569,-2901 -898,-1931 -1632,-4127 -2329,-6205 -343,-1025 -653,-2169 -1014,-3252 -364,-1089 -720,-2162 -1117,-3354 -2533,-7612 -5422,-10164 -9774,-16030 -1094,-1476 -4200,-5831 -1943,-7929 2067,-1921 6129,62 7978,878 3066,1353 6378,2731 8977,4839 4544,3686 2401,2172 7423,2940 1955,300 4342,161 6398,511 1106,188 1697,424 2684,769 2379,833 5109,1905 7227,3136 4372,2541 8651,5236 12608,8320 379,296 490,428 874,751 448,376 558,400 1004,825 682,650 1151,934 1828,1626 1885,1929 3335,2932 5293,5273l3243 3665c3958,4442 8519,11503 10834,17003l5233 12038c421,835 801,1535 1124,2331 662,1637 1432,3045 2146,4762 1169,2815 2455,5599 3967,8224l2040 3243c621,883 684,1138 1708,1745 2234,1325 4996,1959 7595,2768 757,236 1705,656 2508,947 1667,604 3638,1240 5049,2062 2844,1656 5595,3632 8252,5565l4140 2768c716,424 1321,913 1995,1459 1038,839 1028,771 1671,1986 -5263,0 -9984,156 -14792,1462 -1369,373 -2731,959 -4078,1408 -3300,1100 -4096,796 -2734,3699 386,823 432,1187 916,1928 808,1238 1396,2027 2339,3147 3004,3574 8536,6919 12726,9016 3177,1590 5827,2732 8875,4738 599,395 1066,747 1654,1191 1069,808 2134,1459 3177,2308 249,203 501,369 683,537 773,716 1293,1596 2410,1857 -251,-1078 -1216,-3294 -2113,-3983 -1286,-989 -2099,-1942 -3106,-3193 -4915,-6101 -8694,-8330 -15422,-12415 -2060,-1250 -3631,-2663 -4758,-4792 3116,-69 6936,-1879 10584,-2217 908,-84 10141,-1264 10141,-2659 0,-341 -2712,-3646 -3130,-4184 -1610,-2073 -3752,-3564 -5763,-5210 -4755,-3890 -9712,-7574 -15283,-10318 -1619,-798 -3464,-1428 -5085,-2229 -5391,-2664 -4789,-1021 -7582,-7048 -432,-932 -790,-1507 -1179,-2478l-3631 -7342c-7994,-15933 -5676,-17585 -18222,-33183 -2147,-2669 -4512,-5288 -7021,-7609l-8977 -7481c-3708,-2780 -8112,-5746 -12173,-7943 -3368,-1823 -7302,-2760 -11085,-3544 -3795,-788 -7011,355 -9462,-1510 -1081,-823 -1843,-1766 -3016,-2471 -462,-277 -724,-426 -1147,-680 -719,-433 -1511,-912 -2314,-1344 -3805,-2049 -11338,-5294 -16127,-3054 -2364,1106 -4328,3736 -4328,6644z"/>
   <path class="fil1" d="M152469 158446c0,4080 -61,6299 1692,10093 788,1704 1602,2665 2716,3989 3071,3654 7568,5950 11847,8268l5572 3165c5154,3076 12918,6028 12918,14512 0,3762 -2277,6875 -4524,8480 -7800,5573 -20438,2112 -27783,-1774l-3455 6907c810,429 1311,843 2119,1338 838,513 1509,885 2352,1305 6905,3433 10873,4673 19303,4673 5340,0 9939,-1224 14226,-3452 1309,-680 2351,-1464 3542,-2351 4345,-3238 8037,-9692 8037,-15532 0,-6403 -438,-9389 -4409,-14081 -3051,-3605 -7797,-6101 -12117,-8405l-8605 -4806c-5089,-2826 -10427,-6255 -10427,-12939 0,-1747 457,-2963 1129,-4154 809,-1432 1360,-1929 2473,-3013 5381,-5234 19168,-2067 24438,462l3048 -6908c-10242,-6859 -27493,-8658 -36823,-453 -2575,2265 -3218,2986 -4998,5974 -1167,1960 -2271,5606 -2271,8702z"/>
   <path class="fil0" d="M110207 218792c0,3586 -1830,6024 -4111,8284 -3507,3476 -8561,3438 -13352,3083 -640,-48 -733,-176 -1434,-192 0,7912 -583,6974 1592,7755 620,223 1200,420 1993,648 17655,5087 29859,-17459 35138,-30026 4129,-9829 8573,-25015 10671,-35453 416,-2073 819,-4228 1324,-6397 509,-2185 809,-4323 1298,-6423l-11396 -18c-1815,-19 -1170,-490 -1953,4956 -1455,10113 -3632,20456 -6431,30143 -1065,3686 -2765,9250 -4162,12905 -197,515 -138,431 -440,779 0,-2679 -412,-4581 -864,-6858 -1011,-5091 -5420,-18785 -7035,-24052 -994,-3243 -4899,-15226 -5512,-17855l-13004 0c79,943 741,2731 1042,3632 397,1188 846,2412 1194,3683l12776 39645c891,2806 2666,8984 2666,11761z"/>
   <path class="fil1" d="M281289 139956l0 78430 37793 0 0 -9753 -24992 0 0 -69287 -12191 0c-468,0 -610,142 -610,610z"/>
   <path class="fil1" d="M334931 218386l2031 0 0 -6909c29,41 65,59 75,129 11,69 60,101 75,128l2492 6652 1625 0c259,-1110 814,-2425 1219,-3455 294,-743 939,-2897 1423,-3454l0 6909 2032 0 0 -9753c-3978,0 -2706,-774 -4150,2962 -289,749 -1075,2639 -1133,3336 -586,-429 -537,-699 -815,-1420 -413,-1073 -1763,-4119 -1826,-4878l-3048 0 0 9753z"/>
   <path class="fil0" d="M233541 30641l1473 1981c389,431 467,588 823,1006 2420,2847 1497,2551 3190,5750 5363,-3591 -155,-9143 -1626,-9143 -1984,0 -1901,-50 -3860,406z"/>
   <path class="fil1" d="M324975 209852c0,885 861,609 2844,609l0 7925 2235 0 0 -7925c3260,0 2845,371 2845,-1828l-7924 0 0 1219z"/>
  </g>
 </g>
</svg>
