<?xml version="1.0" encoding="UTF-8"?>
<!DOCTYPE svg PUBLIC "-//W3C//DTD SVG 1.1//EN" "http://www.w3.org/Graphics/SVG/1.1/DTD/svg11.dtd">
<!-- Creator: CorelDRAW 2020 (64 Bit) -->
<svg xmlns="http://www.w3.org/2000/svg" xml:space="preserve" width="297mm" height="210mm" version="1.1" style="shape-rendering:geometricPrecision; text-rendering:geometricPrecision; image-rendering:optimizeQuality; fill-rule:evenodd; clip-rule:evenodd"
viewBox="0 0 29700 21000"
 xmlns:xlink="http://www.w3.org/1999/xlink"
 xmlns:xodm="http://www.corel.com/coreldraw/odm/2003">
 <defs>
  <style type="text/css">
   <![CDATA[
    .str0 {stroke:#4E5A62;stroke-width:20;stroke-miterlimit:22.9256}
    .fil0 {fill:#4E5A62}
   ]]>
  </style>
 </defs>
 <g id="Camada_x0020_1">
  <metadata id="CorelCorpID_0Corel-Layer"/>
 </g>
 <g id="Camada_x0020_1_0">
  <metadata id="CorelCorpID_1Corel-Layer"/>
  <g id="_957893440">
   <path id="_5f17317e6d5ee768d315413e_mancha_x0020_28129.svg" class="fil0 str0" d="M13566.93 6250.11c-184.2,-70.81 -398.52,-180.32 -579.79,-43.38 185.74,59.08 400.48,205.95 579.79,43.38zm6944.15 7313.52c-161.68,70.04 -331.82,125.44 -477.21,235.2 169.69,2.36 328.26,-69.52 490.58,-116.3 -3.55,-29.28 -9.8,-89.11 -13.37,-118.9zm-7560.52 -8019.66c-48.85,-74.23 -188.89,2.35 -125.78,93.29 47.94,82.59 184.2,-1.82 125.78,-93.29zm912.06 220.31c-45.72,-102.97 -157.88,9.94 -102.14,102.96 45.94,98.01 161.24,-8.35 102.14,-102.96zm-184.19 -319.37c-81.86,-85.2 -205.18,-108.2 -289.9,-13.84 95.89,17.25 193.11,22.99 289.9,13.84zm-2228.22 767.58c68.71,41.03 134.7,-101.14 41.5,-116.3 -69.13,-39.73 -135.15,101.4 -41.5,116.3zm244.41 -399.86c159.22,-6.8 -72.69,-163.35 0,0l0 0zm2585.9 -422.34c-79.62,-100.87 -207.61,-107.41 -289.9,-8.36 95.67,26.39 193.56,27.96 289.9,8.36zm-2955.19 -89.64c-36.11,-54.88 -132.46,4.19 -88.73,60.89 36.77,54.36 133.56,-2.61 88.73,-60.89zm925.9 836.57c-155.66,-21.69 -340.07,-108.2 -468.3,23.26 152.55,31.62 328.93,64.55 468.3,-23.26zm535.19 93.82c-82.51,-128.06 -223.44,-52.79 -334.48,-56.71 109.27,32.14 220.77,62.2 334.48,56.71zm3679.47 -410.58c179.07,18.04 360.16,1.84 535.22,-44.42 -4.03,-45.99 -11.84,-137.73 -15.85,-183.46 -156.75,2.35 -313.54,-5.23 -468.52,19.6 112.18,46 232.6,47.82 347.89,81.8 -132.91,44.68 -277.86,43.64 -398.74,126.48zm924.11 -186.85c-68.9,-27.96 -90.32,-2.88 -64.21,74.74 68.67,27.7 90.08,2.61 64.21,-74.74zm-3823.07 588.02c180.63,157.34 421.23,110.81 629.95,88.08 183.09,38.94 368.42,59.85 553.03,16.47 111.08,-31.89 255.12,25.09 333.41,-101.67 -252.9,-52.53 -510.45,-21.7 -765.12,-43.12 -218.54,-8.37 -434.19,-59.85 -652.72,-66.39 -24.75,26.92 -74.03,79.98 -98.55,106.63zm6043.24 1069.69c-41.71,-77.09 -88.1,-149.49 -126.45,-228.94 -6.67,-99.31 4.46,-224.49 -101.91,-251.15 -200.23,-45.73 -403.61,-78.15 -604.32,-121 113.73,107.16 251.77,174.05 353.69,300.29 -164.57,-19.08 -309.08,-157.08 -479.89,-108.46 243.95,299.76 630.62,330.07 958.88,409.26zm-2417.06 -1662.16c-72.28,-28.23 -95.69,0 -70.92,83.89 70.92,27.19 94.3,-0.52 70.92,-83.89zm-2467.04 -611.55c59.77,-33.19 59.99,-68.22 1.33,-104.53 -60.2,34.22 -60.64,68.99 -1.33,104.53zm1762.13 592.48c-97.25,-16.21 -194.69,-8.9 -289.89,14.37 83.61,103.23 206.71,68.99 289.89,-14.37zm-593.63 710.59c220.32,-5.74 439.76,41.82 660.3,26.92 -59.77,-47.82 -107.26,-134.33 -179.95,-146.61 -370.85,-23.26 -742.16,-14.12 -1113.21,-33.45 -22.51,27.17 -67.12,80.75 -89.21,107.14 235.51,89.12 481.25,27.71 722.07,46zm278.99 -699.88c-163.93,10.98 -329.59,13.33 -488.16,61.68 162.57,21.69 326.93,31.37 490.59,38.42 -0.65,-24.83 -1.99,-75 -2.43,-100.1zm-6694.87 425.2c-70.92,-25.86 -95.66,2.62 -74.25,85.73 70.91,26.65 95.66,-2.09 74.25,-85.73zm-1362.52 8510.47c141.6,81.27 3.34,-186.6 0,0l0 0zm1615.19 176.67c51.74,50.7 81.83,37.39 89.18,-39.46 -51.73,-50.18 -81.37,-36.84 -89.18,39.46zm-1484.73 -102.71c48.17,56.71 161.23,32.93 169.02,-53.31 -9.13,-132.77 -225.23,-64.55 -169.02,53.31zm-935.69 -3.38c50.82,44.67 166.8,55.4 190.43,-27.98 -20.06,-97.73 -251.55,-92.77 -190.43,27.98zm-411.67 -15.97c94.78,30.58 191.78,43.92 289.89,38.95 -82.72,-85.98 -194,-115.5 -289.89,-38.95zm8496.24 164.39c13.61,15.96 40.58,48.89 54.19,65.09 190.22,38.41 -14.93,-248.8 -54.19,-65.09zm4192.35 -377.1c174.17,7.05 356.35,-5.24 512.9,-91.48 -172.14,-19.86 -371.74,-26.92 -512.9,91.48zm30.78 -619.93c-100.58,-129.35 -280.54,-257.16 -224.56,-457.1 -16.28,-209.07 -167.24,-370.58 -233.47,-562.66 90.75,-184 96.77,-402.49 28.77,-598.74 99.01,-34.24 173.71,-123.63 270.95,-159.16 191.55,-6.81 368.16,147.65 563.5,80.22 -93,-73.44 -197.12,-127.54 -285.66,-208.55 -116.19,-114.47 -276.51,-122.56 -416.55,-175.1 36.11,-61.43 72.69,-123.61 109.49,-185.82 -90.08,-75.26 -176.61,-156.28 -244.86,-258.21 89.66,-5.73 179.07,-2.87 269.16,-7.57 119.08,-62.71 223.22,-169.35 277.42,-308.38 -178.19,-90.7 -375.32,-107.69 -555.5,-185.83 -12.27,-25.61 -37.02,-76.31 -49.5,-101.41 229,-21.68 494.15,147.13 695.3,-36.59 21.18,-77.36 8.93,-160.2 -31.67,-226.33 -113.27,-200.69 -142.49,-451.08 -88.98,-680.54 -78.5,-72.38 -155.86,-147.66 -227.44,-228.67 71.13,15.43 142.92,31.88 214.51,46.79 57.32,-144.78 119.77,-286.7 188,-425.21 -99.47,-72.39 -213.2,-102.19 -328.03,-122.85 -38.59,-356.21 -169.71,-678.18 -285.21,-1008 147.84,86.78 302.83,161.79 468.95,186.85 -76.26,-128.83 -184.43,-232.59 -197.8,-398.54 -221.65,-61.66 -449.13,-88.87 -662.74,-182.95 7.36,-75.78 15.39,-151.58 23.2,-228.15 -159.67,-173.28 -370.63,-246.19 -581.15,-290.6 -231.01,-42.87 -451.12,-152.64 -687.94,-155.25 -113.96,3.93 -217.2,-48.35 -321.57,-92.26 -650.48,-49.65 -1301.42,-126.23 -1952.77,-176.67 -329.39,-36.07 -659.88,-25.09 -987.91,-75.27 -305.51,35.28 -614.37,-25.61 -900.24,-153.93 -192.89,122.58 -423.24,119.17 -637.11,97.48 -319.56,-66.12 -643.99,42.86 -963.12,-22.21 -206.28,-35.29 -417.91,4.7 -619.7,-69.52 -378.21,35.27 -759.56,-10.19 -1137.76,44.95 -115.72,6.8 -229.46,-25.09 -345.2,-25.09 -247.3,-5.75 -498.62,114.47 -739.01,-0.52 -106.39,238.35 -353.23,220.57 -548.12,175.62 -296.15,32.41 -594.08,16.99 -888.87,70.05 -531.63,18.29 -1061.92,73.7 -1588.2,158.11 -302.83,-23.52 -603.87,18.82 -899.13,94.61 -277.86,74.23 -571.77,18.29 -839.35,142.42 -300.85,64.3 -605.46,109.5 -903.38,188.7 -21.62,23.01 -64.67,67.95 -86.54,90.16 563.31,-90.16 1123.71,-248.01 1695.92,-235.46 147.4,-31.89 287.89,31.36 429.48,68.48 -0.44,-42.1 -1.55,-127.03 -2,-169.37 75.38,18.31 149.41,44.97 207.84,105.59 426.83,-12.03 855.18,14.89 1278.44,-65.08 322.69,-81.54 682.59,-172.75 998.83,-20.64 -79.63,43.9 -163.92,76.31 -252.46,83.1 -474.31,56.72 -949.5,96.44 -1425.84,109.51 -205.38,2.87 -389.35,127.54 -592.72,143.75 -623.73,26.66 -1242.55,126.49 -1860.25,223.97 -291.68,27.45 -574.68,120.2 -861.66,180.32 374.42,183.46 781.59,-1.31 1169.83,-4.7 3.57,12.27 10.5,37.63 13.84,50.16 -266.04,-36.57 -499.08,182.95 -765.78,138 -199.81,-58.8 -384.91,81.56 -579.57,106.1 -207.39,22.22 -415.01,51.75 -619.28,98.02 -89.64,9.14 -134.02,107.67 -202.92,159.42 -214.52,112.9 -477.22,37.64 -675.68,204.1 283.42,-2.86 562.84,-70.82 846.27,-85.98 269.16,-15.94 532.29,-145.04 803.25,-86.24 -193.34,139.82 -429.29,124.4 -645.59,175.1 -173.71,39.98 -359.03,7.32 -524.71,88.87 -88.98,39.98 -132.46,145.29 -201.37,214.3 -372.4,78.4 -736.33,204.63 -1114.33,253.77 -12.7,24.82 -39.02,75.79 -51.95,100.86 306.62,0.54 614.81,14.91 919.42,-36.84 199.81,-29.01 401.62,-7.57 589.61,72.92 283.88,-42.08 563.29,-120.22 851.17,-118.66 -330.7,70.04 -668.31,101.92 -997.01,184.52 -19.4,30.3 -57.99,91.46 -77.61,122.03 -67.12,-31.87 -135.13,-62.71 -203.82,-90.15 3.35,50.7 10.04,152.12 13.37,202.55 -204.69,53.05 -416.99,-11.51 -619.7,64.28 -231.92,81.03 -512.01,88.32 -664.3,339.74 -1.58,45.49 -4.03,138 -5.59,184 153.43,11.75 306.18,-5.23 458.94,-13.59 107.93,19.86 206.27,79.71 310.62,115.77 477.68,34.25 939.72,-215.6 1419.61,-159.68 -116.18,129.89 -295.46,91.21 -442.87,130.43 -325.35,66.1 -682.59,75.25 -970.92,271.78 173.71,2.35 338.94,-77.87 513.55,-68.98 -111.71,71.33 -241.28,71.87 -363.04,101.9 -167.24,36.09 -326.47,113.97 -498.17,114.48 -97.91,1.05 -149.85,115.26 -212.08,184.24 173.72,31.38 434.85,-99.83 500.64,168.58 -197.36,111.84 -423.03,106.12 -635.56,145.3 8.48,28.51 26.1,85.99 34.57,114.73 310.19,-15.94 621.28,-128.3 933.92,-50.7 80.05,48.35 144.28,124.41 214.08,190.02 -79.16,39.97 -157.88,79.71 -235.49,122.55 98.57,37.64 200.25,69.51 285.44,141.4 -139.83,65.07 -291.24,86.25 -432.83,144.26 -250.21,117.87 -529.4,99.84 -782.96,206.47 225.01,141.89 485.03,18.8 716.73,123.09 182.4,78.39 362.59,-71.36 542.54,-99.83 453.14,99.83 910.72,-85.46 1364.74,19.34 -392.69,66.63 -794.3,78.14 -1185.45,159.41 -17.39,13.59 -52.62,41.03 -69.79,54.89 217.2,56.45 446.66,64.29 664.09,6.26 259.12,-88.59 531.84,-36.59 797.44,-36.59 -31.65,54.1 -63.34,108.21 -94.99,162.31 -248.88,-15.94 -505.1,-39.47 -748.39,39.46 -10.93,63.23 -8.03,127.79 -10.04,191.56 -350.78,91.48 -713.37,93.05 -1063.03,184.78 -172.6,76.82 -357.03,96.16 -536.53,143.21 20.96,44.95 62.88,134.59 83.62,179.03 330.71,-100.88 676.14,-61.69 1011.52,-129.9 192.45,-21.69 385.78,-64.01 579.12,-34.76 359.7,62.21 720.29,-25.88 1081.32,-18.29 626.18,-103.75 1261.72,-53.04 1891.47,-110.54 116.2,-25.1 216.53,59.84 325.37,91.21 248.18,86.24 505.52,-21.18 757.75,23.25 144.93,35.28 287.44,-117.59 421.9,-8.62 125.1,96.94 288.35,29.01 409.66,130.93 -241.31,3.68 -485.69,-39.46 -724.99,17.25 -229.22,57.48 -463.37,71.34 -697.51,78.14 -538.11,80.23 -1083.35,58.3 -1623.88,99.84 -2.46,41.03 -7.38,123.09 -9.39,164.65 -3.12,-43.91 -8.91,-131.73 -11.79,-175.62 -255.78,59.84 -516.92,27.96 -774.03,52.26 -95.44,48.88 -195.35,122.04 -231.49,241.21 266.04,31.9 533.63,-14.88 800.35,11.51 -83.63,179.02 -279.42,127.01 -424.81,145.32 -308.85,43.89 -619.7,-9.16 -928.34,27.44 -104.38,34.23 -187.99,153.4 -305.74,122.03 -240.39,-17.76 -539.65,-84.94 -718.28,151.08 252.66,155.23 544.13,74.74 811.72,33.71 470.3,12.27 941.71,43.65 1408.03,107.66 -495.09,6.27 -991.7,-45.47 -1479.39,81.55 211.18,196.79 512,89.89 762.2,146.61 381.32,-25.09 758.64,70.83 1139.96,47.83 495.97,-9.15 990.79,73.69 1485.85,26.92 143.4,-14.38 279.43,87.81 421.9,44.94 185.55,-52.51 376,7.32 563.3,-16.99 361.92,-37.12 725.42,12.56 1086.68,-34.74 305.73,75.77 636.2,-13.34 923.89,154.45 165.66,93.02 342.74,-29.28 515.34,-13.58 557.93,19.85 1116.34,-17.78 1674.27,1.8 397.61,41.58 799.66,-27.41 1194.61,63.27 277.85,-44.96 559.26,-54.11 840.48,-43.93 312.63,-2.86 625.72,-23.5 938.82,-11.23 530.26,-30.82 1066.36,22.23 1590.64,-96.43 422.36,-3.92 847.18,-20.63 1267.3,50.18 -11.37,57.51 -21.41,115.25 -30.1,172.74 104.8,-22.2 173.7,-113.93 240.16,-202.26 79.17,90.16 177.74,157.84 292.8,129.87 251.77,18.82 487.69,-100.35 737.91,-101.67 124.2,-8.61 241.73,-60.88 361.46,-96.16 42.14,42.6 83.64,85.98 126.67,127.54 257.11,-353.34 699.33,-202.28 1044.06,-172.24 257.13,-85.97 528.3,-155.49 741.93,-354.11 -72.69,-72.93 -146.51,-144.78 -218.1,-218.76 -116.4,6.53 -258.89,102.99 -352.33,-19.86zm-9861.2 -7024.19c-588.48,2.88 -1177.21,37.38 -1765.25,64.82 -484.13,-1.31 -965.35,82.58 -1449.71,80.22 182.64,-60.63 368.62,-117.59 559.06,-113.16 510.88,14.91 1018.2,-71.86 1527.52,-97.47 208.72,-0.78 417.9,8.36 624.84,-24.57 252.45,48.88 532.98,-65.86 767.36,66.13 -83.19,38.93 -176.62,16.2 -263.82,24.03zm361.49 18.56c-13.39,-13.34 -40.37,-40.24 -53.09,-53.57 192.45,-11.5 388.92,-20.65 579.8,20.9 -171.69,48.61 -351.23,32.67 -526.71,32.67zm8443.13 7688.8c49.97,37.11 181.31,60.11 200.72,-22.22 -52.64,-25.08 -184.42,-62.46 -200.72,22.22zm-7292.03 -8320.21c-89.19,3.92 -178.84,7.32 -267.57,18.81 81.36,39.99 167.67,63.77 254.42,85.73 3.35,-26.14 10.27,-78.4 13.15,-104.54zm-7314.32 731.77c-74.72,13.84 -143.41,46.26 -200.71,101.66 85.85,11.76 161.45,-10.72 200.71,-101.66zm4915.09 -809.39c-47.94,-71.61 -183.75,12.01 -130.9,102.71 50.41,68.99 186.65,-3.93 130.9,-102.71zm-1779.31 263.44c-356.56,29.26 -716.49,59.59 -1063.24,165.17 -16.3,16.2 -49.27,50.17 -65.57,66.9 519.36,-81.28 1043.21,-139.55 1561,-235.2 -129.35,-114.48 -289.02,-5.76 -432.19,3.13zm3375.74 -264.22c-75.13,8.36 -148.95,18.55 -222.97,30.57 66.22,35.8 139.14,54.63 211.61,73.97 3.13,-25.89 8.48,-78.15 11.36,-104.54zm-2653.65 204.89c-6.71,-24.82 -19.41,-75 -26.11,-100.35 -81.61,31.87 -163.24,63.24 -241.51,101.92 89.22,4.96 178.4,1.83 267.62,-1.57zm-2710.32 372.16c-45.52,-77.36 -156.11,20.9 -111.5,102.44 47.93,71.35 160.31,-15.94 111.5,-102.44zm435.73 -54.37c-82.28,10.73 -163.91,23.52 -245.29,38.95 73.12,25.35 148.04,45.99 222.97,65.86 5.38,-26.4 16.75,-78.67 22.32,-104.81zm-1336.42 309.44c57.76,6.53 143.37,14.12 176.83,-52.27 -14.51,-101.67 -280.32,-21.69 -176.83,52.27zm9925.41 7827.83c-239.72,23.27 -493.28,-156.28 -715.14,8.62 -175.94,-0.52 -361.95,-78.41 -526.97,23.26 -239.94,110.83 -545.43,-125.97 -745.92,104.29 541.68,25.88 1085.99,-9.95 1627.89,15.42 420.13,75.76 836.24,-73.97 1257.27,-32.41 113.74,3.4 253.55,38.13 326.24,-90.16 -403.85,-91.48 -816.63,20.64 -1223.37,-29.02z"/>
   <path id="_5f17317e6d5ee768d315413e_mancha_x0020_28129.svg_0" class="fil0 str0" d="M15759.54 6246.71c184.19,-70.83 398.5,-180.33 579.79,-43.39 -185.76,59.07 -400.5,205.94 -579.79,43.39zm-6944.16 7313.5c161.68,70.04 331.81,125.44 477.21,235.22 -169.69,2.34 -328.27,-69.53 -490.59,-116.3 3.56,-29.29 9.81,-89.13 13.38,-118.92zm7560.52 -8019.66c48.85,-74.22 188.88,2.35 125.78,93.29 -47.94,82.6 -184.19,-1.82 -125.78,-93.29zm-912.07 220.32c45.73,-102.97 157.89,9.93 102.14,102.97 -45.93,98 -161.23,-8.36 -102.14,-102.97zm184.2 -319.36c81.86,-85.21 205.18,-108.2 289.89,-13.86 -95.89,17.25 -193.1,23 -289.89,13.86zm2228.21 767.57c-68.71,41.03 -134.68,-101.15 -41.48,-116.31 69.12,-39.71 135.14,101.4 41.48,116.31zm-244.41 -399.86c-159.22,-6.8 72.7,-163.34 0,0l0 0zm-2585.89 -422.33c79.61,-100.88 207.61,-107.43 289.9,-8.37 -95.67,26.39 -193.57,27.96 -289.9,8.37zm2955.18 -89.65c36.12,-54.89 132.46,4.18 88.74,60.89 -36.78,54.37 -133.56,-2.61 -88.74,-60.89zm-925.89 836.57c155.65,-21.69 340.08,-108.2 468.29,23.26 -152.53,31.62 -328.93,64.56 -468.29,-23.26zm-535.2 93.82c82.51,-128.07 223.44,-52.79 334.49,-56.71 -109.28,32.15 -220.77,62.2 -334.49,56.71zm-3679.46 -410.58c-179.08,18.04 -360.16,1.83 -535.21,-44.43 4.02,-45.99 11.82,-137.72 15.83,-183.46 156.77,2.36 313.55,-5.22 468.52,19.61 -112.17,46 -232.58,47.82 -347.87,81.8 132.91,44.69 277.85,43.65 398.73,126.48zm-924.11 -186.85c68.9,-27.97 90.31,-2.88 64.21,74.74 -68.68,27.7 -90.09,2.62 -64.21,-74.74zm3823.08 588.02c-180.65,157.33 -421.24,110.81 -629.95,88.08 -183.1,38.94 -368.42,59.85 -553.04,16.46 -111.08,-31.88 -255.11,25.1 -333.41,-101.66 252.91,-52.53 510.44,-21.7 765.12,-43.12 218.54,-8.37 434.18,-59.86 652.72,-66.38 24.76,26.91 74.03,79.97 98.56,106.62zm-6043.24 1069.69c41.69,-77.1 88.08,-149.49 126.44,-228.94 6.67,-99.3 -4.47,-224.5 101.91,-251.16 200.23,-45.72 403.61,-78.14 604.32,-120.99 -113.74,107.15 -251.77,174.05 -353.68,300.29 164.56,-19.08 309.07,-157.07 479.89,-108.47 -243.97,299.76 -630.63,330.07 -958.88,409.27zm2417.05 -1662.16c72.27,-28.22 95.68,0 70.91,83.9 -70.91,27.18 -94.3,-0.53 -70.91,-83.9zm2467.03 -611.55c-59.76,-33.18 -59.98,-68.21 -1.32,-104.54 60.19,34.24 60.64,69.01 1.32,104.54zm-1762.12 592.48c97.24,-16.21 194.68,-8.89 289.89,14.37 -83.61,103.22 -206.7,69 -289.89,-14.37zm593.62 710.6c-220.31,-5.75 -439.75,41.81 -660.3,26.91 59.77,-47.82 107.26,-134.33 179.95,-146.61 370.86,-23.25 742.16,-14.11 1113.21,-33.44 22.52,27.16 67.13,80.74 89.22,107.13 -235.5,89.13 -481.25,27.71 -722.08,46.01zm-278.97 -699.89c163.91,10.98 329.58,13.32 488.15,61.68 -162.56,21.69 -326.93,31.36 -490.59,38.42 0.65,-24.83 1.99,-75.01 2.44,-100.1zm6694.86 425.21c70.92,-25.87 95.65,2.61 74.24,85.71 -70.9,26.66 -95.66,-2.09 -74.24,-85.71zm1362.51 8510.46c-141.59,81.27 -3.34,-186.6 0,0l0 0zm-1615.19 176.67c-51.72,50.69 -81.82,37.38 -89.17,-39.46 51.73,-50.18 81.37,-36.84 89.17,39.46zm1484.75 -102.71c-48.18,56.71 -161.24,32.94 -169.04,-53.31 9.13,-132.77 225.24,-64.56 169.04,53.31zm935.68 -3.39c-50.83,44.67 -166.8,55.4 -190.42,-27.98 20.05,-97.73 251.54,-92.76 190.42,27.98zm411.66 -15.96c-94.78,30.58 -191.77,43.92 -289.89,38.95 82.73,-85.97 194,-115.5 289.89,-38.95zm-8496.23 164.39c-13.6,15.96 -40.59,48.89 -54.2,65.1 -190.22,38.4 14.94,-248.81 54.2,-65.1zm-4192.36 -377.11c-174.15,7.06 -356.34,-5.23 -512.9,-91.48 172.15,-19.84 371.74,-26.9 512.9,91.48zm-30.78 -619.92c100.58,-129.35 280.54,-257.16 224.57,-457.1 16.29,-209.06 167.25,-370.58 233.46,-562.66 -90.74,-184 -96.76,-402.49 -28.76,-598.75 -99.01,-34.23 -173.72,-123.62 -270.96,-159.14 -191.55,-6.82 -368.16,147.64 -563.5,80.21 93.01,-73.44 197.12,-127.54 285.66,-208.54 116.19,-114.48 276.51,-122.57 416.56,-175.11 -36.12,-61.42 -72.69,-123.61 -109.49,-185.81 90.09,-75.28 176.61,-156.28 244.86,-258.23 -89.66,-5.72 -179.07,-2.86 -269.16,-7.56 -119.09,-62.72 -223.23,-169.36 -277.43,-308.38 178.2,-90.69 375.33,-107.7 555.51,-185.83 12.27,-25.61 37.02,-76.32 49.5,-101.4 -229.01,-21.69 -494.16,147.13 -695.3,-36.61 -21.18,-77.35 -8.93,-160.2 31.66,-226.31 113.28,-200.69 142.51,-451.09 88.99,-680.54 78.49,-72.4 155.85,-147.68 227.44,-228.68 -71.13,15.42 -142.93,31.88 -214.52,46.79 -57.31,-144.78 -119.76,-286.7 -187.98,-425.21 99.45,-72.39 213.18,-102.18 328.03,-122.84 38.57,-356.22 169.71,-678.19 285.2,-1008.02 -147.85,86.78 -302.83,161.8 -468.95,186.87 76.25,-128.84 184.42,-232.59 197.79,-398.55 221.65,-61.67 449.13,-88.86 662.74,-182.95 -7.34,-75.79 -15.39,-151.57 -23.19,-228.16 159.67,-173.27 370.62,-246.18 581.15,-290.6 231.01,-42.86 451.13,-152.63 687.93,-155.24 113.96,3.92 217.2,-48.35 321.58,-92.26 650.49,-49.65 1301.41,-126.23 1952.78,-176.67 329.38,-36.07 659.87,-25.08 987.9,-75.26 305.5,35.27 614.36,-25.62 900.24,-153.94 192.88,122.58 423.23,119.18 637.1,97.49 319.57,-66.13 644.01,42.85 963.12,-22.23 206.28,-35.27 417.92,4.71 619.71,-69.51 378.2,35.28 759.55,-10.19 1137.75,44.95 115.73,6.81 229.46,-25.08 345.21,-25.08 247.3,-5.76 498.62,114.46 739.01,-0.53 106.38,238.34 353.23,220.58 548.11,175.62 296.15,32.42 594.09,16.99 888.88,70.04 531.63,18.3 1061.93,73.7 1588.2,158.12 302.83,-23.52 603.86,18.82 899.14,94.6 277.85,74.23 571.77,18.3 839.34,142.44 300.85,64.29 605.45,109.49 903.39,188.69 21.61,23.01 64.66,67.95 86.52,90.15 -563.31,-90.15 -1123.69,-248 -1695.91,-235.45 -147.4,-31.89 -287.89,31.35 -429.49,68.47 0.45,-42.08 1.56,-127.02 2,-169.35 -75.37,18.29 -149.4,44.95 -207.83,105.57 -426.83,-12.01 -855.19,14.89 -1278.45,-65.07 -322.68,-81.54 -682.59,-172.75 -998.82,-20.64 79.62,43.91 163.91,76.3 252.45,83.1 474.32,56.72 949.51,96.44 1425.84,109.51 205.38,2.86 389.35,127.54 592.72,143.75 623.74,26.66 1242.56,126.48 1860.26,223.97 291.68,27.44 574.68,120.2 861.65,180.33 -374.4,183.45 -781.58,-1.33 -1169.83,-4.71 -3.56,12.27 -10.48,37.64 -13.83,50.17 266.03,-36.58 499.07,182.95 765.78,137.99 199.81,-58.8 384.9,81.55 579.57,106.1 207.38,22.22 415,51.76 619.28,98.02 89.63,9.14 134.01,107.67 202.91,159.42 214.54,112.9 477.22,37.63 675.7,204.1 -283.43,-2.86 -562.86,-70.83 -846.29,-85.97 -269.16,-15.95 -532.29,-145.06 -803.23,-86.25 193.33,139.83 429.27,124.41 645.58,175.1 173.71,39.98 359.02,7.32 524.71,88.87 88.98,39.97 132.46,145.29 201.36,214.3 372.42,78.39 736.35,204.63 1114.33,253.77 12.71,24.82 39.02,75.79 51.96,100.86 -306.62,0.54 -614.81,14.91 -919.43,-36.85 -199.8,-29.01 -401.61,-7.55 -589.6,72.93 -283.88,-42.08 -563.29,-120.23 -851.17,-118.65 330.69,70.04 668.32,101.91 997.01,184.5 19.4,30.32 57.98,91.47 77.6,122.04 67.12,-31.87 135.14,-62.71 203.83,-90.16 -3.36,50.7 -10.04,152.12 -13.38,202.55 204.71,53.06 417,-11.5 619.7,64.29 231.93,81.04 512.01,88.33 664.32,339.74 1.56,45.49 4.01,138 5.57,184 -153.42,11.76 -306.18,-5.24 -458.93,-13.59 -107.93,19.86 -206.27,79.72 -310.63,115.77 -477.67,34.24 -939.72,-215.6 -1419.61,-159.68 116.18,129.89 295.47,91.21 442.87,130.42 325.36,66.1 682.6,75.26 970.94,271.8 -173.71,2.34 -338.95,-77.89 -513.57,-69 111.73,71.34 241.29,71.88 363.04,101.92 167.25,36.08 326.48,113.96 498.19,114.47 97.89,1.05 149.85,115.25 212.06,184.24 -173.71,31.39 -434.85,-99.83 -500.63,168.57 197.35,111.85 423.03,106.13 635.55,145.32 -8.48,28.49 -26.1,85.98 -34.56,114.72 -310.2,-15.94 -621.28,-128.3 -933.93,-50.71 -80.05,48.35 -144.27,124.42 -214.08,190.03 79.16,39.97 157.89,79.7 235.49,122.55 -98.57,37.65 -200.25,69.52 -285.43,141.39 139.82,65.08 291.24,86.26 432.83,144.27 250.21,117.88 529.41,99.83 782.95,206.48 -225.01,141.89 -485.02,18.79 -716.71,123.08 -182.42,78.39 -362.6,-71.36 -542.56,-99.83 -453.13,99.83 -910.72,-85.46 -1364.74,19.34 392.7,66.63 794.31,78.13 1185.46,159.41 17.39,13.59 52.62,41.03 69.8,54.9 -217.22,56.45 -446.68,64.28 -664.1,6.26 -259.12,-88.59 -531.85,-36.6 -797.44,-36.6 31.65,54.11 63.33,108.21 94.98,162.3 248.88,-15.93 505.11,-39.46 748.39,39.47 10.94,63.23 8.03,127.79 10.04,191.57 350.78,91.48 713.37,93.04 1063.03,184.77 172.6,76.82 357.03,96.16 536.53,143.21 -20.95,44.95 -62.87,134.6 -83.61,179.02 -330.71,-100.87 -676.14,-61.69 -1011.52,-129.88 -192.45,-21.69 -385.79,-64.03 -579.13,-34.76 -359.7,62.2 -720.28,-25.88 -1081.31,-18.3 -626.19,-103.75 -1261.72,-53.04 -1891.48,-110.55 -116.2,-25.09 -216.52,59.86 -325.36,91.21 -248.19,86.25 -505.53,-21.16 -757.74,23.26 -144.94,35.28 -287.45,-117.6 -421.91,-8.62 -125.11,96.95 -288.34,29.02 -409.66,130.93 241.3,3.67 485.69,-39.47 724.99,17.26 229.22,57.48 463.37,71.33 697.52,78.14 538.1,80.22 1083.33,58.29 1623.86,99.83 2.47,41.04 7.38,123.09 9.4,164.65 3.11,-43.91 8.9,-131.72 11.79,-175.62 255.79,59.84 516.92,27.96 774.04,52.26 95.44,48.87 195.34,122.05 231.48,241.22 -266.05,31.89 -533.63,-14.89 -800.36,11.51 83.64,179.01 279.42,127 424.82,145.3 308.84,43.9 619.7,-9.15 928.34,27.44 104.37,34.24 187.99,153.4 305.73,122.05 240.39,-17.77 539.65,-84.95 718.28,151.07 -252.65,155.24 -544.12,74.74 -811.72,33.71 -470.29,12.27 -941.71,43.65 -1408.02,107.66 495.08,6.27 991.69,-45.47 1479.39,81.55 -211.19,196.79 -512,89.89 -762.21,146.61 -381.31,-25.08 -758.64,70.83 -1139.96,47.84 -495.96,-9.16 -990.79,73.68 -1485.83,26.91 -143.42,-14.37 -279.45,87.8 -421.91,44.94 -185.55,-52.51 -376,7.33 -563.31,-16.99 -361.92,-37.11 -725.41,12.56 -1086.67,-34.74 -305.73,75.76 -636.21,-13.34 -923.89,154.45 -165.67,93.02 -342.74,-29.28 -515.34,-13.59 -557.93,19.86 -1116.34,-17.77 -1674.28,1.81 -397.6,41.58 -799.65,-27.41 -1194.61,63.27 -277.83,-44.95 -559.26,-54.11 -840.47,-43.93 -312.64,-2.86 -625.72,-23.51 -938.82,-11.23 -530.27,-30.82 -1066.36,22.23 -1590.63,-96.43 -422.36,-3.92 -847.19,-20.64 -1267.3,50.18 11.35,57.51 21.41,115.25 30.08,172.74 -104.79,-22.21 -173.7,-113.93 -240.14,-202.26 -79.18,90.16 -177.75,157.85 -292.81,129.87 -251.77,18.82 -487.7,-100.35 -737.91,-101.66 -124.21,-8.63 -241.73,-60.89 -361.47,-96.17 -42.14,42.6 -83.63,85.99 -126.67,127.54 -257.1,-353.35 -699.32,-202.28 -1044.06,-172.23 -257.12,-85.99 -528.29,-155.51 -741.93,-354.12 72.69,-72.93 146.51,-144.78 218.11,-218.76 116.4,6.54 258.89,102.99 352.32,-19.86zm9861.21 -7024.19c588.48,2.88 1177.2,37.37 1765.24,64.83 484.13,-1.32 965.35,82.57 1449.72,80.22 -182.64,-60.63 -368.62,-117.6 -559.07,-113.16 -510.88,14.89 -1018.19,-71.87 -1527.52,-97.48 -208.72,-0.79 -417.89,8.35 -624.83,-24.57 -252.46,48.87 -532.99,-65.85 -767.37,66.13 83.2,38.93 176.63,16.19 263.83,24.03zm-361.5 18.57c13.39,-13.34 40.37,-40.26 53.1,-53.58 -192.45,-11.5 -388.92,-20.65 -579.79,20.91 171.69,48.6 351.21,32.67 526.69,32.67zm-8443.13 7688.78c-49.95,37.12 -181.3,60.12 -200.71,-22.21 52.63,-25.08 184.41,-62.46 200.71,22.21zm7292.03 -8320.2c89.19,3.92 178.84,7.32 267.58,18.82 -81.37,39.98 -167.68,63.77 -254.43,85.72 -3.33,-26.13 -10.27,-78.39 -13.15,-104.54zm7314.33 731.77c74.72,13.85 143.4,46.26 200.71,101.66 -85.85,11.76 -161.46,-10.71 -200.71,-101.66zm-4915.1 -809.39c47.96,-71.61 183.75,12.02 130.91,102.71 -50.41,68.99 -186.66,-3.93 -130.91,-102.71zm1779.31 263.43c356.56,29.28 716.49,59.6 1063.25,165.18 16.29,16.2 49.27,50.18 65.57,66.89 -519.36,-81.26 -1043.21,-139.55 -1561,-235.2 129.35,-114.47 289.01,-5.75 432.18,3.13zm-3375.74 -264.22c75.13,8.37 148.95,18.56 222.98,30.58 -66.22,35.81 -139.14,54.62 -211.61,73.98 -3.14,-25.89 -8.49,-78.15 -11.37,-104.56zm2653.66 204.9c6.71,-24.83 19.41,-75 26.11,-100.34 81.61,31.87 163.23,63.23 241.5,101.9 -89.21,4.98 -178.39,1.85 -267.61,-1.56zm2710.33 372.16c45.51,-77.36 156.1,20.91 111.48,102.44 -47.93,71.36 -160.31,-15.93 -111.48,-102.44zm-435.74 -54.37c82.28,10.72 163.9,23.53 245.29,38.95 -73.13,25.35 -148.05,45.99 -222.98,65.86 -5.37,-26.4 -16.75,-78.67 -22.31,-104.81zm1336.42 309.45c-57.76,6.52 -143.38,14.1 -176.83,-52.27 14.51,-101.67 280.31,-21.69 176.83,52.27zm-9925.41 7827.83c239.72,23.26 493.28,-156.28 715.15,8.61 175.94,-0.51 361.94,-78.41 526.95,23.26 239.95,110.83 545.44,-125.98 745.93,104.29 -541.68,25.88 -1086,-9.94 -1627.9,15.42 -420.12,75.76 -836.23,-73.97 -1257.26,-32.41 -113.73,3.39 -253.55,38.14 -326.24,-90.17 403.86,-91.48 816.62,20.64 1223.37,-29z"/>
  </g>
  <g id="_957893440_1">
   <path id="_5f17317e6d5ee768d315413e_mancha_x0020_28129.svg_2" class="fil0 str0" d="M13987.83 15289c-184.2,70.81 -398.51,180.31 -579.79,43.37 185.75,-59.07 400.49,-205.94 579.79,-43.37zm6944.16 -7313.53c-161.69,-70.03 -331.82,-125.44 -477.21,-235.2 169.69,-2.35 328.26,69.53 490.58,116.3 -3.56,29.29 -9.81,89.11 -13.37,118.9zm-7560.52 8019.67c-48.86,74.23 -188.89,-2.35 -125.79,-93.3 47.95,-82.58 184.2,1.83 125.79,93.3zm912.06 -220.31c-45.73,102.97 -157.89,-9.94 -102.14,-102.97 45.93,-98 161.23,8.36 102.14,102.97zm-184.19 319.36c-81.87,85.2 -205.19,108.2 -289.9,13.85 95.89,-17.25 193.11,-23 289.9,-13.85zm-2228.23 -767.57c68.72,-41.03 134.7,101.14 41.5,116.3 -69.13,39.72 -135.14,-101.4 -41.5,-116.3zm244.42 399.86c159.22,6.79 -72.7,163.34 0,0l0 0zm2585.89 422.33c-79.61,100.88 -207.61,107.42 -289.9,8.37 95.67,-26.39 193.57,-27.97 289.9,-8.37zm-2955.18 89.65c-36.12,54.88 -132.46,-4.19 -88.74,-60.9 36.78,-54.36 133.56,2.62 88.74,60.9zm925.89 -836.57c-155.65,21.69 -340.07,108.2 -468.29,-23.27 152.54,-31.62 328.93,-64.55 468.29,23.27zm535.2 -93.83c-82.51,128.07 -223.44,52.8 -334.48,56.72 109.27,-32.15 220.76,-62.21 334.48,-56.72zm3679.46 410.59c179.08,-18.05 360.17,-1.85 535.22,44.41 -4.03,46 -11.83,137.74 -15.84,183.47 -156.76,-2.36 -313.54,5.23 -468.52,-19.6 112.17,-46 232.59,-47.82 347.88,-81.8 -132.91,-44.69 -277.86,-43.65 -398.74,-126.48zm924.11 186.85c-68.9,27.96 -90.31,2.87 -64.2,-74.74 68.67,-27.7 90.08,-2.62 64.2,74.74zm-3823.07 -588.02c180.64,-157.34 421.23,-110.81 629.95,-88.08 183.09,-38.94 368.42,-59.85 553.03,-16.47 111.08,31.89 255.12,-25.09 333.41,101.67 -252.9,52.53 -510.44,21.7 -765.12,43.12 -218.53,8.37 -434.18,59.85 -652.72,66.38 -24.75,-26.92 -74.03,-79.97 -98.55,-106.62zm6043.24 -1069.69c-41.7,77.09 -88.09,149.48 -126.45,228.94 -6.66,99.3 4.47,224.48 -101.91,251.15 -200.23,45.73 -403.6,78.15 -604.32,121 113.74,-107.16 251.77,-174.06 353.69,-300.29 -164.57,19.07 -309.07,157.07 -479.89,108.45 243.96,-299.75 630.63,-330.06 958.88,-409.25zm-2417.05 1662.16c-72.28,28.22 -95.69,0 -70.92,-83.9 70.92,-27.18 94.3,0.53 70.92,83.9zm-2467.04 611.55c59.76,33.18 59.98,68.21 1.32,104.53 -60.19,-34.23 -60.64,-69 -1.32,-104.53zm1762.12 -592.48c-97.24,16.2 -194.68,8.89 -289.89,-14.37 83.61,-103.24 206.71,-69 289.89,14.37zm-593.62 -710.6c220.32,5.75 439.75,-41.81 660.3,-26.91 -59.77,47.82 -107.26,134.33 -179.95,146.61 -370.86,23.25 -742.16,14.11 -1113.21,33.44 -22.52,-27.16 -67.12,-80.74 -89.22,-107.13 235.51,-89.13 481.25,-27.71 722.08,-46.01zm278.98 699.88c-163.92,-10.98 -329.59,-13.33 -488.16,-61.68 162.57,-21.68 326.93,-31.36 490.59,-38.41 -0.64,24.83 -1.98,75 -2.43,100.09zm-6694.87 -425.2c-70.92,25.87 -95.65,-2.61 -74.24,-85.72 70.91,-26.66 95.66,2.08 74.24,85.72zm-1362.51 -8510.47c141.59,-81.27 3.34,186.61 0,0l0 0zm1615.19 -176.67c51.73,-50.7 81.82,-37.38 89.18,39.47 -51.74,50.18 -81.38,36.84 -89.18,-39.47zm-1484.74 102.71c48.17,-56.71 161.23,-32.93 169.03,53.31 -9.13,132.77 -225.23,64.56 -169.03,-53.31zm-935.69 3.39c50.83,-44.68 166.8,-55.4 190.43,27.98 -20.05,97.73 -251.54,92.76 -190.43,-27.98zm-411.66 15.96c94.78,-30.58 191.77,-43.92 289.89,-38.95 -82.73,85.99 -194,115.51 -289.89,38.95zm8496.23 -164.39c13.61,-15.95 40.59,-48.88 54.2,-65.08 190.22,-38.42 -14.94,248.8 -54.2,65.08zm4192.36 377.1c174.16,-7.05 356.34,5.24 512.9,91.49 -172.15,19.85 -371.74,26.91 -512.9,-91.49zm30.78 619.93c-100.58,129.36 -280.54,257.16 -224.57,457.11 -16.28,209.06 -167.24,370.57 -233.46,562.65 90.74,184 96.76,402.5 28.77,598.75 99,34.24 173.71,123.63 270.95,159.15 191.55,6.81 368.16,-147.64 563.5,-80.22 -93.01,73.45 -197.12,127.55 -285.66,208.55 -116.19,114.48 -276.51,122.57 -416.55,175.11 36.11,61.42 72.68,123.61 109.48,185.81 -90.08,75.27 -176.61,156.28 -244.85,258.22 89.65,5.72 179.06,2.86 269.16,7.57 119.08,62.71 223.22,169.35 277.42,308.38 -178.2,90.69 -375.32,107.69 -555.51,185.83 -12.27,25.61 -37.02,76.31 -49.5,101.4 229.01,21.69 494.16,-147.13 695.3,36.6 21.18,77.35 8.93,160.2 -31.66,226.32 -113.28,200.69 -142.5,451.09 -88.99,680.54 -78.49,72.39 -155.85,147.67 -227.43,228.68 71.12,-15.43 142.92,-31.88 214.51,-46.8 57.31,144.79 119.76,286.7 187.99,425.22 -99.46,72.38 -213.2,102.18 -328.03,122.84 -38.58,356.22 -169.71,678.18 -285.2,1008.01 147.84,-86.78 302.82,-161.79 468.94,-186.86 -76.25,128.84 -184.42,232.59 -197.79,398.55 -221.65,61.66 -449.13,88.86 -662.74,182.95 7.35,75.78 15.39,151.57 23.19,228.15 -159.67,173.27 -370.62,246.18 -581.15,290.6 -231.01,42.86 -451.12,152.64 -687.93,155.25 -113.96,-3.93 -217.2,48.35 -321.57,92.25 -650.49,49.66 -1301.42,126.23 -1952.78,176.67 -329.38,36.07 -659.88,25.1 -987.91,75.27 -305.5,-35.28 -614.36,25.61 -900.24,153.93 -192.88,-122.57 -423.23,-119.17 -637.1,-97.48 -319.56,66.13 -644,-42.85 -963.12,22.22 -206.28,35.28 -417.92,-4.71 -619.7,69.52 -378.21,-35.28 -759.56,10.19 -1137.76,-44.95 -115.73,-6.81 -229.46,25.08 -345.21,25.08 -247.29,5.76 -498.62,-114.46 -739.01,0.53 -106.38,-238.35 -353.22,-220.58 -548.11,-175.62 -296.15,-32.42 -594.09,-17 -888.88,-70.05 -531.63,-18.29 -1061.92,-73.71 -1588.2,-158.11 -302.82,23.52 -603.86,-18.82 -899.13,-94.61 -277.86,-74.23 -571.77,-18.3 -839.34,-142.43 -300.86,-64.29 -605.46,-109.49 -903.39,-188.69 -21.62,-23.02 -64.67,-67.95 -86.53,-90.17 563.31,90.17 1123.7,248.01 1695.92,235.46 147.39,31.89 287.89,-31.35 429.48,-68.47 -0.45,42.09 -1.56,127.02 -2,169.36 75.38,-18.3 149.41,-44.96 207.84,-105.58 426.82,12.02 855.18,-14.9 1278.44,65.08 322.68,81.53 682.59,172.75 998.82,20.64 -79.62,-43.91 -163.91,-76.31 -252.45,-83.11 -474.32,-56.71 -949.5,-96.44 -1425.84,-109.5 -205.38,-2.87 -389.35,-127.54 -592.72,-143.75 -623.74,-26.66 -1242.56,-126.49 -1860.26,-223.97 -291.68,-27.46 -574.68,-120.2 -861.65,-180.33 374.41,-183.45 781.58,1.32 1169.83,4.71 3.56,-12.28 10.49,-37.64 13.83,-50.17 -266.03,36.58 -499.07,-182.95 -765.78,-137.99 -199.81,58.79 -384.91,-81.56 -579.56,-106.1 -207.39,-22.23 -415.01,-51.76 -619.29,-98.03 -89.63,-9.13 -134.01,-107.66 -202.91,-159.42 -214.53,-112.9 -477.22,-37.63 -675.69,-204.09 283.42,2.86 562.85,70.82 846.28,85.97 269.16,15.95 532.29,145.05 803.24,86.24 -193.34,-139.82 -429.28,-124.4 -645.59,-175.09 -173.71,-39.98 -359.02,-7.32 -524.7,-88.88 -88.99,-39.97 -132.46,-145.29 -201.37,-214.29 -372.41,-78.4 -736.34,-204.63 -1114.33,-253.78 -12.71,-24.81 -39.02,-75.79 -51.96,-100.85 306.62,-0.54 614.81,-14.91 919.43,36.84 199.81,29 401.61,7.56 589.6,-72.92 283.88,42.08 563.29,120.22 851.17,118.65 -330.69,-70.04 -668.31,-101.92 -997.01,-184.51 -19.4,-30.31 -57.98,-91.46 -77.6,-122.04 -67.12,31.87 -135.14,62.71 -203.82,90.16 3.35,-50.7 10.03,-152.12 13.37,-202.55 -204.7,-53.06 -416.99,11.51 -619.7,-64.29 -231.93,-81.03 -512.01,-88.32 -664.31,-339.73 -1.57,-45.5 -4.02,-138 -5.58,-184 153.42,-11.76 306.18,5.23 458.93,13.59 107.93,-19.86 206.27,-79.72 310.63,-115.78 477.67,-34.24 939.72,215.6 1419.61,159.69 -116.18,-129.9 -295.47,-91.21 -442.87,-130.43 -325.36,-66.1 -682.59,-75.25 -970.93,-271.79 173.71,-2.35 338.94,77.87 513.56,68.99 -111.72,-71.34 -241.29,-71.87 -363.04,-101.91 -167.25,-36.09 -326.48,-113.96 -498.18,-114.47 -97.9,-1.05 -149.85,-115.26 -212.07,-184.24 173.72,-31.39 434.85,99.83 500.64,-168.58 -197.36,-111.84 -423.04,-106.12 -635.56,-145.31 8.48,-28.5 26.1,-85.98 34.56,-114.72 310.2,15.93 621.29,128.3 933.93,50.69 80.05,-48.35 144.27,-124.41 214.08,-190.02 -79.16,-39.97 -157.89,-79.7 -235.49,-122.55 98.57,-37.64 200.25,-69.51 285.44,-141.39 -139.83,-65.08 -291.25,-86.25 -432.84,-144.27 -250.21,-117.87 -529.4,-99.83 -782.95,-206.47 225.01,-141.89 485.03,-18.79 716.72,-123.08 182.41,-78.4 362.6,71.36 542.55,99.83 453.14,-99.83 910.72,85.46 1364.74,-19.34 -392.69,-66.63 -794.3,-78.14 -1185.46,-159.41 -17.39,-13.59 -52.62,-41.03 -69.79,-54.9 217.21,-56.45 446.67,-64.28 664.09,-6.26 259.13,88.59 531.85,36.6 797.44,36.6 -31.65,-54.11 -63.33,-108.21 -94.98,-162.31 -248.88,15.93 -505.11,39.46 -748.39,-39.46 -10.94,-63.24 -8.03,-127.8 -10.04,-191.57 -350.78,-91.48 -713.37,-93.04 -1063.03,-184.78 -172.6,-76.81 -357.03,-96.15 -536.53,-143.21 20.95,-44.95 62.87,-134.59 83.61,-179.02 330.72,100.87 676.15,61.69 1011.52,129.89 192.45,21.69 385.79,64.02 579.13,34.76 359.7,-62.2 720.28,25.88 1081.32,18.3 626.18,103.75 1261.71,53.04 1891.47,110.54 116.2,25.1 216.52,-59.85 325.36,-91.21 248.19,-86.24 505.53,21.17 757.75,-23.26 144.93,-35.27 287.45,117.6 421.91,8.63 125.1,-96.95 288.34,-29.02 409.65,-130.94 -241.3,-3.67 -485.68,39.47 -724.99,-17.25 -229.22,-57.48 -463.37,-71.33 -697.51,-78.14 -538.1,-80.23 -1083.34,-58.29 -1623.87,-99.84 -2.47,-41.03 -7.38,-123.08 -9.39,-164.65 -3.12,43.92 -8.91,131.73 -11.8,175.63 -255.78,-59.84 -516.92,-27.96 -774.03,-52.27 -95.44,-48.87 -195.35,-122.04 -231.48,-241.21 266.04,-31.9 533.62,14.89 800.35,-11.51 -83.64,-179.02 -279.42,-127 -424.82,-145.31 -308.84,-43.9 -619.7,9.16 -928.34,-27.45 -104.37,-34.22 -187.99,-153.39 -305.73,-122.03 -240.39,17.77 -539.65,84.94 -718.28,-151.08 252.66,-155.23 544.12,-74.73 811.72,-33.7 470.29,-12.27 941.71,-43.66 1408.02,-107.66 -495.08,-6.27 -991.69,45.46 -1479.39,-81.55 211.19,-196.8 512,-89.9 762.21,-146.61 381.32,25.08 758.64,-70.84 1139.96,-47.84 495.96,9.15 990.79,-73.68 1485.84,-26.92 143.41,14.38 279.44,-87.8 421.91,-44.93 185.54,52.51 375.99,-7.33 563.3,16.98 361.92,37.12 725.41,-12.55 1086.68,34.75 305.72,-75.78 636.2,13.34 923.89,-154.45 165.66,-93.03 342.74,29.27 515.34,13.58 557.93,-19.85 1116.34,17.77 1674.27,-1.81 397.6,-41.57 799.66,27.42 1194.61,-63.26 277.84,44.95 559.26,54.1 840.47,43.92 312.64,2.86 625.72,23.5 938.83,11.23 530.26,30.82 1066.35,-22.22 1590.63,96.44 422.36,3.92 847.18,20.62 1267.3,-50.19 -11.37,-57.51 -21.41,-115.25 -30.09,-172.74 104.8,22.21 173.7,113.94 240.15,202.27 79.17,-90.17 177.74,-157.85 292.8,-129.87 251.77,-18.83 487.7,100.34 737.91,101.66 124.21,8.62 241.73,60.89 361.47,96.17 42.14,-42.6 83.63,-85.99 126.67,-127.54 257.1,353.34 699.32,202.28 1044.06,172.23 257.13,85.97 528.3,155.5 741.93,354.12 -72.69,72.93 -146.51,144.78 -218.11,218.76 -116.4,-6.54 -258.89,-102.99 -352.32,19.85zm-9861.21 7024.19c-588.47,-2.87 -1177.2,-37.38 -1765.24,-64.82 -484.13,1.32 -965.35,-82.57 -1449.71,-80.22 182.63,60.63 368.61,117.6 559.06,113.16 510.88,-14.9 1018.19,71.86 1527.52,97.47 208.72,0.79 417.89,-8.36 624.83,24.57 252.46,-48.87 532.99,65.86 767.37,-66.12 -83.19,-38.93 -176.63,-16.21 -263.83,-24.04zm361.5 -18.56c-13.39,13.34 -40.37,40.25 -53.1,53.58 192.45,11.5 388.93,20.65 579.8,-20.91 -171.69,-48.6 -351.22,-32.67 -526.7,-32.67zm8443.13 -7688.79c49.96,-37.12 181.3,-60.12 200.72,22.21 -52.64,25.09 -184.42,62.47 -200.72,-22.21zm-7292.03 8320.21c-89.19,-3.92 -178.84,-7.32 -267.58,-18.82 81.37,-39.99 167.68,-63.77 254.43,-85.72 3.34,26.13 10.27,78.39 13.15,104.54zm-7314.33 -731.77c-74.72,-13.85 -143.4,-46.26 -200.7,-101.66 85.84,-11.77 161.45,10.71 200.7,101.66zm4915.1 809.38c-47.95,71.62 -183.75,-12.01 -130.91,-102.71 50.41,-68.99 186.66,3.94 130.91,102.71zm-1779.31 -263.43c-356.56,-29.27 -716.49,-59.59 -1063.25,-165.18 -16.29,-16.2 -49.27,-50.17 -65.56,-66.9 519.36,81.28 1043.2,139.56 1560.99,235.21 -129.35,114.47 -289.01,5.76 -432.18,-3.13zm3375.74 264.22c-75.13,-8.36 -148.95,-18.55 -222.97,-30.58 66.21,-35.8 139.13,-54.62 211.61,-73.97 3.13,25.89 8.48,78.15 11.36,104.55zm-2653.66 -204.89c-6.7,24.82 -19.41,75 -26.1,100.34 -81.62,-31.87 -163.24,-63.23 -241.51,-101.92 89.22,-4.96 178.39,-1.83 267.61,1.58zm-2710.32 -372.16c-45.52,77.36 -156.1,-20.91 -111.5,-102.44 47.94,-71.36 160.32,15.93 111.5,102.44zm435.73 54.36c-82.28,-10.72 -163.9,-23.51 -245.28,-38.94 73.12,-25.35 148.04,-45.99 222.97,-65.86 5.38,26.39 16.75,78.67 22.31,104.8zm-1336.42 -309.44c57.76,-6.52 143.38,-14.11 176.83,52.27 -14.51,101.67 -280.31,21.69 -176.83,-52.27zm9925.41 -7827.83c-239.71,-23.26 -493.28,156.28 -715.14,-8.61 -175.94,0.51 -361.95,78.4 -526.96,-23.27 -239.95,-110.83 -545.44,125.98 -745.93,-104.28 541.69,-25.88 1086,9.94 1627.9,-15.42 420.12,-75.77 836.23,73.97 1257.27,32.4 113.73,-3.39 253.54,-38.13 326.23,90.16 -403.85,91.48 -816.62,-20.63 -1223.37,29.02z"/>
   <path id="_5f17317e6d5ee768d315413e_mancha_x0020_28129.svg_0_3" class="fil0 str0" d="M16180.44 15292.39c184.19,70.83 398.51,180.34 579.79,43.39 -185.75,-59.06 -400.49,-205.93 -579.79,-43.39zm-6944.15 -7313.5c161.67,-70.04 331.81,-125.44 477.21,-235.21 -169.69,-2.35 -328.27,69.52 -490.59,116.3 3.55,29.28 9.8,89.12 13.38,118.91zm7560.52 8019.66c48.84,74.22 188.88,-2.34 125.77,-93.29 -47.93,-82.59 -184.19,1.82 -125.77,93.29zm-912.07 -220.31c45.72,102.97 157.88,-9.94 102.14,-102.97 -45.94,-98.01 -161.24,8.36 -102.14,102.97zm184.2 319.36c81.85,85.2 205.17,108.2 289.89,13.86 -95.89,-17.26 -193.1,-23 -289.89,-13.86zm2228.21 -767.57c-68.71,-41.03 -134.69,101.14 -41.49,116.31 69.12,39.71 135.15,-101.41 41.49,-116.31zm-244.41 399.86c-159.22,6.79 72.69,163.34 0,0l0 0zm-2585.9 422.33c79.62,100.88 207.61,107.42 289.9,8.37 -95.67,-26.4 -193.56,-27.96 -289.9,-8.37zm2955.19 89.65c36.11,54.88 132.46,-4.18 88.73,-60.89 -36.77,-54.37 -133.56,2.6 -88.73,60.89zm-925.9 -836.57c155.66,21.68 340.08,108.19 468.3,-23.27 -152.54,-31.61 -328.93,-64.55 -468.3,23.27zm-535.19 -93.82c82.51,128.06 223.44,52.78 334.49,56.71 -109.28,-32.15 -220.78,-62.21 -334.49,-56.71zm-3679.47 410.57c-179.07,-18.03 -360.15,-1.83 -535.21,44.43 4.02,45.99 11.83,137.72 15.84,183.47 156.76,-2.36 313.55,5.22 468.52,-19.61 -112.18,-46 -232.59,-47.83 -347.88,-81.81 132.91,-44.68 277.85,-43.64 398.73,-126.48zm-924.11 186.86c68.9,27.96 90.32,2.88 64.22,-74.75 -68.68,-27.7 -90.09,-2.61 -64.22,74.75zm3823.08 -588.02c-180.64,-157.33 -421.23,-110.82 -629.95,-88.09 -183.1,-38.94 -368.42,-59.84 -553.04,-16.46 -111.08,31.88 -255.11,-25.09 -333.41,101.66 252.91,52.53 510.45,21.7 765.12,43.13 218.54,8.36 434.19,59.85 652.72,66.38 24.76,-26.92 74.03,-79.97 98.56,-106.62zm-6043.24 -1069.7c41.7,77.1 88.09,149.5 126.44,228.95 6.68,99.3 -4.46,224.49 101.91,251.15 200.23,45.73 403.62,78.14 604.32,121 -113.73,-107.15 -251.77,-174.05 -353.68,-300.29 164.56,19.07 309.08,157.07 479.89,108.46 -243.96,-299.75 -630.62,-330.07 -958.88,-409.27zm2417.06 1662.16c72.27,28.23 95.68,0 70.91,-83.89 -70.91,-27.19 -94.3,0.52 -70.91,83.89zm2467.03 611.55c-59.77,33.19 -59.99,68.22 -1.33,104.55 60.2,-34.24 60.64,-69.01 1.33,-104.55zm-1762.13 -592.47c97.25,16.21 194.69,8.89 289.89,-14.37 -83.61,-103.23 -206.7,-69 -289.89,14.37zm593.63 -710.6c-220.31,5.74 -439.76,-41.81 -660.3,-26.92 59.77,47.83 107.26,134.34 179.95,146.62 370.85,23.25 742.16,14.11 1113.21,33.44 22.51,-27.17 67.13,-80.74 89.21,-107.14 -235.5,-89.12 -481.25,-27.71 -722.07,-46zm-278.98 699.88c163.92,-10.97 329.58,-13.32 488.15,-61.68 -162.56,-21.69 -326.93,-31.35 -490.59,-38.41 0.66,24.82 1.99,75.01 2.44,100.09zm6694.86 -425.2c70.92,25.87 95.66,-2.62 74.25,-85.72 -70.9,-26.66 -95.66,2.09 -74.25,85.72zm1362.52 -8510.46c-141.6,-81.28 -3.34,186.59 0,0l0 0zm-1615.19 -176.67c-51.73,-50.7 -81.83,-37.39 -89.17,39.45 51.72,50.19 81.36,36.85 89.17,-39.45zm1484.74 102.71c-48.18,-56.72 -161.24,-32.94 -169.03,53.3 9.13,132.78 225.24,64.56 169.03,-53.3zm935.68 3.39c-50.82,-44.68 -166.8,-55.4 -190.42,27.97 20.06,97.73 251.55,92.76 190.42,-27.97zm411.67 15.95c-94.78,-30.57 -191.78,-43.91 -289.89,-38.94 82.72,85.96 194,115.5 289.89,38.94zm-8496.24 -164.38c-13.6,-15.96 -40.58,-48.89 -54.19,-65.11 -190.22,-38.39 14.93,248.81 54.19,65.11zm-4192.35 377.1c-174.16,-7.05 -356.35,5.23 -512.9,91.48 172.14,19.85 371.74,26.91 512.9,-91.48zm-30.78 619.92c100.58,129.35 280.54,257.17 224.56,457.1 16.29,209.07 167.25,370.59 233.47,562.66 -90.75,184 -96.77,402.49 -28.76,598.76 -99.02,34.22 -173.72,123.61 -270.96,159.14 -191.55,6.81 -368.16,-147.65 -563.5,-80.21 93,73.43 197.12,127.54 285.66,208.54 116.19,114.48 276.51,122.57 416.56,175.11 -36.12,61.42 -72.7,123.6 -109.5,185.81 90.09,75.28 176.61,156.28 244.87,258.23 -89.67,5.72 -179.08,2.86 -269.16,7.55 -119.09,62.72 -223.23,169.36 -277.43,308.38 178.19,90.7 375.33,107.7 555.5,185.83 12.27,25.62 37.02,76.32 49.5,101.41 -229,21.69 -494.15,-147.13 -695.3,36.6 -21.18,77.36 -8.93,160.2 31.67,226.32 113.27,200.69 142.5,451.08 88.98,680.54 78.5,72.4 155.85,147.67 227.45,228.68 -71.14,-15.42 -142.93,-31.88 -214.52,-46.79 -57.32,144.77 -119.77,286.69 -187.99,425.2 99.46,72.4 213.19,102.19 328.03,122.85 38.58,356.21 169.71,678.18 285.21,1008.01 -147.85,-86.77 -302.84,-161.79 -468.96,-186.86 76.26,128.84 184.43,232.59 197.8,398.54 221.65,61.67 449.13,88.87 662.74,182.95 -7.35,75.8 -15.39,151.58 -23.2,228.16 159.67,173.28 370.63,246.19 581.15,290.61 231.01,42.86 451.13,152.62 687.94,155.24 113.96,-3.93 217.2,48.35 321.58,92.26 650.48,49.65 1301.41,126.22 1952.77,176.67 329.39,36.07 659.87,25.08 987.9,75.26 305.51,-35.28 614.37,25.62 900.24,153.94 192.89,-122.59 423.24,-119.18 637.11,-97.49 319.57,66.13 644,-42.85 963.12,22.22 206.28,35.28 417.91,-4.7 619.71,69.52 378.2,-35.28 759.55,10.19 1137.75,-44.96 115.72,-6.8 229.46,25.09 345.2,25.09 247.31,5.75 498.62,-114.47 739.01,0.52 106.39,-238.34 353.24,-220.57 548.12,-175.62 296.15,-32.41 594.08,-16.98 888.87,-70.04 531.63,-18.3 1061.93,-73.7 1588.2,-158.12 302.84,23.52 603.87,-18.81 899.14,-94.6 277.85,-74.22 571.77,-18.3 839.35,-142.43 300.84,-64.3 605.45,-109.5 903.38,-188.7 21.61,-23 64.66,-67.94 86.53,-90.15 -563.31,90.15 -1123.7,248.01 -1695.91,235.45 -147.41,31.89 -287.89,-31.34 -429.49,-68.46 0.44,42.08 1.55,127.01 2,169.35 -75.37,-18.29 -149.4,-44.95 -207.83,-105.57 -426.84,12.01 -855.19,-14.9 -1278.45,65.06 -322.69,81.55 -682.59,172.75 -998.83,20.64 79.63,-43.9 163.92,-76.29 252.46,-83.1 474.31,-56.72 949.51,-96.43 1425.84,-109.5 205.38,-2.87 389.35,-127.54 592.72,-143.75 623.73,-26.67 1242.55,-126.48 1860.25,-223.98 291.68,-27.44 574.68,-120.2 861.66,-180.32 -374.41,-183.46 -781.59,1.33 -1169.83,4.7 -3.57,-12.27 -10.49,-37.63 -13.84,-50.16 266.04,36.57 499.08,-182.95 765.78,-138 199.81,58.81 384.91,-81.54 579.58,-106.09 207.38,-22.23 415,-51.76 619.27,-98.02 89.64,-9.14 134.02,-107.67 202.92,-159.42 214.53,-112.9 477.22,-37.63 675.69,-204.11 -283.43,2.87 -562.85,70.84 -846.28,85.98 -269.16,15.94 -532.29,145.06 -803.24,86.25 193.33,-139.83 429.28,-124.41 645.58,-175.11 173.71,-39.98 359.03,-7.32 524.72,-88.86 88.97,-39.97 132.46,-145.3 201.36,-214.31 372.41,-78.39 736.34,-204.63 1114.33,-253.77 12.7,-24.82 39.02,-75.78 51.95,-100.86 -306.62,-0.53 -614.81,-14.9 -919.42,36.85 -199.8,29.01 -401.62,7.56 -589.61,-72.93 -283.88,42.08 -563.29,120.23 -851.17,118.66 330.7,-70.04 668.32,-101.91 997.01,-184.51 19.4,-30.31 57.99,-91.47 77.61,-122.04 67.12,31.87 135.13,62.71 203.83,90.16 -3.36,-50.69 -10.05,-152.12 -13.38,-202.55 204.7,-53.05 417,11.5 619.7,-64.28 231.92,-81.04 512.01,-88.33 664.31,-339.75 1.57,-45.48 4.02,-137.99 5.58,-184 -153.43,-11.75 -306.18,5.24 -458.94,13.59 -107.93,-19.85 -206.27,-79.71 -310.62,-115.76 -477.68,-34.25 -939.72,215.59 -1419.61,159.68 116.18,-129.89 295.46,-91.22 442.87,-130.43 325.35,-66.09 682.6,-75.25 970.93,-271.79 -173.71,-2.35 -338.95,77.88 -513.56,69 111.72,-71.35 241.28,-71.88 363.04,-101.92 167.25,-36.08 326.47,-113.96 498.18,-114.48 97.9,-1.05 149.85,-115.25 212.07,-184.24 -173.71,-31.38 -434.85,99.83 -500.63,-168.57 197.35,-111.85 423.02,-106.12 635.55,-145.31 -8.48,-28.49 -26.1,-85.99 -34.57,-114.73 -310.19,15.95 -621.27,128.31 -933.92,50.71 -80.05,-48.35 -144.28,-124.42 -214.08,-190.02 79.16,-39.97 157.88,-79.71 235.49,-122.56 -98.57,-37.64 -200.25,-69.51 -285.43,-141.38 139.82,-65.08 291.23,-86.26 432.82,-144.28 250.21,-117.87 529.41,-99.83 782.96,-206.47 -225.01,-141.89 -485.02,-18.8 -716.72,-123.08 -182.41,-78.39 -362.59,71.35 -542.55,99.83 -453.13,-99.83 -910.72,85.45 -1364.74,-19.35 392.69,-66.63 794.31,-78.13 1185.45,-159.41 17.39,-13.58 52.62,-41.03 69.8,-54.89 -217.21,-56.45 -446.67,-64.29 -664.1,-6.26 -259.11,88.59 -531.84,36.59 -797.44,36.59 31.65,-54.1 63.34,-108.2 94.99,-162.3 248.88,15.94 505.1,39.47 748.39,-39.46 10.93,-63.24 8.03,-127.79 10.04,-191.57 350.78,-91.48 713.37,-93.04 1063.03,-184.77 172.6,-76.83 357.02,-96.17 536.53,-143.22 -20.96,-44.94 -62.88,-134.59 -83.62,-179.02 -330.7,100.87 -676.13,61.69 -1011.52,129.89 -192.45,21.69 -385.78,64.03 -579.12,34.76 -359.7,-62.2 -720.29,25.88 -1081.31,18.29 -626.19,103.75 -1261.73,53.05 -1891.48,110.56 -116.2,25.08 -216.53,-59.86 -325.37,-91.22 -248.18,-86.25 -505.52,21.17 -757.74,-23.26 -144.94,-35.28 -287.44,117.61 -421.9,8.63 -125.11,-96.95 -288.35,-29.02 -409.67,-130.93 241.31,-3.67 485.7,39.47 724.99,-17.26 229.22,-57.48 463.37,-71.34 697.52,-78.14 538.11,-80.22 1083.34,-58.29 1623.87,-99.83 2.46,-41.04 7.38,-123.09 9.4,-164.66 3.11,43.91 8.9,131.73 11.78,175.62 255.79,-59.83 516.92,-27.95 774.04,-52.26 95.44,-48.86 195.34,-122.04 231.49,-241.21 -266.05,-31.89 -533.64,14.88 -800.36,-11.51 83.63,-179.02 279.42,-127 424.81,-145.31 308.85,-43.9 619.7,9.15 928.34,-27.44 104.38,-34.24 187.99,-153.4 305.74,-122.04 240.39,17.76 539.65,84.94 718.28,-151.07 -252.65,-155.24 -544.13,-74.75 -811.72,-33.71 -470.3,-12.28 -941.71,-43.65 -1408.03,-107.67 495.09,-6.27 991.7,45.47 1479.39,-81.54 -211.18,-196.8 -512,-89.9 -762.2,-146.62 -381.31,25.09 -758.64,-70.83 -1139.96,-47.83 -495.97,9.16 -990.79,-73.69 -1485.84,-26.91 -143.41,14.37 -279.44,-87.81 -421.9,-44.94 -185.56,52.51 -376.01,-7.33 -563.31,16.98 -361.92,37.12 -725.42,-12.56 -1086.67,34.74 -305.74,-75.76 -636.21,13.34 -923.89,-154.44 -165.67,-93.03 -342.74,29.27 -515.34,13.58 -557.93,-19.85 -1116.34,17.77 -1674.28,-1.81 -397.61,-41.57 -799.65,27.41 -1194.61,-63.26 -277.84,44.95 -559.26,54.1 -840.48,43.93 -312.63,2.85 -625.72,23.5 -938.81,11.23 -530.27,30.81 -1066.37,-22.23 -1590.64,96.42 -422.36,3.92 -847.19,20.64 -1267.3,-50.18 11.36,-57.5 21.41,-115.25 30.09,-172.74 -104.79,22.21 -173.7,113.93 -240.15,202.26 -79.18,-90.15 -177.75,-157.84 -292.81,-129.86 -251.77,-18.82 -487.69,100.34 -737.91,101.66 -124.2,8.62 -241.73,60.89 -361.46,96.16 -42.14,-42.59 -83.64,-85.98 -126.67,-127.54 -257.11,353.36 -699.33,202.28 -1044.06,172.24 -257.12,85.98 -528.29,155.5 -741.94,354.11 72.7,72.93 146.52,144.78 218.11,218.76 116.4,-6.53 258.89,-102.98 352.33,19.86zm9861.2 7024.2c588.49,-2.88 1177.21,-37.38 1765.25,-64.83 484.13,1.32 965.35,-82.58 1449.72,-80.22 -182.65,60.63 -368.63,117.6 -559.08,113.16 -510.88,-14.9 -1018.19,71.87 -1527.51,97.48 -208.72,0.78 -417.9,-8.36 -624.84,24.56 -252.45,-48.86 -532.98,65.86 -767.36,-66.13 83.2,-38.93 176.62,-16.19 263.82,-24.02zm-361.49 -18.57c13.39,13.34 40.37,40.26 53.09,53.58 -192.45,11.5 -388.91,20.65 -579.79,-20.91 171.69,-48.61 351.22,-32.67 526.7,-32.67zm-8443.13 -7688.78c-49.96,-37.12 -181.31,-60.13 -200.71,22.2 52.63,25.09 184.41,62.46 200.71,-22.2zm7292.03 8320.2c89.19,-3.93 178.84,-7.32 267.57,-18.82 -81.36,-39.98 -167.67,-63.77 -254.42,-85.73 -3.34,26.14 -10.27,78.4 -13.15,104.55zm7314.32 -731.78c74.72,-13.84 143.41,-46.26 200.72,-101.66 -85.86,-11.75 -161.46,10.72 -200.72,101.66zm-4915.09 809.39c47.95,71.61 183.75,-12.01 130.9,-102.7 -50.41,-69 -186.65,3.92 -130.9,102.7zm1779.31 -263.43c356.56,-29.27 716.49,-59.6 1063.24,-165.17 16.3,-16.2 49.27,-50.18 65.58,-66.9 -519.36,81.27 -1043.22,139.55 -1561.01,235.2 129.35,114.48 289.02,5.76 432.19,-3.13zm-3375.74 264.22c75.13,-8.37 148.95,-18.56 222.98,-30.57 -66.23,-35.81 -139.15,-54.63 -211.61,-73.98 -3.14,25.89 -8.49,78.15 -11.37,104.55zm2653.65 -204.89c6.72,24.82 19.41,75 26.12,100.34 81.6,-31.87 163.23,-63.23 241.5,-101.91 -89.21,-4.97 -178.4,-1.84 -267.62,1.57zm2710.33 -372.16c45.51,77.35 156.11,-20.91 111.49,-102.45 -47.93,-71.35 -160.31,15.94 -111.49,102.45zm-435.74 54.37c82.28,-10.73 163.91,-23.53 245.3,-38.95 -73.13,-25.36 -148.05,-46 -222.98,-65.86 -5.37,26.39 -16.75,78.66 -22.32,104.81zm1336.42 -309.45c-57.76,-6.53 -143.37,-14.1 -176.83,52.27 14.51,101.66 280.32,21.69 176.83,-52.27zm-9925.41 -7827.83c239.73,-23.26 493.28,156.28 715.15,-8.62 175.94,0.52 361.94,78.41 526.96,-23.25 239.94,-110.83 545.43,125.97 745.92,-104.3 -541.67,-25.87 -1085.99,9.95 -1627.89,-15.42 -420.13,-75.76 -836.24,73.97 -1257.26,32.42 -113.74,-3.4 -253.56,-38.14 -326.25,90.16 403.86,91.48 816.63,-20.64 1223.37,29.01z"/>
  </g>
 </g>
</svg>
