<?xml version="1.0" encoding="UTF-8"?>
<!DOCTYPE svg PUBLIC "-//W3C//DTD SVG 1.1//EN" "http://www.w3.org/Graphics/SVG/1.1/DTD/svg11.dtd">
<!-- Creator: CorelDRAW 2020 (64 Bit) -->
<svg xmlns="http://www.w3.org/2000/svg" xml:space="preserve" width="200px" height="750px" version="1.1" style="shape-rendering:geometricPrecision; text-rendering:geometricPrecision; image-rendering:optimizeQuality; fill-rule:evenodd; clip-rule:evenodd"
viewBox="0 0 20000 75001"
 xmlns:xlink="http://www.w3.org/1999/xlink"
 xmlns:xodm="http://www.corel.com/coreldraw/odm/2003">
 <defs>
  <style type="text/css">
   <![CDATA[
    .fil1 {fill:#4E5A62}
    .fil2 {fill:#A7C4D2;fill-opacity:0.039216}
    .fil3 {fill:#91D8F7;fill-opacity:0.129412}
    .fil0 {fill:#C8C5E2;fill-opacity:0.431373}
   ]]>
  </style>
 </defs>
 <g id="Camada_x0020_1">
  <metadata id="CorelCorpID_0Corel-Layer"/>
  <g id="_815608832">
   <path class="fil0" d="M-44 20916c303,280 606,559 921,790 315,231 643,412 996,714 354,302 733,724 1173,1096 440,372 939,695 1424,922 484,227 954,358 1490,446 536,88 1137,132 2783,-211 1646,-343 4336,-1074 5907,-1473 1571,-399 2023,-465 2442,-446 418,20 805,125 1132,255 327,130 595,285 798,424 203,138 341,260 482,366 141,106 285,196 377,321 91,125 131,286 170,446 -505,-291 -1011,-582 -1451,-794 -440,-212 -815,-345 -1137,-412 -321,-66 -590,-66 -894,-19 -304,47 -645,141 -1052,325 -408,183 -883,456 -1692,841 -808,385 -1950,882 -3061,1195 -1112,314 -2193,445 -3226,402 -1033,-43 -2018,-258 -3048,-764 -1031,-506 -2106,-1301 -2869,-2086 -763,-786 -1214,-1562 -1665,-2338z"/>
   <path class="fil1" d="M-44 20916c385,527 770,1053 1434,1704 664,651 1607,1426 2818,1936 1211,510 2690,753 4174,729 1483,-25 2971,-317 4411,-890 1440,-572 2832,-1424 4035,-1437 1204,-12 2219,815 3234,1641 2,-8194 4,-16388 6,-24582 -6704,0 -13408,1 -20112,1 0,6966 0,13932 0,20898z"/>
   <path class="fil2" d="M20112 24600c-74,-59 -501,-434 -562,-503 -159,-180 -1490,-915 -1678,-950 -351,-65 -825,-203 -1169,-166 -344,37 -701,99 -1074,209 -374,109 -924,394 -1376,566 -452,172 -911,450 -1460,639 -1393,480 -1562,528 -2914,739 -419,65 -1870,130 -2399,91 -1450,-105 -2861,-367 -4043,-1114 -47,-30 -1753,-1211 -1767,-1226 -474,-513 -960,-1019 -1299,-1410 -16,-18 -31,-35 -46,-52 -181,-210 -320,-380 -369,-507 3,-1367 -3,-7707 0,-9074 648,-1167 1244,-1974 1799,-2484 4570,-4202 6272,11769 10022,12362 1285,203 3039,-1017 4292,-1294 1252,-277 2003,389 2513,1202 510,813 1261,2013 1530,2972z"/>
   <path class="fil3" d="M1081 22306c1489,9 2978,18 4378,-709 1399,-726 2708,-2188 4305,-3727 1597,-1540 3482,-3156 5247,-3216 1764,-59 3409,1439 5053,2937 -1,2336 -1,4672 -2,7008 -330,-257 -660,-515 -905,-699 -246,-184 -408,-295 -567,-392 -160,-96 -317,-178 -446,-239 -130,-60 -231,-99 -342,-136 -111,-37 -232,-72 -350,-99 -119,-27 -235,-46 -362,-56 -127,-10 -265,-12 -396,-6 -131,7 -255,22 -375,43 -120,20 -235,46 -386,89 -151,43 -339,102 -526,169 -187,68 -375,142 -538,210 -164,68 -303,130 -453,197 -151,67 -313,141 -547,247 -235,106 -543,245 -839,368 -296,124 -580,231 -838,323 -257,92 -489,168 -754,241 -265,74 -562,144 -820,198 -257,54 -475,91 -696,119 -221,27 -445,45 -668,66 -223,21 -445,44 -693,50 -249,7 -524,-3 -848,-18 -324,-15 -697,-36 -1033,-77 -337,-41 -638,-103 -888,-158 -249,-56 -448,-106 -615,-148 -168,-43 -304,-78 -456,-131 -152,-53 -321,-123 -478,-192 -157,-68 -303,-134 -422,-192 -120,-57 -214,-106 -331,-171 -117,-65 -257,-147 -379,-222 -122,-74 -226,-142 -345,-225 -119,-83 -254,-180 -375,-272 -121,-91 -228,-177 -332,-264 -104,-86 -203,-172 -314,-273 -111,-100 -233,-215 -346,-324 -112,-110 -215,-215 -318,-319z"/>
  </g>
 </g>
</svg>
