<?xml version="1.0" encoding="UTF-8"?>
<!DOCTYPE svg PUBLIC "-//W3C//DTD SVG 1.1//EN" "http://www.w3.org/Graphics/SVG/1.1/DTD/svg11.dtd">
<!-- Creator: CorelDRAW 2020 (64 Bit) -->
<svg xmlns="http://www.w3.org/2000/svg" xml:space="preserve" width="900px" height="408px" version="1.1" style="shape-rendering:geometricPrecision; text-rendering:geometricPrecision; image-rendering:optimizeQuality; fill-rule:evenodd; clip-rule:evenodd"
viewBox="0 0 90000 40760"
 xmlns:xlink="http://www.w3.org/1999/xlink"
 xmlns:xodm="http://www.corel.com/coreldraw/odm/2003">
 <defs>
  <style type="text/css">
   <![CDATA[
    .str0 {stroke:#4E5A62;stroke-width:236;stroke-miterlimit:22.9256}
    .fil1 {fill:#4E5A62;fill-rule:nonzero}
    .fil2 {fill:#C3C8E5;fill-rule:nonzero;fill-opacity:0.058824}
    .fil3 {fill:#91D8F7;fill-rule:nonzero;fill-opacity:0.168627}
    .fil0 {fill:#C0CAE6;fill-rule:nonzero;fill-opacity:0.400000}
   ]]>
  </style>
 </defs>
 <g id="Camada_x0020_1_0">
  <metadata id="CorelCorpID_0Corel-Layer"/>
 </g>
 <g id="Camada_x0020_1_1">
  <metadata id="CorelCorpID_1Corel-Layer"/>
 </g>
 <g id="Camada_x0020_1_0_0">
  <metadata id="CorelCorpID_2Corel-Layer"/>
  <path class="fil0" d="M1572 14892c2656,2551 4141,4001 5994,5717 1854,1715 2905,2595 4079,3517 1174,921 2470,1884 3904,2835 1435,951 3009,1890 4607,2721 1597,832 3219,1556 4892,2224 1673,668 3398,1281 5156,1805 1758,524 3548,959 5476,1315 1928,356 3993,632 5940,787 1947,155 3777,188 5978,109 2202,-79 4774,-271 7067,-512 2293,-242 4306,-533 6638,-943 2331,-411 4981,-942 7187,-1385 2206,-442 3968,-795 5640,-888 1671,-94 3252,73 4616,392 1363,320 2509,792 3677,1380 1167,588 2357,1292 3380,2019 1022,727 1878,1478 2557,2270 679,792 748,909 1250,1743 -1061,-1137 -1688,-1555 -3237,-2649 -1549,-1093 -3587,-2143 -5404,-2793 -1817,-650 -3413,-900 -5019,-930 -1606,-30 -3224,160 -5082,501 -1857,342 -3956,836 -6306,1355 -2349,519 -4951,1062 -7470,1519 -2519,457 -4956,827 -7508,1031 -2553,204 -5222,241 -7340,204 -2118,-37 -3684,-148 -5454,-371 -1769,-222 -3742,-555 -6153,-1210 -2411,-654 -5260,-1629 -8195,-3153 -2935,-1524 -5956,-3598 -8273,-5408 -3049,-2379 -5881,-5111 -8426,-8022 -1370,-1568 -2185,-2824 -4171,-5180z"/>
  <path class="fil1 str0" d="M93 -33c0,4482 0,8965 0,13448 1682,1704 3365,3408 5279,5205 1915,1796 4062,3686 6151,5353 2088,1667 4119,3112 5976,4242 1856,1130 3539,1945 5453,2778 1915,834 4062,1686 6180,2371 2117,686 4206,1204 6411,1630 2205,426 4525,760 7223,889 2698,130 5773,56 8906,-203 3133,-260 6325,-704 9312,-1204 2989,-501 5773,-1056 7949,-1482 2176,-426 3743,-723 5305,-808 1562,-86 3120,39 4396,317 1276,278 2271,708 3262,1220 991,512 1977,1104 3051,1864 1073,759 2233,1686 3097,2550 864,864 1432,1666 1999,2468 0,-13546 0,-27092 0,-40638 -29983,0 -59967,0 -89950,0z"/>
  <path class="fil2" d="M93 13415c2901,-1519 5802,-3038 8267,-4168 2466,-1130 4497,-1871 6470,-2260 1972,-389 3887,-426 5657,-92 1769,333 3394,1037 5018,2296 1625,1260 3249,3075 5077,5242 1828,2168 3858,4687 5831,6613 1973,1927 3887,3260 5860,4353 1973,1093 4004,1945 6208,2538 2205,593 4584,926 7253,926 2669,0 5628,-333 8297,-908 2669,-574 5047,-1389 7136,-2056 2089,-666 3887,-1185 5599,-1315 1711,-129 3336,130 4699,889 1364,760 2466,2019 3308,3168 841,1148 1421,2185 2102,3951 680,1766 1461,4260 2242,6754 -426,-470 -853,-941 -1428,-1493 -576,-551 -1300,-1182 -2412,-2000 -1112,-817 -2612,-1820 -4152,-2506 -1540,-685 -3120,-1053 -4699,-1147 -1579,-95 -3157,83 -4687,316 -1531,233 -3014,521 -4440,794 -1426,274 -2795,533 -3831,731 -1036,198 -1739,336 -3074,546 -1335,210 -3301,491 -5118,717 -1817,226 -3485,395 -5189,503 -1704,108 -3444,153 -5232,139 -1788,-14 -3625,-87 -5396,-296 -1772,-210 -3479,-557 -4975,-883 -1496,-326 -2782,-633 -4319,-1106 -1538,-474 -3328,-1114 -5018,-1754 -1690,-639 -3281,-1278 -5033,-2178 -1753,-901 -3667,-2064 -5209,-3142 -1542,-1078 -2711,-2071 -3831,-3014 -1120,-943 -2191,-1836 -3388,-2897 -1198,-1062 -2522,-2291 -3225,-2947 -703,-655 -785,-737 -1409,-1360 -625,-624 -1792,-1789 -2959,-2954z"/>
  <path class="fil3" d="M22547 30844c1450,-179 2901,-358 4757,-762 1857,-404 4119,-1034 6295,-1793 2176,-760 4265,-1649 6084,-2551 1820,-901 3371,-1816 5228,-2798 1856,-982 4019,-2030 5941,-2759 1923,-728 3605,-1135 5346,-1395 1740,-259 3539,-370 5396,-185 1856,185 3771,667 5599,1482 1827,815 3568,1964 5018,3168 1451,1204 2611,2463 3714,3852 1102,1390 2146,2909 2768,3878 622,970 821,1390 1021,1811 -1177,-259 -2353,-517 -3598,-608 -1244,-91 -2556,-14 -4425,277 -1869,291 -4294,796 -6751,1266 -2457,470 -4945,905 -7250,1231 -2305,327 -4426,546 -6281,694 -1854,148 -3441,225 -5165,257 -1724,32 -3584,19 -5481,-158 -1898,-176 -3832,-516 -5746,-896 -1915,-381 -3809,-802 -5885,-1477 -2075,-675 -4330,-1605 -6585,-2534z"/>
 </g>
</svg>
