<?xml version="1.0" encoding="UTF-8"?>
<!DOCTYPE svg PUBLIC "-//W3C//DTD SVG 1.1//EN" "http://www.w3.org/Graphics/SVG/1.1/DTD/svg11.dtd">
<!-- Creator: CorelDRAW 2020 (64 Bit) -->
<svg xmlns="http://www.w3.org/2000/svg" xml:space="preserve" width="107499px" height="58750px" version="1.1" style="shape-rendering:geometricPrecision; text-rendering:geometricPrecision; image-rendering:optimizeQuality; fill-rule:evenodd; clip-rule:evenodd"
viewBox="0 0 10749900 5874946"
 xmlns:xlink="http://www.w3.org/1999/xlink"
 xmlns:xodm="http://www.corel.com/coreldraw/odm/2003">
 <defs>
  <style type="text/css">
   <![CDATA[
    .str1 {stroke:#4E5A62;stroke-width:2303;stroke-miterlimit:22.9256}
    .str0 {stroke:#CCE7D4;stroke-width:2303;stroke-miterlimit:22.9256}
    .fil1 {fill:#4E5A62}
    .fil0 {fill:#A7C4D2}
   ]]>
  </style>
 </defs>
 <g id="Camada_x0020_1_1_1">
  <metadata id="CorelCorpID_0Corel-Layer"/>
 </g>
 <g id="Camada_x0020_1_0_0">
  <metadata id="CorelCorpID_1Corel-Layer"/>
 </g>
 <g id="Camada_x0020_1_0_1">
  <metadata id="CorelCorpID_2Corel-Layer"/>
 </g>
 <g id="Camada_x0020_1_0_0_0">
  <metadata id="CorelCorpID_3Corel-Layer"/>
  <path class="fil0 str0" d="M-38275 4574862c0,432017 0,864032 0,1296048 3624718,0 7249437,0 10874151,0 -1943,-537498 -3887,-1074999 -5835,-1612496 -3621984,-10277 -7243967,-20551 -10865952,-30824 -790,115755 -1577,231514 -2364,347272z"/>
  <path class="fil1 str1" d="M-38275 4574862c463627,316109 927253,632217 2439309,568996 1512056,-63222 4072540,-505774 5653084,-553190 1580545,-47416 2181153,300303 2781758,648022 -10535,-1770209 -21074,-3540418 -31610,-5310631 -3603644,0 -7207287,0 -10810930,0 -10536,1548933 -21072,3097870 -31611,4646803l0 0 0 0z"/>
 </g>
</svg>
