<?xml version="1.0" encoding="UTF-8"?>
<!DOCTYPE svg PUBLIC "-//W3C//DTD SVG 1.1//EN" "http://www.w3.org/Graphics/SVG/1.1/DTD/svg11.dtd">
<!-- Creator: CorelDRAW 2020 (64 Bit) -->
<svg xmlns="http://www.w3.org/2000/svg" xml:space="preserve" width="3508px" height="2480px" version="1.1" style="shape-rendering:geometricPrecision; text-rendering:geometricPrecision; image-rendering:optimizeQuality; fill-rule:evenodd; clip-rule:evenodd"
viewBox="0 0 350800 248040"
 xmlns:xlink="http://www.w3.org/1999/xlink"
 xmlns:xodm="http://www.corel.com/coreldraw/odm/2003">
 <defs>
  <style type="text/css">
   <![CDATA[
    .fil1 {fill:#4E5A62;fill-rule:nonzero}
    .fil2 {fill:#91D8F7;fill-rule:nonzero;fill-opacity:0.058824}
    .fil3 {fill:#91D8F7;fill-rule:nonzero;fill-opacity:0.188235}
    .fil0 {fill:#CCE7D4;fill-rule:nonzero}
   ]]>
  </style>
 </defs>
 <g id="Camada_x0020_1_0_0_0">
  <metadata id="CorelCorpID_0Corel-Layer"/>
 </g>
 <g id="Camada_x0020_1_1_1">
  <metadata id="CorelCorpID_1Corel-Layer"/>
 </g>
 <g id="Camada_x0020_1_0_0">
  <metadata id="CorelCorpID_2Corel-Layer"/>
  <path class="fil0" d="M72 53159c10353,9944 21907,21081 29131,27770 7227,6685 11324,10115 15900,13710 4577,3590 9629,7344 15219,11051 5593,3707 11729,7367 17958,10607 6226,3243 12548,6065 19070,8669 6522,2604 13246,4993 20099,7036 6853,2043 13830,3738 21346,5126 7516,1388 15565,2464 23155,3068 7590,604 14723,733 23303,425 8584,-308 18610,-1056 27548,-1996 8939,-943 16786,-2078 25876,-3676 9087,-1602 19417,-3672 28016,-5399 8599,-1723 15468,-3099 21986,-3461 6513,-367 12676,284 17993,1528 5314,1247 9781,3087 14334,5379 4549,2292 9188,5037 13175,7871 3984,2833 7321,5761 9968,8848 2647,3088 4604,5910 6561,9161 -1735,-1859 -4860,-5591 -6390,-6865 -2117,-1764 -4411,-3352 -7917,-5827 -6038,-4261 -13982,-8354 -21065,-10888 -7083,-2534 -13305,-3508 -19565,-3625 -6260,-117 -12568,623 -19810,1953 -7239,1333 -15421,3259 -24582,5282 -9157,2023 -19300,4140 -29119,5921 -9819,1781 -19319,3224 -29267,4019 -9952,795 -20356,939 -28612,795 -8257,-144 -14361,-577 -21261,-1446 -6896,-865 -14587,-2163 -23985,-4717 -9399,-2549 -20504,-6350 -31945,-12290 -11442,-5941 -23218,-14026 -32250,-21082 -11885,-9273 -22925,-19923 -32845,-31270 -5341,-6113 -14283,-16493 -22025,-25677z"/>
  <path class="fil1" d="M72 463c0,17472 0,34947 0,52423 6557,6642 13117,13284 20578,20289 7465,7001 15835,14369 23978,20867 8139,6498 16056,12131 23295,16536 7235,4405 13796,7582 21257,10829 7465,3251 15834,6572 24090,9242 8253,2675 16396,4694 24991,6354 8596,1661 17639,2963 28156,3466 10518,507 22504,218 34717,-791 12213,-1014 24656,-2745 36300,-4694 11651,-1953 22504,-4116 30986,-5777 8482,-1660 14591,-2818 20680,-3149 6089,-336 12162,152 17136,1235 4974,1084 8852,2760 12715,4756 3864,1996 7707,4303 11894,7266 4182,2959 8704,6572 12072,9940 3368,3368 5582,6495 7793,9621 0,-52804 0,-105608 0,-158413 -116878,0 -233760,0 -350638,0l0 0z"/>
  <path class="fil2" d="M72 53159c11426,-5983 22852,-11966 32561,-16416 9713,-4451 17712,-7370 25483,-8902 7768,-1532 15310,-1677 22282,-362 6967,1312 13368,4084 19764,9043 6400,4963 12797,12112 19997,20647 7199,8539 15195,18460 22966,26046 7771,7590 15310,12840 23081,17145 7771,4305 15770,7661 24451,9997 8685,2335 18055,3647 28567,3647 10513,0 22167,-1312 32680,-3576 10512,-2261 19878,-5471 28106,-8098 8228,-2623 15310,-4668 22053,-5180 6739,-508 13139,512 18508,3502 5372,2993 9713,7952 13029,12477 3312,4522 5597,8606 8279,15562 2678,6956 5044,19996 8120,29819 -1677,-1851 -3627,-5805 -6426,-7247 -2268,-2171 -2924,-3223 -8494,-7872 -4380,-3218 -10990,-7607 -17065,-11030 -6066,-2697 -11071,-4844 -17291,-5214 -6219,-374 -12434,327 -18460,1245 -6030,918 -11871,2052 -17488,3127 -5616,1080 -11009,2099 -15089,2879 -4081,780 -6849,1324 -12107,2151 -5259,827 -13002,1934 -20159,2824 -7156,890 -13726,1556 -20438,1981 -6711,426 -13564,603 -20607,548 -7042,-55 -14277,-343 -21253,-1166 -6979,-827 -13703,-2194 -19595,-3478 -5892,-1284 -10957,-2493 -17011,-4356 -6058,-1867 -13108,-4388 -19764,-6909 -6657,-2517 -12923,-5033 -19824,-8578 -6904,-3549 -14443,-8130 -20516,-12376 -6074,-4245 -10678,-8157 -15089,-11871 -4412,-3714 -8630,-7231 -13345,-11410 -4718,-4183 -9933,-9024 -12702,-11607 -2769,-2580 -3092,-2903 -5549,-5357 -2462,-2458 -7059,-7046 -11655,-11635l0 0z"/>
  <path class="fil3" d="M86325 121101c5685,-701 11373,-1403 18649,-2987 7281,-1584 16149,-4054 24680,-7029 8531,-2980 16721,-6465 23852,-10001 7135,-3533 13216,-7120 20496,-10970 7276,-3850 15756,-7958 23291,-10816 7539,-2854 14134,-4450 20959,-5469 6822,-1016 13875,-1451 21155,-726 7276,726 14784,2615 21951,5810 7162,3196 13988,7700 19672,12421 5689,4720 10237,9656 14561,15101 4320,5450 8413,11405 10852,15204 2438,3803 3219,5449 4003,7100 -4615,-1016 -9225,-2027 -14106,-2384 -4877,-357 -10021,-55 -17348,1086 -7328,1141 -16835,3121 -26467,4963 -9633,1843 -19387,3548 -28423,4826 -9037,1282 -17352,2141 -24625,2721 -7268,580 -13490,882 -20249,1008 -6759,125 -14051,74 -21488,-620 -7441,-690 -15023,-2023 -22527,-3513 -7508,-1493 -14933,-3144 -23072,-5790 -8135,-2646 -16975,-6292 -25816,-9935z"/>
 </g>
</svg>
