<?xml version="1.0" encoding="UTF-8"?>
<!DOCTYPE svg PUBLIC "-//W3C//DTD SVG 1.1//EN" "http://www.w3.org/Graphics/SVG/1.1/DTD/svg11.dtd">
<!-- Creator: CorelDRAW 2020 (64 Bit) -->
<svg xmlns="http://www.w3.org/2000/svg" xml:space="preserve" width="630px" height="815px" version="1.1" style="shape-rendering:geometricPrecision; text-rendering:geometricPrecision; image-rendering:optimizeQuality; fill-rule:evenodd; clip-rule:evenodd"
viewBox="0 0 63000 81559"
 xmlns:xlink="http://www.w3.org/1999/xlink"
 xmlns:xodm="http://www.corel.com/coreldraw/odm/2003">
 <defs>
  <style type="text/css">
   <![CDATA[
    .str0 {stroke:#CCE7D4;stroke-width:236;stroke-miterlimit:22.9256}
    .fil0 {fill:#4E5A62}
    .fil1 {fill:#CCE7D4}
    .fil3 {fill:#A7C4D2;fill-opacity:0.090196}
    .fil2 {fill:#91D8F7;fill-opacity:0.129412}
   ]]>
  </style>
 </defs>
 <g id="Camada_x0020_1">
  <metadata id="CorelCorpID_0Corel-Layer"/>
  <path class="fil0" d="M-3 64811c698,922 1396,1845 2140,2735 742,890 1530,1749 2349,2559 818,810 1667,1571 2646,2338 978,766 2086,1537 3249,2220 1162,684 2378,1280 3661,1772 1284,491 2635,877 3768,1152 1133,275 2047,440 3036,562 989,123 2053,203 3200,243 1148,40 2378,39 3696,-39 1317,-79 2721,-235 4219,-509 1498,-275 3091,-669 4728,-1195 1637,-526 3319,-1184 4837,-1820 1517,-636 2869,-1250 4085,-1758 1217,-508 2298,-910 3196,-1189 897,-280 1609,-437 2633,-441 1024,-3 2359,148 3508,455 1149,306 2112,768 3043,1349 932,581 1832,1280 2539,1814 709,533 1225,900 1741,1267 -45,-25611 -91,-51223 -136,-76834 -20713,1 -41425,2 -62138,3 0,21772 0,43544 0,65316z"/>
 </g>
 <g id="Camada_x0020_1_0_0_0">
  <metadata id="CorelCorpID_1Corel-Layer"/>
 </g>
 <g id="Camada_x0020_1_1_1">
  <metadata id="CorelCorpID_2Corel-Layer"/>
 </g>
 <g id="Camada_x0020_1_0_0">
  <metadata id="CorelCorpID_3Corel-Layer"/>
 </g>
 <g id="Camada_x0020_1_0">
  <metadata id="CorelCorpID_4Corel-Layer"/>
 </g>
 <g id="Camada_x0020_1_0_0_1">
  <metadata id="CorelCorpID_5Corel-Layer"/>
 </g>
 <g id="Camada_x0020_1_2">
  <metadata id="CorelCorpID_6Corel-Layer"/>
  <path class="fil1 str0" d="M-3 64693c659,847 1318,1693 2095,2603 776,910 1670,1884 2690,2871 1020,987 2167,1988 3210,2792 1043,803 1984,1409 3204,2037 1221,629 2722,1280 4147,1763 1425,483 2773,797 3944,1006 1171,210 2164,317 3529,390 1365,74 3102,116 4493,86 1390,-30 2435,-132 3737,-348 1303,-215 2865,-546 4343,-952 1478,-407 2874,-891 4126,-1376 1251,-486 2359,-973 3352,-1409 992,-436 1868,-819 2774,-1203 907,-384 1843,-768 2864,-1069 1021,-301 2127,-519 3246,-548 1119,-30 2251,128 3371,501 1120,373 2228,961 3272,1641 1044,679 2023,1450 3002,2221 -1839,-943 -3677,-1886 -5356,-2457 -1679,-571 -3197,-770 -4664,-620 -1468,150 -2883,650 -4296,1257 -1413,607 -2823,1323 -4609,2141 -1786,818 -3948,1740 -6156,2506 -2209,766 -4464,1375 -6367,1750 -1904,375 -3455,515 -4949,536 -1494,22 -2932,-75 -4501,-362 -1568,-286 -3268,-761 -4887,-1411 -1618,-649 -3155,-1474 -4599,-2402 -1445,-927 -2798,-1959 -3988,-3006 -1191,-1047 -2219,-2110 -3363,-3602 -1145,-1492 -2404,-3414 -3664,-5336z"/>
  <path class="fil2" d="M3508 68883c1378,-16 2756,-31 4512,-207 1757,-176 3893,-513 6165,-1390 2272,-878 4681,-2295 7193,-4262 2511,-1966 5125,-4481 7376,-6615 2250,-2134 4137,-3886 5977,-5400 1840,-1514 3634,-2790 5372,-3739 1737,-949 3418,-1572 4885,-1857 1467,-285 2720,-232 4213,195 1493,427 3226,1228 4757,2139 1530,911 2857,1932 4158,3017 1301,1084 2577,2233 3852,3381 101,7393 202,14787 303,22181 -1035,-821 -2070,-1642 -3196,-2419 -1126,-777 -2344,-1510 -3576,-1958 -1233,-448 -2480,-611 -3624,-620 -1144,-9 -2183,135 -3205,450 -1021,316 -2025,804 -3114,1303 -1088,499 -2262,1009 -3624,1568 -1362,559 -2913,1166 -4469,1646 -1556,479 -3117,832 -4498,1137 -1381,306 -2581,565 -4242,697 -1662,133 -3784,138 -5572,51 -1788,-86 -3242,-265 -4704,-571 -1462,-307 -2933,-741 -4314,-1285 -1381,-543 -2671,-1196 -3870,-1908 -1199,-712 -2307,-1482 -3418,-2415 -1110,-932 -2224,-2026 -3337,-3119z"/>
  <path class="fil3" d="M-3 35514c832,-1105 1663,-2209 2398,-3175 734,-965 1372,-1792 2137,-2604 766,-812 1659,-1609 2498,-2165 839,-556 1624,-870 2462,-962 839,-92 1731,39 2552,375 822,336 1573,877 2525,1955 952,1077 2106,2691 3018,4165 912,1474 1583,2808 2319,4410 735,1602 1535,3472 2236,5160 701,1689 1302,3198 1866,4611 563,1414 1090,2733 1637,4067 547,1334 1115,2683 1651,3898 536,1215 1040,2297 1932,3851 892,1555 2171,3583 3271,4954 1099,1371 2019,2084 3035,2486 1017,402 2131,493 3435,296 1306,-196 2802,-679 4259,-1224 1456,-546 2873,-1154 3958,-1579 1085,-425 1839,-667 2748,-793 908,-125 1970,-134 3020,173 1051,307 2090,930 3093,1953 1002,1024 1969,2447 3000,4341 1031,1893 2128,4256 3224,6619 -809,-566 -1618,-1132 -2516,-1761 -898,-628 -1885,-1319 -2486,-1704 -600,-385 -814,-464 -1473,-706 -658,-243 -1760,-649 -2999,-748 -1239,-98 -2615,110 -3904,444 -1290,334 -2494,794 -3707,1285 -1213,491 -2437,1014 -3862,1601 -1426,587 -3053,1238 -4997,1819 -1945,582 -4206,1094 -6192,1375 -1985,281 -3694,330 -5451,288 -1756,-41 -3560,-173 -5424,-524 -1864,-351 -3788,-921 -5384,-1533 -1596,-613 -2864,-1267 -4121,-2060 -1257,-794 -2504,-1727 -3583,-2664 -1078,-937 -1989,-1878 -2990,-3010 -1001,-1131 -2093,-2452 -3185,-3773 0,-9714 0,-19427 0,-29141z"/>
 </g>
</svg>
