<?xml version="1.0" encoding="UTF-8"?>
<!DOCTYPE svg PUBLIC "-//W3C//DTD SVG 1.1//EN" "http://www.w3.org/Graphics/SVG/1.1/DTD/svg11.dtd">
<!-- Creator: CorelDRAW 2020 (64 Bit) -->
<svg xmlns="http://www.w3.org/2000/svg" xml:space="preserve" width="3508px" height="2480px" version="1.1" style="shape-rendering:geometricPrecision; text-rendering:geometricPrecision; image-rendering:optimizeQuality; fill-rule:evenodd; clip-rule:evenodd"
viewBox="0 0 350800 248040"
 xmlns:xlink="http://www.w3.org/1999/xlink"
 xmlns:xodm="http://www.corel.com/coreldraw/odm/2003">
 <defs>
  <style type="text/css">
   <![CDATA[
    .fil1 {fill:#3D2D00}
    .fil0 {fill:#F05033}
   ]]>
  </style>
 </defs>
 <g id="Camada_x0020_1">
  <metadata id="CorelCorpID_0Corel-Layer"/>
  <g id="_829251184">
   <path class="fil0" d="M55556 68332l16426 16623c4163,-585 8419,-641 11585,2850 3800,4189 2663,7874 2379,11297l16048 15860 4844 -286c4646,0 9497,4852 9497,9497 0,3888 44,5973 -3307,9229 -3927,3815 -10533,3970 -14899,-139l-1237 -1423c-3607,-4789 -1698,-8101 -1450,-11086 -2730,-1828 -12952,-13836 -15194,-14435l0 39127c1475,987 2899,1659 3968,3248 5235,7780 461,17644 -8907,17644 -12886,0 -13544,-18622 -3798,-20892l0 -40266c-1891,-158 -3719,-2104 -4789,-3569 -2833,-3874 -2151,-6787 -1289,-10487l-16241 -16428c-1843,1267 -36998,36808 -41405,41215 -3794,3795 -4653,3754 -4653,9402 0,4585 4612,7840 7122,10351l44445 44445c3069,3068 5859,5858 8927,8927 5879,5879 6132,7692 12821,7692 2855,0 4301,-1425 5795,-2942l62490 -62487c2225,-2184 2751,-3378 2751,-7126 0,-4621 -4772,-8001 -7313,-10541l-53752 -53752c-3889,-3890 -5777,-7502 -11871,-7502 -4585,0 -7840,4612 -10351,7122 -2144,2145 -7232,6727 -8642,8832z"/>
   <path class="fil1" d="M194968 164819l17694 1300c7407,1114 14215,-847 14215,5918 0,7911 -17095,6837 -22792,6837 -5828,0 -14491,-2049 -11895,-9225 717,-1982 2415,-3469 2778,-4830zm16335 -39506l-3419 0c-14529,0 -14585,-23552 1519,-23552l2280 0c14871,0 14697,23552 -380,23552zm-33809 -13296c0,6359 -159,10310 3640,16114 2111,3225 4386,5275 7756,7058 -4255,6354 -12155,8097 -12155,17854 0,4119 2967,6532 5698,7977 -3351,5004 -7218,4711 -7218,15195 0,14650 22792,16334 34188,16334 10266,0 19015,-1657 25964,-5185 7733,-3925 12403,-10450 12403,-20646 0,-15255 -13180,-18245 -25451,-18993 -2558,-156 -5875,-634 -8356,-761 -5898,-304 -11047,-759 -17095,-759 190,-2289 3170,-4866 3798,-7217 15493,3609 35555,-68 39823,-17158 1227,-4915 1007,-8977 -743,-13564 -854,-2240 -2102,-4229 -3372,-6125l6354 -484c1749,-237 4397,-240 6182,-656l0 -11776 -25452 0c-2058,0 -3669,-668 -5853,-984 -13902,-2012 -29912,546 -37061,12771 -1315,2249 -3050,7456 -3050,11005z"/>
   <path class="fil1" d="M292975 87706l0 12535c12174,0 10707,-931 10643,3792l-9 34957c-34,6452 1543,12024 4839,15294 1798,1784 3218,3032 5933,3944 11005,3694 24701,1005 34435,-3666l-3799 -12535c-4240,2034 -20133,6083 -20133,-5698l0 -36088 20513 0 0 -12915c0,-876 -265,-1140 -1140,-1140l-19373 0 0 -19753c0,-875 -265,-1140 -1140,-1140l-12536 0c0,7985 -2956,16694 -10125,20265 -2136,1064 -5113,2148 -8108,2148z"/>
   <path class="fil1" d="M254988 99102c4370,2312 9117,1772 9117,5318 0,6782 562,38880 -380,42925 -2154,502 -6196,1140 -8737,1140l0 11396 39506 0c0,-13121 1042,-11102 -4156,-11798 -1514,-203 -3492,-616 -4961,-738l2 -55082c31,-5328 965,-4558 -6459,-4557 -7471,0 -14942,0 -22413,0 -570,2445 -1519,8634 -1519,11396z"/>
   <path class="fil1" d="M260306 63394l0 2279c0,12605 15934,13737 21381,8465 3819,-3696 3690,-6221 3690,-11124 0,-6069 -5242,-10636 -10256,-10636l-3517 0c-3000,83 -5766,605 -8372,3306 -1636,1696 -2926,4566 -2926,7710z"/>
  </g>
 </g>
</svg>
