<?xml version="1.0" encoding="UTF-8"?>
<!DOCTYPE svg PUBLIC "-//W3C//DTD SVG 1.1//EN" "http://www.w3.org/Graphics/SVG/1.1/DTD/svg11.dtd">
<!-- Creator: CorelDRAW 2020 (64 Bit) -->
<svg xmlns="http://www.w3.org/2000/svg" xml:space="preserve" width="3508px" height="2480px" version="1.1" style="shape-rendering:geometricPrecision; text-rendering:geometricPrecision; image-rendering:optimizeQuality; fill-rule:evenodd; clip-rule:evenodd"
viewBox="0 0 350800 248040"
 xmlns:xlink="http://www.w3.org/1999/xlink"
 xmlns:xodm="http://www.corel.com/coreldraw/odm/2003">
 <defs>
  <style type="text/css">
   <![CDATA[
    .str0 {stroke:#58AA50;stroke-width:236;stroke-miterlimit:22.9256}
    .fil3 {fill:#412B20}
    .fil4 {fill:#422B20}
    .fil0 {fill:#4FA150}
    .fil6 {fill:#58AA50}
    .fil1 {fill:#8B6E4C}
    .fil2 {fill:#8D704D}
    .fil5 {fill:#9F9E81}
   ]]>
  </style>
 </defs>
 <g id="Camada_x0020_1">
  <metadata id="CorelCorpID_0Corel-Layer"/>
  <g id="_1146987248">
   <path class="fil0" d="M27328 155884l1621 -8659c435,874 -115,-715 798,1915 194,559 386,1423 603,2079 665,2008 1105,2666 1906,3816 5094,-2957 10998,-10649 13807,-16098 9725,-18855 3071,-40727 -11266,-56685 -3740,-4163 -4120,-6888 -6584,-8693 -1313,5638 -19017,14764 -20369,40621l0 5792c818,15223 8090,28064 19484,35912z"/>
   <path class="fil1" d="M329505 149094c-2860,0 -5941,-1500 -5941,-4243l0 -13580 5092 0c14562,0 14365,17823 849,17823zm2546 -22066l-8487 0c0,-14115 -2145,-15850 7437,-13408 7928,2020 6235,13408 1050,13408zm-22066 -14428c3351,0 3444,267 5941,848l0 34798c-4465,1040 -5573,-182 -5941,4243 10573,0 37343,3489 37343,-13579 0,-5554 -3914,-9119 -8487,-10185 1218,-4560 5092,-2950 5092,-10184 0,-11408 -17438,-9233 -25479,-9354 -6388,-97 -7226,-1417 -8469,3413z"/>
   <path class="fil2" d="M283675 149094c-3516,0 -8487,-747 -8487,-4243l0 -29705c0,-1956 590,-2546 2546,-2546 29345,0 23543,36494 5941,36494zm-22915 -36494c9723,0 6789,2313 6789,33099 0,3902 -3382,2121 -5941,5942 3245,1823 18294,848 22916,848 5859,0 11470,-3493 14663,-6554 11229,-10766 8368,-31889 -8489,-36115l-24947 -716c-4549,96 -4043,-191 -4991,3496z"/>
   <path class="fil3" d="M62162 127877c2633,613 2458,1083 5092,1697l0 19520c-2292,191 -2309,398 -4244,849l0 2546c2987,0 6462,-162 9390,46 3944,280 5504,2007 5887,-2592 -3335,-74 -1991,232 -4244,-849l0 -18671c1365,-318 11882,-5696 11882,4243 0,15736 1225,15155 -4243,15277l0 2546c1840,760 7935,0 11033,0 3071,0 1554,2319 4243,-1697 -2505,-1202 -2719,-957 -5092,-2546l0 -17823c448,-105 11882,-5692 11882,4243 0,14825 1250,14891 -3395,15277l0 2546c4571,0 12502,796 14429,0l0 -2546c-2292,-191 -2309,-398 -4244,-849 0,-6225 2395,-25461 -8487,-25461 -6354,0 -6567,3051 -11033,4244 -4562,-3055 -5100,-7952 -16975,0l0 -4244c-4961,1156 -10028,1714 -11881,4244z"/>
   <path class="fil3" d="M198804 160128c0,-6924 5567,-5941 11033,-5941 7488,0 12615,11033 -4243,11033 -3102,0 -6790,-2342 -6790,-5092zm1697 -25462l849 -6789c4663,-1087 10184,-1667 10184,5941 0,11683 -11033,8183 -11033,848zm0 9336c-1015,1385 -3593,3240 -5092,4244 1479,2795 824,3330 4243,4243 -1096,1638 -12093,7557 -3579,14613 6900,5718 26972,1255 26252,-11140 -425,-7315 -8526,-7256 -15106,-7644 -3721,-219 -3868,182 -4172,-3467 13737,0 14428,-8262 14428,-15277 4931,0 4985,-248 5093,-5092 -9730,2266 -8083,-849 -15277,-849 -15431,0 -16938,17659 -6790,20369z"/>
   <path class="fil4" d="M153822 126179c2606,9760 5092,-8560 5092,18672 0,5610 -2256,2743 -3803,5706 -1765,3382 1739,2162 4583,1990 2456,-149 8053,513 8722,344 3246,-823 2365,-3683 -2712,-3797 0,-18642 -2573,-22492 10185,-19520 2484,5178 1697,10103 1697,16974 0,5114 -3693,-678 -4244,5941l15277 0c-305,-3665 -479,-3311 -4243,-3395 0,-16233 139,-34382 -19521,-21217 603,-2589 1014,-2052 0,-4244 -1850,154 -9794,1952 -11033,2546z"/>
   <path class="fil4" d="M233601 136364c0,-15250 16125,-10331 16125,3394 0,15246 -16125,13039 -16125,-3394zm-6790 0c0,5336 111,8654 3988,12986 7492,8370 25717,3254 25717,-11289 0,-20772 -29705,-17159 -29705,-1697z"/>
   <path class="fil4" d="M125815 139758c0,-4040 -938,-12730 5941,-12730 12478,0 12938,22915 3394,22915 -4764,0 -9335,-5611 -9335,-10185zm-6790 -2545c0,22483 27051,20110 29398,2219 2702,-20594 -29398,-20766 -29398,-2219z"/>
   <path class="fil5" d="M27328 155884c133,3399 562,3227 831,6844 276,3727 -288,3878 3449,4189 0,-4962 198,-8126 648,-11882 -801,-1150 -1241,-1808 -1906,-3816 -217,-656 -409,-1520 -603,-2079 -913,-2630 -363,-1041 -798,-1915l-1621 8659z"/>
  </g>
  <path class="fil6 str0" d="M30636 114419c-17,12085 -852,22446 -1540,29069 -687,6624 -1228,9510 -1768,12396 -2782,-2491 -5564,-4981 -7846,-7507 -2281,-2526 -4062,-5087 -6273,-8989 -2210,-3901 -4850,-9144 -5586,-16274 -737,-7130 430,-16147 2610,-22778 2180,-6630 5373,-10874 8679,-14746 3305,-3872 6722,-7373 8431,-9124 1708,-1750 1708,-1750 1708,-1750 801,13809 1602,27618 1585,39703z"/>
 </g>
</svg>
