<?xml version="1.0" encoding="UTF-8"?>
<!DOCTYPE svg PUBLIC "-//W3C//DTD SVG 1.1//EN" "http://www.w3.org/Graphics/SVG/1.1/DTD/svg11.dtd">
<!-- Creator: CorelDRAW 2020 (64 Bit) -->
<svg xmlns="http://www.w3.org/2000/svg" xml:space="preserve" width="3508px" height="2480px" version="1.1" style="shape-rendering:geometricPrecision; text-rendering:geometricPrecision; image-rendering:optimizeQuality; fill-rule:evenodd; clip-rule:evenodd"
viewBox="0 0 350800 248040"
 xmlns:xlink="http://www.w3.org/1999/xlink"
 xmlns:xodm="http://www.corel.com/coreldraw/odm/2003">
 <defs>
  <style type="text/css">
   <![CDATA[
    .str0 {stroke:#6ABE49;stroke-width:236;stroke-miterlimit:22.9256}
    .fil0 {fill:#333333}
    .fil6 {fill:#409A34}
    .fil5 {fill:#41883E}
    .fil4 {fill:#42893F}
    .fil2 {fill:#529D42}
    .fil1 {fill:#539E43}
    .fil3 {fill:#64B648}
    .fil7 {fill:url(#id0)}
    .fil8 {fill:url(#id1)}
   ]]>
  </style>
  <linearGradient id="id0" gradientUnits="userSpaceOnUse" x1="144825" y1="137605" x2="104863" y2="136484">
   <stop offset="0" style="stop-opacity:1; stop-color:#41873F"/>
   <stop offset="1" style="stop-opacity:1; stop-color:#6ABE49"/>
  </linearGradient>
  <linearGradient id="id1" gradientUnits="userSpaceOnUse" xlink:href="#id0" x1="144825" y1="137605" x2="104863" y2="136484">
  </linearGradient>
 </defs>
 <g id="Camada_x0020_1">
  <metadata id="CorelCorpID_0Corel-Layer"/>
  <path class="fil0" d="M209033 114649c0,-15520 -1522,-11588 5553,-15817 7456,-4457 5597,-4245 13268,334 6059,3616 5220,592 5220,14815 0,2778 -11575,8349 -11575,8349 -1743,289 -6962,-3447 -9835,-4970 -1493,-792 -2631,-722 -2631,-2711zm12020 -47414c-2551,0 -7731,3385 -10403,4956 -3405,2002 -6453,3845 -9665,5694 -3376,1943 -6215,3681 -9754,5606 -3715,2020 -7575,3586 -7575,7785l0 35393c0,2412 1053,3704 2536,4811l24562 14170c11593,6814 8043,7698 29455,-5167 3273,-1967 5940,-3514 9331,-5361 2095,-1141 8243,-4161 8243,-6449l0 -95497c0,-2033 -2605,-3627 -4212,-4469 -24925,-13073 -20497,-19002 -20497,23836 0,2351 225,16928 -147,17956 -1507,4162 -7651,-3264 -11874,-3264z"/>
  <path class="fil0" d="M5351 88604l0 50754c0,4718 4536,1630 6050,717l13603 -7777c2884,-1672 4758,-1521 5075,-5610 1467,-18931 -3711,-23310 4189,-27866 8755,-5049 6349,-5664 14035,-1080 8440,5034 5742,3339 5761,26294 6,7705 5563,8260 16698,14689 2131,1230 4255,3044 7381,3304 694,-1312 1335,-1969 1335,-4007l0 -46746c0,-5965 -2826,-5884 -6556,-8136 -3298,-1990 -6235,-3766 -9700,-5659 -21513,-11752 -17733,-13923 -29857,-6942 -3326,1915 -6326,3654 -9777,5583 -3537,1977 -6323,3525 -9766,5594 -2354,1414 -8471,4075 -8471,6888z"/>
  <path class="fil0" d="M273810 88604l0 39401c0,3030 13013,9232 17079,11637 20659,12221 17220,12972 31132,4519 7597,-4615 14051,-5725 9922,-9511 -57,-52 -1968,-1244 -2050,-1290l-27608 -15799c-4956,-2578 -3766,-1336 -3766,-14933 0,-2370 11349,-7346 11353,-7346 2767,0 10566,5258 12688,6679 0,14515 -2190,15224 13648,5633 12812,-7758 11061,-3813 11061,-17654 0,-4283 -5653,-5967 -12142,-9896l-19032 -11019c-7098,-4340 -5490,-3483 -24638,7843l-13941 8097c-1677,962 -3706,1509 -3706,3639z"/>
  <path class="fil1" d="M124221 70971c1522,906 935,495 994,3538l-238 59965c-651,2528 954,-302 -685,1260 1225,5061 5015,9473 7382,14309 2273,-203 18411,-9033 20340,-11353l15 -36951c1748,982 430,-13 1721,1415l2090 3766c2143,-4708 10273,-16782 11226,-20319l-21193 -12302c-3711,-2182 -6767,-4095 -10505,-6200 -2099,-1181 -3540,-1823 -5804,-937l-3878 2224c-1545,1318 -455,272 -1465,1585z"/>
  <path class="fil2" d="M136910 168073l0 36062c0,4992 4126,6217 7311,8048 2168,1248 7548,4640 10719,4640 5871,0 10017,-4047 10017,-10017l0 -34058c0,-2777 -2474,-2671 -4006,-2671 -3644,0 -2694,4940 -2674,8679l5 22710c35,6567 967,8679 -4009,8679 -3823,0 -7404,-4422 -11353,-5342l0 -36730 31387 -17737c1228,0 13281,7246 15798,8617l15589 9120 0 36730c-2595,604 -5351,2846 -7808,4213 -28543,15883 -20169,14814 -30537,9343 -1956,-1032 -1504,-890 -3493,-50 -1298,548 -3118,1314 -4241,1854 1480,2209 11025,7396 12764,7991 4520,1545 9202,-2719 14387,-5550l20314 -11740c2302,-1347 4624,-2445 4624,-6061l0 -36730c0,-5550 -10342,-9464 -16733,-13317 -3254,-1962 -6239,-3697 -9750,-5610 -12905,-7030 -8878,-8153 -35332,7866 -5605,3395 -12979,5821 -12979,11061z"/>
  <path class="fil3" d="M96841 86390c1350,1650 4841,8348 6072,10799 1774,3531 3934,7566 5978,10622l22783 42232c1639,-1562 35319,-17874 35970,-20402 -4456,-5789 -34932,-62692 -35074,-62777 -2787,-145 -19512,9851 -22144,11284 -2527,1377 -4211,2600 -6700,3985 -2020,1123 -5627,2905 -6885,4257z"/>
  <path class="fil1" d="M168296 180094c0,2405 1700,5053 3188,6162 5019,3743 21521,2377 21521,6526 0,4577 -4143,5343 -8681,5343 -16764,0 -5218,-9352 -16695,-6678 -3363,15877 32054,17492 32054,2003 0,-14034 -24708,-8417 -24708,-13356 0,-5471 5126,-4675 10017,-4675 4887,0 6428,2073 7346,6011l6010 0c0,-12167 -10355,-12021 -17363,-12021 -7135,0 -12689,3592 -12689,10685z"/>
  <path class="fil4" d="M152014 138690c3413,-767 8154,-4446 11405,-6213 6453,-3508 4884,-3186 4877,-12486 -3,-5573 1069,-30345 -1230,-33390 -953,3537 -9083,15611 -11226,20319l-2090 -3766c-1291,-1428 27,-433 -1721,-1415l-15 36951z"/>
  <path class="fil5" d="M96375 130008l601 617c3545,3052 32612,19255 34698,19418 -2367,-4836 -6157,-9248 -7382,-14309l-15401 -27923c-2673,2106 -4725,8192 -6407,11077l-6109 11120z"/>
  <path class="fil6" d="M96375 130008l6109 -11120c1682,-2885 3734,-8971 6407,-11077 -2044,-3056 -4204,-7091 -5978,-10622 -1231,-2451 -4722,-9149 -6072,-10799l-1896 1663 425 40796c672,1259 75,305 1005,1159z"/>
  <path class="fil1" d="M303193 105300l0 6010c0,2060 5824,5043 7351,5045 487,0 7341,-2619 7341,-5045 0,-8837 553,-6883 -3022,-9003 -1470,-871 -2930,-2053 -4319,-2052 -1527,1 -7351,2984 -7351,5045z"/>
  <path class="fil7 str0" d="M131674 150043c298,-27726 597,-55452 896,-83179 -12542,7063 -25084,14126 -37625,21189 12243,20663 24486,41327 36729,61990z"/>
  <path class="fil8" d="M132002 66864c11880,20926 23761,41852 35642,62777 -11990,6801 -23980,13601 -35970,20402 109,-27726 219,-55452 328,-83179z"/>
 </g>
</svg>
