<?xml version="1.0" encoding="UTF-8"?>
<!DOCTYPE svg PUBLIC "-//W3C//DTD SVG 1.1//EN" "http://www.w3.org/Graphics/SVG/1.1/DTD/svg11.dtd">
<!-- Creator: CorelDRAW 2020 (64 Bit) -->
<svg xmlns="http://www.w3.org/2000/svg" xml:space="preserve" width="297mm" height="210mm" version="1.1" style="shape-rendering:geometricPrecision; text-rendering:geometricPrecision; image-rendering:optimizeQuality; fill-rule:evenodd; clip-rule:evenodd"
viewBox="0 0 29700 21000"
 xmlns:xlink="http://www.w3.org/1999/xlink"
 xmlns:xodm="http://www.corel.com/coreldraw/odm/2003">
 <defs>
  <style type="text/css">
   <![CDATA[
    .str3 {stroke:#576B91;stroke-width:20;stroke-miterlimit:22.9256}
    .str0 {stroke:#585570;stroke-width:20;stroke-miterlimit:22.9256}
    .str1 {stroke:#ADB5C5;stroke-width:20;stroke-miterlimit:22.9256}
    .str2 {stroke:#CCE7D4;stroke-width:20;stroke-miterlimit:22.9256}
    .fil3 {fill:#566A8F}
    .fil4 {fill:#576B91}
    .fil0 {fill:#585570}
    .fil1 {fill:#ADB5C5}
    .fil2 {fill:#CCE7D4}
   ]]>
  </style>
 </defs>
 <g id="Camada_x0020_1">
  <metadata id="CorelCorpID_0Corel-Layer"/>
 </g>
 <g id="Camada_x0020_1_1">
  <metadata id="CorelCorpID_1Corel-Layer"/>
  <path class="fil0 str0" d="M12095.22 17376.53c23.7,-28.1 539.57,-319.19 621.66,-365.98 36.31,-20.71 41.6,-16.95 76.95,3.15l548.83 314.79c-21.59,24.03 -256,156.21 -303.5,183.62l-313.57 185.46c-49.34,26.83 -45.03,6.56 -156.81,-54.29 -52.2,-28.4 -99.86,-57.7 -155.99,-88.29 -105.19,-57.37 -219.22,-119.47 -317.57,-178.46zm844.18 -498.54c34.41,-38.05 559.86,-328.97 621.67,-366.97 51.4,-31.6 47.72,-12.03 156.66,49.02 50.81,28.44 106.59,59.64 157.36,87.33 52.26,28.52 292.52,158.53 312.4,183.07l-618 367.45c-36.38,20.57 -36.26,12.82 -75.57,-9.33l-554.52 -310.57zm-1643.49 27.59c27.7,-28.13 1290.32,-754.11 1454.65,-847.13 54.13,-30.63 84.37,-71.25 139.23,-33.44 148.84,102.62 341.7,212.2 480.77,308.78l33.76 26.77 -1441.29 855.73c-81.55,49.07 -54.41,42.44 -136.7,-5.24 -85.39,-49.5 -175.36,-103.46 -261.54,-151.85 -87.44,-49.11 -183.52,-114.16 -268.88,-153.62zm2523.45 -513.25c13.6,-18.81 -1.11,-3.29 16.22,-17.82l601.75 -349.68c57.1,-34.69 99.63,11.71 157.21,43.92 52.74,29.45 103.27,58.59 155.89,88.34l317.11 184.69 -615.63 366.39c-45.97,26.69 -44.63,12.81 -153.97,-51.54l-478.58 -264.3zm-3435.15 33.65c129.92,-62.89 690.86,-400.53 846.32,-487.35 70.63,-39.46 135.34,-78.33 208.93,-120.17 89.67,-51.01 32.47,-53.47 209.04,48.17l315.38 192.03c17.55,10.78 35.49,21.71 52.56,32.01 9.37,5.66 14.37,8.14 23.2,14.36l24.16 20.62c-61.6,43.57 -142.01,83.77 -206.06,120.61 -258.55,148.82 -592.7,330.62 -835.2,480.55 -72.46,44.82 -53.14,25.88 -213.42,-58.5 -74.39,-39.17 -140.31,-76.23 -211.2,-117.62 -62.13,-36.3 -168.29,-82.53 -213.71,-124.71zm-1045.15 -414.83l627.54 -359.29c79.32,-46.53 69.55,-22.13 155.06,22.01l477.44 263.82 -620.34 384.32c-68.22,42.51 -79.84,11.65 -154.86,-31.09 -49.67,-28.28 -456.53,-246.99 -484.84,-279.77zm3699.12 -105.88l618.99 -360.04c60.38,-34.62 95.85,10.65 156.89,44.66l474.63 270.41 -304.15 182.28c-106.65,65.25 -209.88,123.51 -313.84,185.22 -46.82,27.77 -39.45,15.17 -153.32,-49.93 -54.31,-31.04 -106.79,-60.98 -161.81,-91.82l-317.39 -180.78zm-1393.9 -202.53l767.61 -446.57 547.76 330.45c-26.4,28.08 -126.36,85.35 -161.29,106.06l-493.15 305.7c-107.36,67.43 -49.97,70.42 -327.92,-94.07 -52.94,-31.32 -311.19,-173.86 -333.01,-201.57zm-3030.29 -93.97l64.92 -41.77c97.94,-55.59 587.06,-354.15 620.25,-347.74 10.16,1.97 122.45,66.03 139.34,75.84 40.24,23.39 248.44,135.16 279.85,163.32l-273.93 160.15c-444.99,250.36 -354.85,268.21 -548.06,152.67 -91.57,-54.78 -202.22,-102.68 -282.37,-162.47zm1573.45 -84.55l621.52 -364.26c87.44,-53.38 134.28,11.75 318.02,109.65l320.5 180.69 -620.57 376.02c-61.52,40.2 -51.04,35.4 -161.52,-29.34 -54.19,-31.74 -107.16,-60.2 -162.23,-91.36 -53.19,-30.08 -105.46,-57.52 -156.72,-87.65 -38.38,-22.59 -133.89,-68.89 -159,-93.75zm3696.4 -112.79l613.79 -359.76c44.93,-25.15 46.66,-19.37 86.11,3.22l234.32 132.62c62.33,33.72 273.59,160.77 314.17,173.62 -29.83,37.55 -595.83,361.38 -619.41,374.18 -35.63,19.31 -47.54,12.1 -82.89,-9.53 -30.12,-18.48 -48.47,-28.31 -77.55,-44.71 -82.91,-46.77 -443.46,-244.37 -468.54,-269.64zm-802.9 142.99l-435.38 -252.8c-46.43,-27.06 -103.88,-66.85 -148.17,-84.78 7.61,-8.24 5.55,-6.71 16.1,-15.21l648.05 -376.74c81.39,-46.18 79.19,-78.3 164.83,-25.45l491.22 305.11c-43.5,14.47 -660.95,407.15 -736.65,449.87zm-3605.7 -452.86l271.24 -158.33c487.53,-282.96 360.1,-257.38 553.44,-152.61l279.71 160.34c-27.34,31.53 -470.74,274.89 -550.46,321.77 -158.51,93.17 -102.64,84.51 -276.38,-10.5 -51.64,-28.23 -248.18,-132.44 -277.55,-160.67zm1612.09 -87.27c43.26,-15.82 111.71,-62.52 156.02,-87.1 54.66,-30.33 101.35,-58.72 154.63,-89.65 426.13,-247.2 335.84,-228.5 471.76,-160.12 53.55,26.95 108.73,57.57 159.05,85.42 53.52,29.62 103.34,56.6 157.43,86.55l122.68 65.46c29.09,15.58 19.17,3.55 38.04,26.71l-621.46 383.35c-59.68,38.3 -31.77,35.15 -153.15,-30.71 -53.53,-29.06 -107.39,-61.41 -162.01,-91.51 -32.39,-17.84 -293.08,-155.89 -322.99,-188.4zm2282.4 -307.67c45.9,-34.45 105.67,-66 159.83,-96.31l494.08 -285.8c77.14,-45.25 90.34,-79.82 166.79,-31.85 50.52,31.72 465.89,271.77 491.25,301.21l-649.46 406.02c-114.4,69.41 -53.13,67.67 -327.22,-90.55l-335.27 -202.72zm-3034.3 -114.94l275.73 -155.91c468.26,-273.36 365.18,-257.51 552.14,-151.42l283.39 156.65c-1.72,1.78 -4.46,1.93 -5.35,5.16 -0.87,3.22 -4.14,4.01 -5.37,5.02l-541.03 315.26c-157.67,93.09 -119.94,82.61 -279.7,-9.4 -40.46,-23.3 -250.27,-132.69 -279.81,-165.36zm1655.02 -92.71l310.84 -177.25c103.72,-62.33 208.58,-120.31 316,-182.3 84.41,-48.72 61.88,-25.4 154.47,21.25 77.33,38.99 458.9,242.57 478.63,264.05l-622.35 383.89c-56.03,35.83 -35.78,36.02 -152.94,-31.67 -53.4,-30.87 -107.53,-60.59 -162.6,-91.12 -56.09,-31.15 -290.26,-154.48 -322.05,-186.85zm-722.15 -403.84c34.93,-31.84 90.37,-56.92 132.77,-81.76 46.34,-27.15 89.1,-53.25 136.23,-79.76 462.52,-260.35 359.54,-272.78 555.96,-156.37 66.93,39.67 221.09,133.27 287.15,155.94 -15.83,22.94 -33.12,29.71 -64.14,46.41l-208.48 120.25c-90.96,51.27 -184.03,103.67 -275.21,157.3 -30.53,17.96 -114.76,73.72 -140.37,70.72l-423.91 -232.73zm4641.67 -2684.9c26.27,-30.35 269.36,-160.66 336.64,-200.73 153.64,-91.5 109.21,-87.63 231.05,-21.59l331.53 191.37c-25.03,17.4 -140.89,87.86 -175.48,90.22 -63.2,4.25 -692.78,-52.35 -723.74,-59.27zm-1934.44 -716.32l814.9 -469.1c35.9,-20.42 81.9,-51.49 116.2,-63.06l-455.5 1100.54c83.1,-5.65 238.1,0.89 301.4,16.89 55.35,13.96 91.06,2.72 148.6,11.58 119.59,18.4 105.38,11.5 113.1,35.39l75.17 18.29 802.54 62.73c-37.63,53.67 -143.94,74.53 -188.94,125.88l377.71 210.41c50.74,29.78 52.31,22.6 102.1,-6.48l275.38 -157.26c48.84,-29.63 137.62,-89.47 186.89,-100.3 81.79,-18 708.12,45.64 813.44,55.84 -36.81,-51.76 -121.46,-63.05 -165.33,-107.12 88.68,-53.45 178.89,-103.23 272.48,-158.54 46.32,-27.41 89.78,-51.57 137.62,-78.71 47.81,-27.13 87.89,-56.18 135.35,-73.36l0 -11.52 -200.7 -197.86 47.37 -35.64c-25.75,-31.74 -142.48,-94.06 -186.15,-108.22l127.22 135.93c-34.77,35.23 -446.9,263.74 -525.18,308.82 -49.6,28.58 -82.36,66.78 -130.21,40.76l-394.8 -226.93c30.13,-29.45 171.9,-103.29 218.1,-130.17 72.95,-42.46 140.35,-82.02 213.42,-124.66 37.42,-21.81 74.09,-42.34 113.38,-65.28 209.39,-122.08 99.18,-63.78 329.56,32.92 -18.35,-43.45 -164.65,-175.84 -207.86,-218.95 -57.31,-57.14 -43.28,-53.71 -44.18,-161.08 -0.59,-69.3 -4.05,-131.88 -6.78,-197.16 -11.4,-274.39 -16.27,-545.73 -22.33,-818.39 51.86,25.36 1735.56,1325.53 1763.77,1347.05l1316.23 1014.29c79.24,61.1 86.99,48.08 85.66,101.93 -3.36,133.88 -22.18,472.11 -13.29,564.47l-2.91 25.08 -15.35 263.67 248.24 -141.46c39.63,14.12 525.17,336.47 549.88,356.51l-401.88 235.06c-405.73,227.46 -226.5,157.96 -402.59,85.31l-6.17 200.22c-83.36,-4.3 -120.54,-47.12 -174.88,-82l-295.54 -193.2c-197.25,-127.09 -95.03,-124.67 -391.65,43.72 -59.79,33.96 -184.03,96.83 -227.96,134.41 42.63,-1.11 10.14,-3.62 23.07,10.39l985.33 80.46 -371.86 222.06c32.45,55.28 64.97,70.47 87.91,99.81l217.1 253.36c9.4,15.43 21.96,32.77 29.3,45.64l49.6 101.94c18.96,56.59 8.2,49.6 36.38,113.32 47.46,107.28 54.71,340.34 -3.32,449.04l-12.28 25.05c-44.23,98.06 -16.68,71.54 -81.89,135.78 -1.36,1.36 -3.3,3.38 -4.69,4.75l-14.06 14.04c-1.35,1.39 -3.24,3.42 -4.6,4.81 -29.46,30.22 -142.97,102.17 -186.2,116.81l-63.69 29.68c-2.24,0.93 -4.53,2.02 -6.9,2.84 -36.99,12.77 -62.25,2 -92.7,22.05 29.75,26.71 109.43,68.91 151.34,94.87 57.03,35.32 103.76,64.17 163.05,100.33l323.68 198.63c-24.34,29.97 -509.66,299.36 -588.58,347.03 -98.95,59.75 -197.64,112.52 -297.35,172.51 -99.15,59.64 -195.92,115.35 -297.16,172.66 -597.26,338.04 -1192.35,701.29 -1790.01,1038.54 -54.26,30.61 -96.76,55.05 -148.61,86.32 -28.12,16.95 -125.6,80.76 -150.86,77.5 -16.03,-2.07 -258.89,-150.01 -296.88,-172.41 -74.81,-44.11 -1145.64,-669.93 -1181.32,-707.05l568.07 -324.6c464.26,-276.91 958.24,-547.78 1430.95,-824.32 96.83,-56.67 185.67,-111.24 283.59,-164.71 -15.72,-17.73 2.02,-5.18 -26.67,-15.22 -7.82,-2.74 -36.1,-7.21 -39.55,-7.61 -58.09,-6.69 -166.46,0.55 -262.51,-10.02 -56.05,-6.18 -128.56,-1.42 -170.49,-7.84 -64.98,-9.94 -97.43,-15.15 -171.96,-10.19 -233.65,121.27 -717.51,408.45 -965.55,553.62 -322.25,188.57 -657.47,369.31 -979.06,562.32 -95.2,57.15 -67.59,36.85 -305.61,-118.63 -51.63,-33.73 -99.12,-63.48 -153.82,-100.18 -35.18,-23.6 -132.5,-84.05 -153.03,-106.03 33.23,-31.19 1272.54,-732.28 1416.97,-816.19 55.68,-32.35 152.7,-98.21 208.41,-116.85l33.96 -17.39c-12.51,-20.34 9.23,-19.01 -85.21,-27.52 -32.01,-2.89 -69.94,-1.34 -102.54,-1.15 -64.22,0.42 -145.12,-19.96 -194.62,0.08 -50.01,21.12 -106.39,58.99 -153.71,85.84l-468.61 274.56c-41.72,22.43 -64.84,-9.16 -152.22,-56.94 -56.15,-30.71 -108.9,-62.17 -162.29,-91.47l-311.39 -177.78 174.29 -108.6 -25.53 -38.82c-1.39,-1.42 -3.6,-3.23 -5.01,-4.64l-15.15 -13.3c-19.04,-18.6 -49.83,-63.68 -73.94,-67.07l0 -65.78c-75.65,-1.12 -6.29,3.5 -63.71,-76.31 -7.51,-10.46 -2.69,-0.04 -12.59,-18.02 -0.02,-0.03 -9.42,-22.16 -10.81,-25.15 -12.98,-19.1 -355.7,-215.3 -427.85,-258.63 -25.9,-15.56 -44.39,-22.41 -63.03,-44.8 94.53,-33.51 359.89,-220.72 479.83,-274.99l-9.76 -8.97c-0.83,-1.06 -3.03,-3.44 -3.81,-4.63l-18.49 -60.02c-4.86,-18.7 -4.34,-12.49 -4.33,-33.68 -9.47,0 -27.47,1.14 -35.86,-1.49 -27.32,-8.55 -5.05,1.82 -21.21,-16.66l-31.8 -33.86c-9.49,-7.43 -12.2,-9.2 -21.41,-16.31 -1.58,-1.23 -3.67,-3.02 -5.26,-4.23l-41.33 -22.35c-18.78,-5.58 -4.31,0.91 -20.03,-3.84 -45.5,10.61 -134.32,89.25 -166.9,84.4 -27.98,-4.15 -123.09,-72.27 -166.67,-84.27 -43.42,-2.65 -26.94,10.97 -43.56,39.7l-104.9 0.71 -15.61 28.05c-6.33,-47.45 12.26,-16.01 -22.06,-28.19 -3.35,36.44 -19.83,35.9 -19.85,35.84 -0.64,-1.51 -3.82,2.38 -5.46,3.92l200.79 108.22c-43.61,41.4 -102.56,68.8 -153.23,100.06 -55.31,34.11 -100.88,62.48 -156.68,96.58 -103.16,63.05 -211.08,128.1 -316.01,191.87 -61.29,37.24 -48.83,25.04 -154.1,-32.37 -53.61,-29.24 -107.47,-61.26 -162.1,-91.43 -69.26,-38.28 -274.61,-142.48 -320.8,-184.63l302.43 -173.61c-2.04,-2.12 -5.19,-4.05 -6.93,-5.46l-24.43 -19.7c-74.9,-62.04 -37.58,-37.33 -87.76,-89.88l-69.81 -88.73c-7.01,-10.56 -10.38,-14.65 -21.05,-24.45 -34.08,6.94 -173.04,91.18 -211.82,113.39 -246.74,141.32 -137.36,134.96 -421.01,-19.13 -64.42,-35 -140.19,-73.5 -198.77,-113.05 71.96,-54.84 596.36,-339.38 638.48,-377.63l1.54 -34.98c-30.18,-13.63 -47.54,-48.41 -66.39,-75.23l-146.82 -200.82c-12.2,-15.66 -4,-5.37 -18.07,-18.61l-178.56 -264.64c-1.04,-1.77 -2.32,-4.21 -3.38,-5.94l-11.04 -16.76c-1.11,-1.59 -2.8,-3.8 -3.92,-5.4 -49.81,-70.23 -33.05,-11.65 -42.75,-42.64 -1.06,-3.31 -4.87,-2.11 -6.95,-3.69l0.49 -51.36 -36.49 -3.21 -1.2 -105.18 -36.35 -18.82c-1.79,-189.61 9.32,-125.68 -36.67,-169.14 0,-68.92 -0.34,-137.85 0.4,-206.75 0.82,-77.97 10.42,-126.58 10.42,-196.09l38.16 0 -3.72 -69.62c-63.23,27.69 -130.61,74.07 -192.63,108.77 -64.75,36.26 -120.4,68.68 -184.51,106.7l-1106.21 641.83c-733.02,413.75 -1480.92,871.88 -2211.36,1284.36 -499.15,281.84 -976.36,572.98 -1474.7,855.95l-552.5 321.29c-44.59,25.14 -142.42,89.55 -183.72,101.55l-126.53 -7721.86 1402.37 -806.87c467,-267.77 938.09,-531.56 1402.6,-805.75 465.28,-274.64 936.26,-530.66 1402.46,-805.82 230.69,-136.16 465.94,-268.01 698.46,-401.12l1402.92 -805.51c467.68,-261.64 937.91,-542.51 1402.98,-805.44l1402.76 -805.63c234.86,-137.35 468.4,-264.36 698.41,-401.08l1050.52 -603.44c69.44,-38.89 295.09,-176.37 346.45,-195.26l65.9 7688.73 -2579.3 1495.94c13.79,-57.07 66.58,-166.48 92.34,-228.23 179.06,-429 1381.02,-3350.56 1414.48,-3383.13 -90.56,-41.76 -284.83,-83.81 -390.35,-115.54 -99.37,-29.88 -102.98,-7.48 -189.23,29.56 -220.51,94.75 -138.68,21.79 -212.79,199.8l-1549.48 3778.77c-33.38,80.36 -86.11,190.31 -105.88,268.46zm11362.16 2678.3c-40.27,-18.34 -78.4,-40.69 -117.15,-63.98l-3520.35 -2052.31c-41.44,-24.84 -76.22,-44.43 -118.62,-69.33 -80.77,-47.5 -153.63,-86.18 -232.81,-133.67 -80.76,-48.44 -155.45,-89.21 -237.18,-138.72l-1051.29 -612.03c-42.53,-23.65 -77.34,-45.44 -118.8,-69.16 -309.43,-177.03 -631.44,-376.53 -937.31,-547.48 -44.36,-24.78 -75.17,-45.24 -118.9,-69.03l-350.63 -203.81c-228.42,-124.33 -472.41,-285.59 -708.04,-410.26 0,-1459.83 -29.05,-2892.07 -28.21,-4350.98 0.08,-99.91 -9.44,-163.21 -9.37,-263.13l0 -817.56c0,-181.13 -9.41,-346.29 -9.41,-535.66 0,-184.82 0,-369.61 0,-554.45 0,-187.77 -9.39,-345.35 -9.39,-535.66 0,-184.79 0,-369.61 0,-554.42 0,-190.29 -9.4,-347.88 -9.4,-535.65 0,-185.85 0,-371.69 0,-557.53l-11947.33 6916.01 135.73 8545.75 1784.5 1090.32c205.33,125.93 395.98,246.43 599.98,367.81 201.85,120.11 398.54,241.65 594.92,363.61l1789.94 1095.01c393.84,240.45 797.75,482.81 1189.7,727.49 397.62,248.21 796.31,482.79 1194.8,731.46 50.16,31.29 94.84,56.46 146.04,89.5 54.1,34.89 38.74,30.15 153.81,-36.62 710.2,-412.04 1427.8,-809.9 2142.22,-1221.95 406.19,-234.31 804.84,-464.7 1220.76,-696.32 208.07,-115.86 401.61,-233.25 610.09,-348.4 207.02,-114.33 411.34,-231.48 616.97,-351.09 605.05,-351.99 1228.03,-693.02 1830.33,-1045.18 590.39,-345.19 1243.54,-708.97 1837.55,-1047.44 410.59,-233.96 820.19,-464.67 1226.35,-700.13 201.53,-116.83 404.18,-231.93 610.58,-347.95l1801.75 -1026.69c30.51,-17.07 20.2,-5.67 38.17,-30.37z"/>
  <path class="fil1 str1" d="M25341.23 13367.66c-17.91,24.62 -7.63,13.27 -38.05,30.27l-1795.85 1023.35c-205.73,115.62 -407.71,230.35 -608.59,346.81 -404.83,234.69 -813.09,464.64 -1222.35,697.83 -592.06,337.36 -1243.08,699.96 -1831.53,1044.02 -600.33,351 -1221.28,690.92 -1824.34,1041.76 -204.97,119.23 -408.61,235.99 -614.97,349.95 -207.79,114.77 -400.71,231.77 -608.09,347.26 -414.55,230.86 -811.9,460.5 -1216.77,694.04 -712.08,410.7 -1427.33,807.26 -2135.22,1217.96 -114.69,66.55 -99.38,71.27 -153.3,36.5 -51.04,-32.93 -95.57,-58.01 -145.56,-89.21 -397.2,-247.85 -794.58,-481.67 -1190.9,-729.07 -390.66,-243.88 -793.26,-485.46 -1185.81,-725.11l-1784.09 -1091.43c-195.74,-121.56 -391.79,-242.71 -592.98,-362.42 -203.33,-120.98 -393.36,-241.09 -598.02,-366.62l-1778.67 -1086.75 -135.28 -8517.81 11908.28 -6893.41c16.81,-32.06 -24.97,-25.5 -80.32,-47.74 -39.03,-15.68 -71.04,-28.46 -107.03,-42.84 -36.01,-14.42 -68.37,-26.82 -107.22,-43.15 -58.67,-24.67 -45,-23.22 -95.8,8.41 -197.82,123.26 -553.66,318.49 -761.24,437.97l-380.54 218.94c-66.34,39.24 -125.93,71.76 -190.85,108.89 -31.05,17.76 -61.48,38.06 -94.13,55.73 -484.61,262.07 -948.9,562.05 -1433.11,824.25l-570.81 328.39c-124.58,75.11 -251.77,142.67 -380.59,218.88l-766.69 441.62c-66.53,39.36 -126.27,69.53 -190.98,108.71l-3239.68 1865.18c-131.49,73.46 -249.21,146.82 -380.78,218.67 -260.15,142.12 -508.79,296.47 -767.74,440.56l-474.79 274.54c-31.15,16.83 -63.47,35.14 -95.48,54.4l-956.81 551.21c-67.88,36.98 -123.64,71.72 -190.6,109.12 -312.39,174.58 -648.68,385.94 -958.29,549.77 0,363.61 9.37,696.38 9.37,1058.41 0,186.68 9.38,340.95 9.38,524.56 0,145.63 -15.46,409.35 2.55,540.68 21.11,154.04 6.81,356.42 6.81,527.09 0,188.53 9.37,344.87 9.37,533.91 0,365.62 9.35,701.25 9.35,1067.79l9.32 917.99c-0.31,59.52 6.96,84.53 9.47,131.03 9.03,167.31 -0.05,363.42 -0.05,533.95 0,183.12 9.36,344.39 9.36,533.9 0,363.42 9.38,700.72 9.38,1067.79l9.36 796.16c-0.02,100.54 9.35,168.85 9.35,262.29 57.39,30.36 108.39,81.59 160.56,120.44 198.44,147.86 167.28,108.15 167.28,413.43 0,96.8 0,193.59 0,290.39 196,103.71 377.34,236.22 568.45,349.5l1027.85 639.4c306.53,187.73 604.65,382.9 913.43,566.5 76.62,45.54 153.55,92.93 230.9,143.75 38.07,25.01 70.91,45.19 109.76,68.21l231.25 143.42c38.14,25.22 75.47,44.35 116.19,71.14l1710.3 1062.23c36.8,24.33 74.88,47.99 115.41,71.95 38.07,22.52 74.8,45.67 109.39,68.55l1715.93 1065.97c40.43,26.12 74.81,44.04 116.13,71.19 38.85,25.52 328.94,214.06 350.38,211.64 62.27,-32.95 120.52,-70.19 184.44,-105.92 66.99,-37.44 127.56,-72.67 190.7,-109.03l1501.05 -859.33c251.68,-140.65 496.94,-292.47 749.68,-430.54l1501.59 -858.79c253.22,-138.33 497.91,-289.81 749.66,-430.54 65.41,-36.58 120.31,-67.36 184.84,-105.53l2072.53 -1187.07c65.4,-36.56 120.3,-67.36 184.85,-105.52l1316.2 -753.81c61.11,-35.17 119.26,-70.06 184.61,-105.77 66.8,-36.5 126.08,-74.25 190.57,-109.18 252.98,-137 501.78,-287.56 749.79,-430.36l750.64 -429.57c62.61,-37.62 122.62,-69.37 185.06,-105.31l565.72 -324.13c130.26,-71.18 244.83,-144.53 374.66,-215.44 67.87,-37.08 123.63,-71.71 190.58,-109.13 35.5,-19.86 62.76,-34.62 96.08,-53.8 30.07,-17.32 65.26,-36.37 94.13,-55.71l29.34 -562.21c2.34,-17.53 3.69,-29.91 1.99,-36.15 -9.22,-33.9 4.05,-9.57 -19.37,-19.85z"/>
  <path class="fil2 str2" d="M6345.62 15068.89c3731.18,-2164.91 7462.36,-4329.83 11193.55,-6494.74 -22.06,-2573.08 -44.11,-5146.17 -66.17,-7719.24 -3751.47,2153.82 -7502.95,4307.64 -11254.42,6461.47 42.34,2584.17 84.69,5168.34 127.04,7752.51z"/>
  <path class="fil0 str0" d="M6344.71 15068.89c3704.28,-2149.3 7408.55,-4298.61 11112.85,-6447.92 1680.21,1849.23 3360.44,3698.46 5040.66,5547.7 -2949.89,1829.14 -5899.77,3658.27 -8849.67,5487.41 -2434.61,-1529.06 -4869.23,-3058.12 -7303.84,-4587.19z"/>
  <path class="fil3" d="M17446.91 15235.35l18.54 -12.5c50.28,-32.86 75.03,-33.58 97.31,-65.84l-532.45 -27.6c-81.01,-0.11 -478.82,-14.57 -512.05,-35.54 -55.53,18.58 -152.23,84.21 -207.74,116.46 -143.95,83.64 -1379.2,782.44 -1412.33,813.53 20.46,21.91 117.47,82.17 152.54,105.68 54.52,36.57 101.84,66.24 153.31,99.86 237.24,154.97 209.72,175.2 304.6,118.24 320.54,-192.39 654.66,-372.53 975.87,-560.48 247.23,-144.69 729.51,-430.93 962.4,-551.81z"/>
  <path class="fil3" d="M16405.07 15113.99l-18.78 12.15c-50.88,31.91 -75.65,32.17 -98.51,64.01l531.83 37.56c81,1.63 478.46,23.53 511.3,45.11 55.87,-17.53 153.78,-81.34 209.88,-112.54 145.49,-80.93 1393.62,-756.48 1427.31,-786.94 -20.04,-22.3 -115.9,-84.35 -150.53,-108.52 -53.82,-37.59 -100.59,-68.14 -151.41,-102.71 -234.3,-159.38 -206.41,-179.1 -302.34,-123.93 -324.09,186.36 -661.52,360.22 -986.19,542.12 -249.9,140.04 -737.45,417.2 -972.56,533.69z"/>
  <path class="fil4" d="M11476.1 17063.53c85.08,39.32 180.85,104.16 268,153.11 85.9,48.23 175.58,102.02 260.69,151.34 82.02,47.55 54.97,54.15 136.26,5.24l1436.57 -852.93 -33.66 -26.68c-138.61,-96.28 -330.83,-205.5 -479.18,-307.77 -54.69,-37.7 -84.84,2.8 -138.78,33.33 -163.8,92.72 -1422.29,816.32 -1449.9,844.36z"/>
  <path class="fil4" d="M21049.78 12122.78c-85.08,-39.32 -180.85,-104.16 -267.99,-153.11 -85.91,-48.23 -175.59,-102.02 -260.69,-151.34 -82.03,-47.55 -54.97,-54.15 -136.26,-5.24l-1436.57 852.93 33.65 26.68c138.61,96.28 330.84,205.5 479.2,307.77 54.68,37.7 84.82,-2.8 138.77,-33.33 163.79,-92.72 1422.28,-816.32 1449.89,-844.36z"/>
  <path class="fil4" d="M10482.1 16660.17c49.83,46.24 387.97,213.57 548.48,310.79 138.52,83.88 45.31,65.36 77.89,45.22 241.7,-149.46 669.93,-461.5 927.62,-609.82 63.85,-36.72 143.99,-76.8 205.39,-120.22l-24.08 -20.56c-8.8,-6.19 -13.79,-8.68 -23.13,-14.29 -17.01,-10.29 -34.89,-21.18 -52.38,-31.93l-314.35 -191.4c-175.99,-101.3 -118.97,-98.85 -208.36,-48.01 -73.33,41.69 -137.84,80.44 -208.24,119.8 -154.96,86.53 -799.33,497.72 -928.84,560.42z"/>
  <path class="fil4" d="M18472.19 11934.51c49.83,46.24 387.97,213.57 548.48,310.79 138.52,83.87 45.3,65.35 77.88,45.23 241.7,-149.47 669.93,-461.5 927.63,-609.83 63.84,-36.73 143.98,-76.81 205.38,-120.22l-24.09 -20.55c-8.79,-6.21 -13.78,-8.69 -23.11,-14.31 -17.02,-10.27 -34.9,-21.17 -52.39,-31.92l-314.36 -191.39c-175.98,-101.31 -118.96,-98.86 -208.35,-48.02 -73.34,41.68 -137.85,80.44 -208.24,119.79 -154.95,86.54 -799.33,497.72 -928.83,560.43z"/>
  <path class="fil4" d="M11823.33 15864.62c21.76,27.61 279.15,169.69 331.92,200.91 277.06,163.94 219.84,160.96 326.85,93.75l491.55 -304.69c34.8,-20.64 134.44,-77.73 160.75,-105.72l-545.97 -329.36 -765.1 445.11z"/>
  <path class="fil4" d="M13363.19 15662.82c75.45,-42.57 690.89,-433.97 734.24,-448.38l-489.61 -304.13c-85.36,-52.66 -83.17,-20.66 -164.3,25.37l-645.93 375.52c-10.51,8.46 -8.45,6.94 -16.04,15.16 44.14,17.86 101.42,57.53 147.69,84.5l433.95 251.96z"/>
  <path class="fil4" d="M14262.32 15069.4c75.45,-42.57 690.88,-433.97 734.23,-448.39l-489.6 -304.12c-85.37,-52.67 -83.17,-20.67 -164.31,25.37l-645.93 375.5c-10.5,8.48 -8.44,6.96 -16.04,15.18 44.14,17.86 101.42,57.53 147.69,84.49l433.96 251.97z"/>
  <path class="fil4" d="M15197.41 14475.98c75.45,-42.57 690.88,-433.98 734.24,-448.39l-489.61 -304.12c-85.37,-52.67 -83.17,-20.67 -164.3,25.37l-645.94 375.5c-10.51,8.48 -8.44,6.95 -16.03,15.18 44.14,17.86 101.41,57.52 147.69,84.49l433.95 251.97z"/>
  <path class="fil4" d="M16132.5 13936.51c75.45,-42.59 690.89,-433.98 734.24,-448.4l-489.6 -304.12c-85.37,-52.67 -83.17,-20.66 -164.31,25.37l-645.93 375.51c-10.51,8.48 -8.46,6.94 -16.04,15.17 44.14,17.86 101.41,57.53 147.69,84.49l433.95 251.98z"/>
  <path class="fil4" d="M17139.52 13397.03c75.45,-42.59 690.88,-433.98 734.24,-448.39l-489.61 -304.12c-85.37,-52.67 -83.17,-20.67 -164.3,25.36l-645.94 375.51c-10.5,8.48 -8.44,6.95 -16.03,15.17 44.14,17.87 101.41,57.53 147.69,84.5l433.95 251.97z"/>
  <path class="fil4" d="M18092.59 12821.59c75.46,-42.58 690.88,-433.98 734.25,-448.4l-489.61 -304.12c-85.37,-52.67 -83.17,-20.66 -164.3,25.37l-645.93 375.51c-10.52,8.48 -8.46,6.96 -16.05,15.17 44.14,17.87 101.41,57.53 147.69,84.5l433.95 251.97z"/>
  <path class="fil4" d="M11196.28 15196.39c29.81,32.41 289.64,170.01 321.92,187.78 54.45,30.02 108.14,62.25 161.49,91.23 120.97,65.64 93.17,68.78 152.65,30.6l619.43 -382.09c-18.81,-23.1 -8.93,-11.1 -37.92,-26.63l-122.27 -65.24c-53.92,-29.86 -103.57,-56.75 -156.92,-86.28 -50.15,-27.75 -105.16,-58.27 -158.53,-85.13 -135.48,-68.16 -45.49,-86.8 -470.21,159.59 -53.12,30.82 -99.66,59.12 -154.13,89.36 -44.18,24.5 -112.4,71.05 -155.51,86.81z"/>
  <path class="fil4" d="M9525.64 16172.01c28.22,32.69 433.75,250.67 483.26,278.86 74.78,42.6 86.36,73.37 154.36,30.99l618.31 -383.07 -475.87 -262.95c-85.25,-44.01 -75.5,-68.31 -154.57,-21.94l-625.49 358.11z"/>
  <path class="fil4" d="M13695.15 13655.92c28.22,32.68 433.74,250.66 483.24,278.85 74.79,42.61 86.38,73.37 154.37,30.99l618.31 -383.07 -475.88 -262.95c-85.23,-44 -75.49,-68.32 -154.56,-21.93l-625.48 358.11z"/>
  <path class="fil4" d="M14576.28 13134.42c28.23,32.69 433.75,250.67 483.26,278.86 74.78,42.6 86.37,73.37 154.36,30.98l618.3 -383.06 -475.86 -262.96c-85.25,-43.99 -75.5,-68.31 -154.57,-21.93l-625.49 358.11z"/>
  <path class="fil4" d="M15493.4 12684.86c28.22,32.69 433.75,250.67 483.25,278.86 74.79,42.6 86.37,73.37 154.36,30.98l618.31 -383.07 -475.87 -262.95c-85.24,-44 -75.5,-68.32 -154.56,-21.93l-625.49 358.11z"/>
  <path class="fil4" d="M16392.52 12199.34c28.23,32.68 433.75,250.66 483.25,278.85 74.79,42.6 86.38,73.37 154.36,30.99l618.31 -383.07 -475.87 -262.95c-85.24,-44 -75.49,-68.32 -154.56,-21.94l-625.49 358.12z"/>
  <path class="fil4" d="M17273.66 11695.82c28.22,32.69 433.75,250.67 483.26,278.86 74.78,42.6 86.36,73.37 154.36,30.98l618.31 -383.06 -475.87 -262.96c-85.25,-44 -75.5,-68.31 -154.57,-21.93l-625.49 358.11z"/>
  <path class="fil4" d="M18154.81 11174.34c28.22,32.67 433.75,250.65 483.26,278.84 74.78,42.61 86.36,73.37 154.35,31l618.31 -383.07 -475.87 -262.96c-85.24,-43.99 -75.5,-68.31 -154.56,-21.94l-625.49 358.13z"/>
  <path class="fil4" d="M12056.11 14703.15c28.23,32.68 433.74,250.66 483.25,278.85 74.79,42.6 86.38,73.37 154.36,30.99l618.31 -383.06 -475.87 -262.96c-85.24,-43.99 -75.49,-68.31 -154.56,-21.94l-625.49 358.12z"/>
  <path class="fil4" d="M10371.26 15686.67c25.03,24.78 120.23,70.93 158.48,93.44 51.09,30.05 103.18,57.39 156.2,87.38 54.9,31.05 107.7,59.43 161.69,91.05 110.13,64.53 99.68,69.31 161.01,29.24l618.54 -374.79 -319.46 -180.09c-183.13,-97.59 -229.82,-162.49 -316.98,-109.29l-619.48 363.06z"/>
  <path class="fil4" d="M12865.75 14217.81c25.04,24.78 120.23,70.93 158.49,93.44 51.09,30.04 103.19,57.39 156.2,87.37 54.89,31.06 107.69,59.43 161.7,91.06 110.11,64.53 99.68,69.31 160.99,29.24l618.54 -374.79 -319.45 -180.1c-183.13,-97.59 -229.82,-162.49 -316.99,-109.29l-619.48 363.07z"/>
  <path class="fil4" d="M13720.88 17417.5c39.18,22.09 39.06,29.8 75.32,9.3l615.97 -366.24c-19.81,-24.46 -259.28,-154.04 -311.37,-182.47 -50.6,-27.6 -106.21,-58.7 -156.85,-87.06 -108.57,-60.83 -104.91,-80.35 -156.15,-48.84 -61.6,37.87 -585.33,327.83 -619.62,365.76l552.7 309.55z"/>
  <path class="fil4" d="M20097.29 12978.97c-39.18,-22.07 -39.06,-29.8 -75.33,-9.3l-615.98 366.26c19.82,24.46 259.29,154.03 311.38,182.46 50.61,27.6 106.21,58.7 156.85,87.05 108.57,60.85 104.92,80.36 156.16,48.85 61.59,-37.86 585.33,-327.84 619.62,-365.76l-552.7 -309.56z"/>
  <path class="fil4" d="M12308.76 17586.88c98.04,58.8 211.69,120.69 316.54,177.87 55.94,30.49 103.45,59.7 155.47,88.01 111.42,60.64 107.13,80.85 156.3,54.12l312.54 -184.86c47.35,-27.32 281,-159.06 302.51,-183.03l-547.03 -313.76c-35.22,-20.03 -40.51,-23.77 -76.7,-3.14 -81.83,46.65 -596.01,336.79 -619.63,364.79z"/>
  <path class="fil4" d="M21527.38 12755.65c-98.02,-58.8 -211.69,-120.69 -316.53,-177.87 -55.94,-30.49 -103.45,-59.7 -155.48,-88.01 -111.41,-60.64 -107.13,-80.85 -156.3,-54.12l-312.54 184.87c-47.34,27.31 -280.99,159.05 -302.51,183.02l547.03 313.76c35.24,20.03 40.51,23.77 76.71,3.14 81.82,-46.65 596.01,-336.79 619.62,-364.79z"/>
  <path class="fil4" d="M13983.64 15592.24c25,25.18 384.37,222.14 467.01,268.75 28.98,16.35 47.27,26.15 77.3,44.57 35.23,21.56 47.1,28.75 82.61,9.5 23.51,-12.76 587.66,-335.53 617.4,-372.96 -40.46,-12.81 -251.04,-139.44 -313.15,-173.05l-233.55 -132.18c-39.32,-22.52 -41.05,-28.27 -85.84,-3.22l-611.78 358.59z"/>
  <path class="fil4" d="M16037.17 15065.74c-24.98,-25.18 -384.37,-222.14 -467.01,-268.75 -28.98,-16.34 -47.27,-26.15 -77.3,-44.57 -35.23,-21.56 -47.1,-28.75 -82.61,-9.49 -23.5,12.75 -587.66,335.52 -617.39,372.96 40.45,12.81 251.03,139.44 313.14,173.04l233.55 132.18c39.34,22.52 41.05,28.28 85.84,3.22l611.78 -358.59z"/>
  <path class="fil4" d="M14486.3 16851.36c108.99,64.13 107.65,77.97 153.46,51.36l613.62 -365.18 -316.07 -184.09c-52.45,-29.66 -102.81,-58.7 -155.37,-88.06 -57.4,-32.11 -99.79,-78.35 -156.7,-43.78l-599.77 348.54c-17.29,14.48 -2.63,-0.98 -16.18,17.77l477.01 263.44z"/>
  <path class="fil4" d="M19295.9 13581.08c-109,-64.12 -107.66,-77.96 -153.46,-51.36l-613.62 365.18 316.07 184.1c52.44,29.65 102.81,58.7 155.37,88.06 57.4,32.1 99.79,78.34 156.69,43.78l599.78 -348.55c17.29,-14.48 2.63,0.99 16.18,-17.76l-477.01 -263.45z"/>
  <path class="fil4" d="M13529.03 16282.64c54.84,30.74 107.15,60.58 161.28,91.51 113.5,64.89 106.15,77.45 152.82,49.77 103.62,-61.5 206.52,-119.58 312.81,-184.61l303.16 -181.7 -473.07 -269.51c-60.85,-33.9 -96.2,-79.02 -156.39,-44.52l-616.97 358.86 316.36 180.2z"/>
  <path class="fil4" d="M18960.22 12912.99c-54.83,-30.75 -107.14,-60.58 -161.27,-91.52 -113.51,-64.88 -106.15,-77.44 -152.82,-49.77 -103.63,61.5 -206.52,119.59 -312.82,184.61l-303.16 181.7 473.08 269.52c60.84,33.89 96.2,79.02 156.39,44.51l616.96 -358.86 -316.36 -180.19z"/>
  <path class="fil4" d="M18169.55 13433.6c-54.84,-30.74 -107.16,-60.58 -161.27,-91.52 -113.51,-64.89 -106.17,-77.44 -152.82,-49.76 -103.63,61.5 -206.52,119.57 -312.82,184.61l-303.17 181.7 473.09 269.5c60.84,33.9 96.2,79.03 156.38,44.53l616.97 -358.86 -316.36 -180.2z"/>
  <path class="fil4" d="M17354.17 13914.87c-54.83,-30.75 -107.16,-60.58 -161.27,-91.53 -113.51,-64.88 -106.17,-77.44 -152.83,-49.76 -103.63,61.5 -206.51,119.59 -312.82,184.61l-303.15 181.7 473.07 269.52c60.84,33.9 96.21,79.02 156.39,44.51l616.97 -358.86 -316.36 -180.19z"/>
  <path class="fil4" d="M15911.95 14768.96c54.83,30.74 107.16,60.58 161.27,91.51 113.51,64.89 106.17,77.45 152.82,49.77 103.64,-61.5 206.52,-119.58 312.83,-184.6l303.15 -181.7 -473.07 -269.52c-60.85,-33.9 -96.21,-79.02 -156.39,-44.52l-616.97 358.86 316.36 180.2z"/>
  <path class="fil4" d="M8802.95 15770.95c79.89,59.6 190.17,107.35 281.44,161.94 192.58,115.16 102.74,97.37 546.28,-152.17l273.03 -159.63c-31.31,-28.08 -238.83,-139.47 -278.93,-162.78 -16.83,-9.78 -128.76,-73.63 -138.89,-75.6 -33.08,-6.39 -520.61,291.2 -618.23,346.62l-64.7 41.62z"/>
  <path class="fil4" d="M13008.41 13308.8c79.89,59.6 190.18,107.35 281.44,161.94 192.59,115.15 102.74,97.38 546.28,-152.17l273.03 -159.63c-31.31,-28.07 -238.82,-139.46 -278.93,-162.78 -16.83,-9.77 -128.76,-73.63 -138.89,-75.6 -33.08,-6.38 -520.6,291.19 -618.22,346.61l-64.71 41.63z"/>
  <path class="fil4" d="M13907.54 12823.27c79.88,59.6 190.17,107.35 281.44,161.95 192.58,115.14 102.74,97.37 546.28,-152.18l273.03 -159.62c-31.31,-28.08 -238.83,-139.47 -278.93,-162.79 -16.84,-9.77 -128.76,-73.63 -138.89,-75.6 -33.08,-6.38 -520.61,291.2 -618.23,346.61l-64.7 41.63z"/>
  <path class="fil4" d="M14770.69 12319.77c79.89,59.59 190.18,107.34 281.45,161.93 192.58,115.15 102.74,97.38 546.27,-152.17l273.04 -159.63c-31.3,-28.07 -238.83,-139.46 -278.93,-162.77 -16.84,-9.78 -128.77,-73.64 -138.9,-75.6 -33.08,-6.39 -520.6,291.19 -618.21,346.6l-64.72 41.64z"/>
  <path class="fil4" d="M15651.84 11798.27c79.89,59.6 190.18,107.34 281.44,161.94 192.59,115.16 102.74,97.37 546.28,-152.17l273.03 -159.63c-31.31,-28.08 -238.82,-139.47 -278.92,-162.78 -16.84,-9.78 -128.77,-73.63 -138.9,-75.6 -33.08,-6.39 -520.6,291.2 -618.22,346.62l-64.71 41.62z"/>
  <path class="fil4" d="M16550.97 11312.74c79.89,59.6 190.17,107.34 281.44,161.94 192.58,115.16 102.74,97.38 546.28,-152.17l273.03 -159.63c-31.31,-28.08 -238.83,-139.47 -278.93,-162.78 -16.83,-9.78 -128.76,-73.63 -138.89,-75.6 -33.08,-6.38 -520.61,291.2 -618.23,346.62l-64.7 41.62z"/>
  <path class="fil4" d="M17486.06 10845.2c79.88,59.59 190.17,107.34 281.44,161.94 192.59,115.15 102.74,97.37 546.28,-152.17l273.03 -159.63c-31.31,-28.08 -238.82,-139.47 -278.93,-162.78 -16.84,-9.78 -128.76,-73.63 -138.89,-75.6 -33.08,-6.39 -520.6,291.2 -618.22,346.6l-64.71 41.64z"/>
  <path class="fil4" d="M11333.41 14302.08c79.89,59.6 190.18,107.35 281.44,161.95 192.58,115.15 102.74,97.37 546.28,-152.18l273.04 -159.62c-31.32,-28.08 -238.83,-139.48 -278.94,-162.79 -16.83,-9.78 -128.76,-73.63 -138.89,-75.6 -33.08,-6.39 -520.6,291.2 -618.23,346.62l-64.7 41.62z"/>
  <path class="fil4 str3" d="M9706.25 15264.02c24.24,29.03 204.8,122.1 254.04,149.56 154.37,86.1 103.61,83.37 255.01,-2.68l446.11 -256.43c9.88,-5.53 18.05,-9.91 29.23,-17.39l26.66 -20.87c-48.89,-40.75 -189.39,-110.61 -255.26,-147.89 -146.96,-83.17 -107.79,-81.74 -253.81,4.68 -164.99,97.67 -345.55,192.41 -501.98,291.02z"/>
  <path class="fil4 str3" d="M10534.55 14777.97c24.24,29.04 204.79,122.11 254.03,149.56 154.38,86.09 103.62,83.36 255.02,-2.69l446.1 -256.41c9.87,-5.55 18.06,-9.91 29.24,-17.41l26.64 -20.86c-48.88,-40.74 -189.38,-110.6 -255.25,-147.88 -146.96,-83.18 -107.78,-81.75 -253.81,4.67 -164.98,97.66 -345.55,192.41 -501.97,291.02z"/>
  <path class="fil4" d="M12218.93 13848.19c24.24,29.02 204.8,122.1 254.04,149.56 154.37,86.09 103.61,83.36 255.01,-2.69l446.11 -256.41c9.87,-5.55 18.05,-9.92 29.24,-17.41l26.64 -20.87c-48.88,-40.74 -189.38,-110.6 -255.25,-147.89 -146.97,-83.17 -107.79,-81.74 -253.81,4.69 -164.99,97.66 -345.55,192.4 -501.98,291.02z"/>
  <path class="fil4 str3" d="M9706.44 15263.1c156.43,-98.6 336.99,-193.35 501.99,-291.01 146.01,-86.43 106.84,-87.85 253.81,-4.68 65.86,37.28 206.36,107.14 255.25,147.88l-26.65 20.87c-11.19,7.49 -19.36,11.86 -29.24,17.4l-446.1 256.42c-151.4,86.05 -100.64,88.78 -255.02,2.69 -49.23,-27.47 -229.8,-120.54 -254.04,-149.57zm-45.07 2.3c29.29,28.14 225.19,132 276.65,160.15 173.18,94.7 117.5,103.32 275.47,10.45 79.48,-46.71 521.43,-289.28 548.68,-320.71l-278.81 -159.81c-192.7,-104.43 -65.69,-129.93 -551.61,152.1l-270.38 157.82z"/>
  <path class="fil4 str3" d="M12214.99 13842.02c156.43,-98.62 336.99,-193.35 501.98,-291.02 146.02,-86.43 106.85,-87.85 253.81,-4.68 65.87,37.28 206.37,107.14 255.26,147.89l-26.65 20.86c-11.19,7.49 -19.36,11.87 -29.24,17.4l-446.11 256.42c-151.4,86.05 -100.64,88.79 -255.01,2.69 -49.24,-27.46 -229.8,-120.53 -254.04,-149.56zm-45.07 2.29c29.28,28.15 225.18,132 276.65,160.15 173.17,94.69 117.49,103.32 275.47,10.46 79.46,-46.72 521.42,-289.29 548.66,-320.71l-278.79 -159.81c-192.71,-104.44 -65.69,-129.94 -551.62,152.09l-270.37 157.82z"/>
  <path class="fil3" d="M18430.31 14869.57c-160.2,59.14 -558.28,320.2 -724.76,417.63 -471.16,275.64 -963.54,545.62 -1426.28,821.63l-566.2 323.54c35.56,36.99 1102.89,660.76 1177.45,704.74 37.87,22.33 279.93,169.78 295.91,171.85 25.18,3.24 122.33,-60.36 150.37,-77.25 51.69,-31.17 94.03,-55.53 148.13,-86.05 595.7,-336.15 1188.84,-698.21 1784.15,-1035.13 100.9,-57.13 197.36,-112.65 296.18,-172.11 99.4,-59.79 197.77,-112.39 296.4,-171.94 78.65,-47.51 562.38,-316.03 586.64,-345.89l-322.62 -197.99c-59.1,-36.05 -105.67,-64.79 -162.53,-100 -41.75,-25.87 -121.18,-67.94 -150.84,-94.55 -65.63,-22.6 -132.71,-84.87 -195.48,-111.71l-586.41 -362.13c-34.68,-20.63 -46.64,-12.79 -80.22,8.57l-519.89 306.79z"/>
 </g>
</svg>
