<?xml version="1.0" encoding="UTF-8"?>
<!DOCTYPE svg PUBLIC "-//W3C//DTD SVG 1.1//EN" "http://www.w3.org/Graphics/SVG/1.1/DTD/svg11.dtd">
<!-- Creator: CorelDRAW 2020 (64 Bit) -->
<svg xmlns="http://www.w3.org/2000/svg" xml:space="preserve" version="1.1" style="shape-rendering:geometricPrecision; text-rendering:geometricPrecision; image-rendering:optimizeQuality; fill-rule:evenodd; clip-rule:evenodd"
viewBox="0 0 29700 21000"
 xmlns:xlink="http://www.w3.org/1999/xlink"
 xmlns:xodm="http://www.corel.com/coreldraw/odm/2003">
 <defs>
  <style type="text/css">
   <![CDATA[
    .str0 {stroke:#52658C;stroke-width:700vw;stroke-miterlimit:22.9256}
    .str1 {stroke:#E6E7E8;stroke-width:700vw;stroke-miterlimit:22.9256}
    .fil0 {fill:#52658C}
    .fil1 {fill:#E6E7E8}
   ]]>
  </style>
 </defs>
 <g id="Camada_x0020_1_1">
  <metadata id="CorelCorpID_0Corel-Layer"/>
 </g>
 <g id="Camada_x0020_1">
  <metadata id="CorelCorpID_1Corel-Layer"/>
 </g>
 <g id="Camada_x0020_1_1_0_0_1_4">
  <metadata id="CorelCorpID_2Corel-Layer"/>
 </g>
 <g id="Camada_x0020_1_1_0_0_1_4_0">
  <metadata id="CorelCorpID_3Corel-Layer"/>
 </g>
 <g id="Camada_x0020_1_1">
  <metadata id="CorelCorpID_4Corel-Layer"/>
 </g>
 <g id="Camada_x0020_1_1_0_2">
  <metadata id="CorelCorpID_5Corel-Layer"/>
 </g>
 <g id="Camada_x0020_1_1_2">
  <metadata id="CorelCorpID_6Corel-Layer"/>
 </g>
 <g id="Camada_x0020_1_1_3">
  <metadata id="CorelCorpID_7Corel-Layer"/>
 </g>
 <g id="Camada_x0020_1_1_3_3">
  <metadata id="CorelCorpID_8Corel-Layer"/>
 </g>
 <g id="Camada_x0020_1_1_3_4">
  <metadata id="CorelCorpID_9Corel-Layer"/>
 </g>
 <g id="Camada_x0020_1_5">
  <metadata id="CorelCorpID_10Corel-Layer"/>
  <path class="fil0 str0" d="M980.27 977.6c9354.34,0 18708.68,0 28063.02,0 0,1694.24 0,3388.49 -2449.42,4589.47 -2449.42,1200.98 -7348.25,1908.71 -12014.34,4257.06 -4666.09,2348.35 -9099.42,6337.33 -11327.17,5136.34 -2227.76,-1200.97 -2249.92,-7591.93 -2272.09,-13982.87z"/>
 </g>
 <g id="Camada_x0020_1_1_0_0_1_4_1">
  <metadata id="CorelCorpID_11Corel-Layer"/>
  <path class="fil1 str1" d="M-24.94 82.02c9877.78,0 19755.57,0 29633.35,0 0,1684.54 0,3369.08 -2586.48,4563.19 -2586.49,1194.1 -7759.44,1897.77 -12686.63,4232.68 -4927.2,2334.9 -9608.61,6301.03 -11961.01,5106.92 -2352.42,-1194.1 -2375.82,-7548.45 -2399.23,-13902.79z"/>
 </g>
 <g id="Camada_x0020_1_1_3_6">
  <metadata id="CorelCorpID_12Corel-Layer"/>
 </g>
</svg>
