<?xml version="1.0" encoding="UTF-8"?>
<!DOCTYPE svg PUBLIC "-//W3C//DTD SVG 1.1//EN" "http://www.w3.org/Graphics/SVG/1.1/DTD/svg11.dtd">
<!-- Creator: CorelDRAW 2020 (64 Bit) -->
<svg xmlns="http://www.w3.org/2000/svg" xml:space="preserve" width="3508px" height="2480px" version="1.1" style="shape-rendering:geometricPrecision; text-rendering:geometricPrecision; image-rendering:optimizeQuality; fill-rule:evenodd; clip-rule:evenodd"
viewBox="0 0 350800 248040"
 xmlns:xlink="http://www.w3.org/1999/xlink"
 xmlns:xodm="http://www.corel.com/coreldraw/odm/2003">
 <defs>
  <style type="text/css">
   <![CDATA[
    .fil2 {fill:black}
    .fil3 {fill:#494D8A}
    .fil10 {fill:#5B5F97}
    .fil7 {fill:#64689E}
    .fil0 {fill:#767BB2}
    .fil5 {fill:#777BB3}
    .fil8 {fill:#9296C1}
    .fil9 {fill:#969BC4}
    .fil4 {fill:#ADB1D4}
    .fil6 {fill:#FEFEFE}
    .fil1 {fill:white}
   ]]>
  </style>
 </defs>
 <g id="Camada_x0020_1">
  <metadata id="CorelCorpID_0Corel-Layer"/>
  <g id="_4757525168">
   <path class="fil0" d="M153048 93270c776,-3820 1473,-7635 2234,-11484 384,-1943 748,-3832 1125,-5788 342,-1771 498,-4116 1580,-5212 1567,-1590 3092,-1212 5713,-1212 4570,0 9141,0 13711,0 2193,0 4501,-120 5558,1253 1319,1713 812,3257 381,5488 -1037,5361 -2540,12105 -3332,17179 9715,101 20297,-708 29259,2018 7819,2378 13610,7560 14178,17039 344,-835 2108,-10446 2435,-12166 368,-1941 590,-4472 1648,-5712 1242,-1457 3741,-1176 6075,-1176 9707,0 19414,0 29121,0 9424,0 17433,98 25019,4105 6064,3203 10902,8214 13150,15966 2346,8095 924,17733 -1680,25144 -2184,6217 -5608,11070 -9908,15587 -643,676 -1221,1117 -1884,1744 -1303,1231 -2562,2231 -4050,3312 -1244,904 -3028,2047 -4506,2749 -14185,6742 -24299,4221 -38739,4883 -320,911 -3149,16021 -3421,17415 -509,2597 -514,6104 -3926,6472 -1041,113 -13432,27 -15606,27 -3276,0 -6725,750 -7892,-2487 -468,-1298 110,-3233 364,-4536 573,-2936 1121,-5805 1702,-8737 546,-2749 1326,-5988 1673,-8718 -1381,482 -1268,556 -2986,553l-16543 0c-2245,0 -4072,108 -5202,-1421 -1199,-1622 -654,-3311 -253,-5328 363,-1825 722,-3667 1070,-5502l4299 -22114c644,-3320 2523,-11182 2299,-14265 -89,-1234 -214,-1685 -1178,-2085 -1529,-634 -3860,-808 -5679,-836 -2572,-39 -10917,-118 -13079,9 -263,768 -2091,10602 -2315,11727l-6807 35015c-1087,5586 -2385,4800 -9301,4800 -4628,0 -9319,76 -13938,1 -2100,-35 -3632,-1311 -3870,-3225 -143,-1152 1743,-10041 2107,-11857 319,-1592 988,-4275 1092,-5814 -360,324 -811,1197 -1096,1624 -1573,2356 -2409,3230 -4128,5280 -760,907 -3766,3682 -4831,4570 -3470,2892 -8509,5932 -14123,7407 -9218,2421 -20417,2090 -30334,2013 -1564,-12 -1065,-520 -1859,3526 -295,1505 -576,2980 -868,4462 -590,2995 -1162,6021 -1747,9003 -629,3206 -629,6411 -3879,6893 -1287,191 -3914,42 -5356,42 -2889,0 -14661,192 -15874,-171 -1215,-363 -2322,-1482 -2553,-2889 -180,-1090 418,-3458 643,-4598 5323,-26967 10405,-54071 15749,-81015 298,-1506 599,-3044 885,-4557 825,-4381 2524,-4174 6475,-4174l26855 0c6815,0 13802,-304 20241,1292 4799,1189 10974,3821 14133,7391 456,515 885,787 1349,1372 3316,4183 4929,6902 6057,12658l4563 -22940zm18824 -39412c-2473,-300 -18890,779 -21435,985 -31112,2524 -61258,9343 -89107,22964 -7711,3772 -18983,10639 -25569,16471 -459,407 -993,898 -1461,1218l-8203 8381c-3421,3595 -7562,10236 -9651,14952 -146,331 -281,650 -408,952 -142,336 -236,674 -465,933 -312,-591 -629,-1418 -903,-2046 -294,-672 -543,-1290 -829,-2005 -284,-709 -541,-1292 -803,-2032 -168,-471 -537,-1697 -834,-1954l-1748 3548c-268,648 -526,1140 -794,1812 -1308,3281 -2399,6649 -3011,10360 -369,2238 -345,2793 -598,4728 -240,1840 -247,5642 0,7542 56,424 72,940 112,1248 60,465 94,839 137,1223 169,1490 472,3174 802,4524 723,2964 1496,5435 2559,8092 883,2210 1494,3372 2542,5389 320,615 588,1147 954,1766 1998,3378 5982,9197 8986,12316l5271 5380c479,484 878,758 1360,1247 1963,1992 9056,7462 11097,8845l12335 7720c2269,1309 4572,2465 6982,3670 617,309 1152,576 1738,869 302,151 601,305 904,455l4582 2103c1289,535 2438,1051 3723,1603 594,254 3393,1495 3821,1460 613,16 1713,369 2329,523 814,204 1574,388 2380,565 3448,755 6194,1263 9741,1813 2612,405 5126,588 7689,922l8229 485c1481,-1 4449,-164 5760,66 1531,269 3216,700 4782,1016 12992,2617 22521,3779 35459,4983 824,77 4919,196 5263,511l12416 508c21257,429 39316,-750 60353,-4137 7385,-1190 14398,-2833 21456,-4493 19893,-4678 46250,-15134 62780,-27867l6282 -5054c1307,-1065 6436,-6120 7345,-7268 852,-1076 1964,-2212 2948,-3509 4756,-6268 8831,-13093 10623,-21784 3579,-17355 -4108,-33061 -13439,-43005l-1506 -1669c-910,-1042 -4549,-4591 -5741,-5587l-4412 -3638c-659,-502 -1199,-936 -1858,-1429 -13229,-9907 -27192,-16352 -42811,-22008 -1501,-544 -3354,-1241 -4867,-1653 -1138,-201 -2692,-838 -3849,-1177 -2110,-619 -10025,-3026 -11651,-3261 -54,-1459 -457,-3770 -671,-5311 -79,-568 -236,-1181 -245,-1694l-2078 -475c-651,-162 -1374,-314 -2106,-499 -3389,-861 -9808,-2103 -13197,-2667 -4476,-744 -13892,-2328 -18490,-2704 238,1036 1586,5858 1586,6794 -1702,-68 -3489,-304 -5184,-496 -3990,-451 -11643,-1003 -15496,-1130 -3637,-121 -7232,-228 -10815,-331 -1851,-52 -3700,-81 -5552,-91 -1550,-10 -4152,211 -5539,32z"/>
   <path class="fil1" d="M212801 187168c615,-3711 1451,-7511 2177,-11238 734,-3768 1466,-7535 2196,-11290l10953 -56352c373,-1878 705,-3726 1087,-5597 76,-369 870,-5374 1226,-5492 8159,0 16317,0 24475,0 7442,0 16361,-506 23408,1001 13453,2877 21564,12432 19810,28659 -776,7188 -2945,13230 -6202,18269 -1731,2676 -3529,4819 -5471,6768 -10939,10980 -22162,11371 -37323,11371 -2492,0 -10226,-121 -12098,25l-4637 23835c-483,147 -18238,189 -19601,41zm-135578 -89969c8166,0 16331,0 24496,0 7497,0 16418,-506 23528,993 13411,2826 21549,12356 19865,28504 -742,7112 -2918,13328 -6147,18322 -1525,2359 -4121,5650 -6248,7577 -1865,1691 -3684,3273 -5871,4665 -5318,3386 -11215,5093 -18759,5722 -3970,331 -7912,285 -11920,285 -1918,0 -11078,-106 -12166,31l-4642 23899 -19612 -3 17476 -89995zm66054 66068c-14,-835 1827,-9713 2146,-11341l6566 -33774c2636,-14055 5506,-28143 8206,-42217 73,-377 375,-2555 673,-2659l19294 4 -4616 23895c1689,161 12261,24 14896,24 11954,0 27985,518 29306,15346 413,4641 -666,9088 -1499,13400l-6071 31219c-280,1382 -789,5035 -1220,6103l-19690 -4c40,-888 3227,-16792 3484,-18101 1180,-6004 2293,-12024 3499,-18019 571,-2835 1483,-6595 1113,-9591 -419,-3399 -2276,-4624 -5432,-5331 -3113,-698 -7004,-510 -10289,-510 -3588,0 -7176,0 -10765,0 -322,83 -405,1092 -497,1579 -97,517 -203,1063 -308,1605 -208,1067 -420,2167 -625,3220l-6271 32259c-829,4199 -1528,8765 -2529,12893l-19371 0zm5208 -47057c-1128,-5756 -2741,-8475 -6057,-12658 -464,-585 -893,-857 -1349,-1372 -3159,-3570 -9334,-6202 -14133,-7391 -6439,-1596 -13426,-1292 -20241,-1292l-26855 0c-3951,0 -5650,-207 -6475,4174 -286,1513 -587,3051 -885,4557 -5344,26944 -10426,54048 -15749,81015 -225,1140 -823,3508 -643,4598 231,1407 1338,2526 2553,2889 1213,363 12985,171 15874,171 1442,0 4069,149 5356,-42 3250,-482 3250,-3687 3879,-6893 585,-2982 1157,-6008 1747,-9003 292,-1482 573,-2957 868,-4462 794,-4046 295,-3538 1859,-3526 9917,77 21116,408 30334,-2013 5614,-1475 10653,-4515 14123,-7407 1065,-888 4071,-3663 4831,-4570 1719,-2050 2555,-2924 4128,-5280 285,-427 736,-1300 1096,-1624 -104,1539 -773,4222 -1092,5814 -364,1816 -2250,10705 -2107,11857 238,1914 1770,3190 3870,3225 4619,75 9310,-1 13938,-1 6916,0 8214,786 9301,-4800l6807 -35015c224,-1125 2052,-10959 2315,-11727 2162,-127 10507,-48 13079,-9 1819,28 4150,202 5679,836 964,400 1089,851 1178,2085 224,3083 -1655,10945 -2299,14265l-4299 22114c-348,1835 -707,3677 -1070,5502 -401,2017 -946,3706 253,5328 1130,1529 2957,1421 5202,1421l16543 0c1718,3 1605,-71 2986,-553 -347,2730 -1127,5969 -1673,8718 -581,2932 -1129,5801 -1702,8737 -254,1303 -832,3238 -364,4536 1167,3237 4616,2487 7892,2487 2174,0 14565,86 15606,-27 3412,-368 3417,-3875 3926,-6472 272,-1394 3101,-16504 3421,-17415 14440,-662 24554,1859 38739,-4883 1478,-702 3262,-1845 4506,-2749 1488,-1081 2747,-2081 4050,-3312 663,-627 1241,-1068 1884,-1744 4300,-4517 7724,-9370 9908,-15587 2604,-7411 4026,-17049 1680,-25144 -2248,-7752 -7086,-12763 -13150,-15966 -7586,-4007 -15595,-4105 -25019,-4105 -9707,0 -19414,0 -29121,0 -2334,0 -4833,-281 -6075,1176 -1058,1240 -1280,3771 -1648,5712 -327,1720 -2091,11331 -2435,12166 -568,-9479 -6359,-14661 -14178,-17039 -8962,-2726 -19544,-1917 -29259,-2018 792,-5074 2295,-11818 3332,-17179 431,-2231 938,-3775 -381,-5488 -1057,-1373 -3365,-1253 -5558,-1253 -4570,0 -9141,0 -13711,0 -2621,0 -4146,-378 -5713,1212 -1082,1096 -1238,3441 -1580,5212 -377,1956 -741,3845 -1125,5788 -761,3849 -1458,7664 -2234,11484l-4563 22940z"/>
   <path class="fil2" d="M86785 149073l7299 -37650c1266,-126 11262,-38 13301,-21 3965,33 8148,301 11506,1749 3179,1370 5105,3441 5757,7503 576,3586 -170,8555 -1114,11880 -2124,7481 -5322,12138 -11902,14614 -6892,2594 -16998,1925 -24847,1925zm-27038 38121l19612 3 4642 -23899c1088,-137 10248,-31 12166,-31 4008,0 7950,46 11920,-285 7544,-629 13441,-2336 18759,-5722 2187,-1392 4006,-2974 5871,-4665 2127,-1927 4723,-5218 6248,-7577 3229,-4994 5405,-11210 6147,-18322 1684,-16148 -6454,-25678 -19865,-28504 -7110,-1499 -16031,-993 -23528,-993 -8165,0 -16330,0 -24496,0l-17476 89995z"/>
   <path class="fil2" d="M247115 111418c2095,-127 4535,-18 6667,-18 5568,0 13395,-371 18182,1762 3225,1438 5103,3419 5744,7631 571,3750 -230,8213 -1130,11706 -963,3739 -2356,6558 -4236,9133 -6616,9058 -22151,7441 -32540,7437l7313 -37651zm-34314 75750c1363,148 19118,106 19601,-41l4637 -23835c1872,-146 9606,-25 12098,-25 15161,0 26384,-391 37323,-11371 1942,-1949 3740,-4092 5471,-6768 3257,-5039 5426,-11081 6202,-18269 1754,-16227 -6357,-25782 -19810,-28659 -7047,-1507 -15966,-1001 -23408,-1001 -8158,0 -16316,0 -24475,0 -356,118 -1150,5123 -1226,5492 -382,1871 -714,3719 -1087,5597l-10953 56352c-730,3755 -1462,7522 -2196,11290 -726,3727 -1562,7527 -2177,11238z"/>
   <path class="fil2" d="M143277 163267l19371 0c1001,-4128 1700,-8694 2529,-12893l6271 -32259c205,-1053 417,-2153 625,-3220 105,-542 211,-1088 308,-1605 92,-487 175,-1496 497,-1579 3589,0 7177,0 10765,0 3285,0 7176,-188 10289,510 3156,707 5013,1932 5432,5331 370,2996 -542,6756 -1113,9591 -1206,5995 -2319,12015 -3499,18019 -257,1309 -3444,17213 -3484,18101l19690 4c431,-1068 940,-4721 1220,-6103l6071 -31219c833,-4312 1912,-8759 1499,-13400 -1321,-14828 -17352,-15346 -29306,-15346 -2635,0 -13207,137 -14896,-24l4616 -23895 -19294 -4c-298,104 -600,2282 -673,2659 -2700,14074 -5570,28162 -8206,42217l-6566 33774c-319,1628 -2160,10506 -2146,11341z"/>
   <path class="fil3" d="M265159 66868c1513,412 3366,1109 4867,1653 15619,5656 29582,12101 42811,22008 659,493 1199,927 1858,1429l4412 3638c1192,996 4831,4545 5741,5587l1506 1669c9331,9944 17018,25650 13439,43005 -1792,8691 -5867,15516 -10623,21784 -984,1297 -2096,2433 -2948,3509 -909,1148 -6038,6203 -7345,7268l-6282 5054c-16530,12733 -42887,23189 -62780,27867 -7058,1660 -14071,3303 -21456,4493 -21037,3387 -39096,4566 -60353,4137l-12416 -508c-613,100 -745,-64 -1344,126l-3442 1094c-3352,920 -6075,1746 -9589,2538 -978,220 -4225,975 -5049,976 925,328 11233,1170 12949,1391l13673 831c2213,183 4642,229 7031,220 1198,-4 2200,114 3513,114l7252 0c1307,0 2192,-113 3512,-113 605,0 1210,-2 1815,1 762,4 1028,-111 1693,-119 604,-8 1217,9 1822,8 716,-1 941,-123 1693,-120 2534,12 5222,-249 7714,-444l2583 -136c989,-108 2322,-241 3310,-316 10772,-816 21286,-2351 31805,-4455 9738,-1948 19447,-4232 28880,-7380 8031,-2680 15887,-5534 23535,-9098 4096,-1908 8063,-3955 12049,-6080 805,-429 1527,-902 2304,-1322 763,-413 1535,-912 2273,-1353 4181,-2503 11181,-7126 14921,-10461 320,-285 641,-559 984,-829l2864 -2461c1449,-1211 4201,-4080 5503,-5375 1364,-1358 3851,-4342 5005,-5873 1580,-2096 3094,-4147 4447,-6430 1849,-3118 3456,-6338 4796,-9708 690,-1737 1308,-3635 1767,-5485 736,-2960 1349,-6224 1519,-9360l-114 -6912c-141,-4485 -1825,-10447 -3497,-14634 -1825,-4570 -4212,-8876 -7089,-12853l-3151 -4101c-299,-366 -520,-619 -815,-998 -293,-377 -531,-583 -842,-971 -1611,-2013 -5547,-5809 -7182,-7321l-963 -851c-233,-226 -274,-225 -500,-406l-3432 -2914c-1357,-1066 -2675,-2175 -4098,-3154 -753,-518 -1363,-1016 -2106,-1519 -1467,-994 -2836,-1925 -4330,-2922 -1482,-990 -2962,-1863 -4481,-2771 -3003,-1798 -6180,-3594 -9334,-5170 -3241,-1620 -6519,-3235 -9869,-4634 -4275,-1785 -8626,-3561 -12997,-5133 -2213,-795 -5848,-2153 -8124,-2734 11,500 175,1206 216,1707 52,638 73,1120 156,1768 135,1053 240,2387 333,3549z"/>
   <path class="fil4" d="M32900 88399c5,1133 629,4222 879,5480 77,388 105,464 184,839 122,582 -56,541 337,778 468,-320 1002,-811 1461,-1218 6586,-5832 17858,-12699 25569,-16471 27849,-13621 57995,-20440 89107,-22964 2545,-206 18962,-1285 21435,-985 707,-331 8772,-159 10217,-120 -48,-636 -946,-2746 -1204,-3471l-1281 -3227c-4000,0 -7668,104 -11602,110l-7021 344c-476,26 -997,-18 -1477,-4 -584,17 -694,122 -1354,119 -1405,-6 -5641,448 -6801,451l-5429 463c-1734,145 -3578,410 -5332,560 -3901,334 -12006,1584 -15413,2150 -9849,1636 -17171,3298 -26628,5779 -801,210 -1476,424 -2312,634 -3622,905 -14118,4333 -17711,5744l-4269 1624c-453,160 -595,254 -1041,432 -3625,1446 -7917,3256 -11267,4936l-5816 2909c-3049,1522 -5666,3190 -8497,4761l-2719 1699c-2979,1758 -8448,5817 -11167,7983 -307,244 -511,432 -848,665z"/>
   <path class="fil5" d="M244306 145353c13666,10 24745,1104 28601,-13470 736,-2784 1398,-6083 1272,-9156 -150,-3655 -1302,-5314 -4175,-6358 -2765,-1005 -6143,-1231 -9310,-1257 -3413,-27 -7144,-123 -10530,11l-5858 30230z"/>
   <path class="fil5" d="M91307 145363c15146,0 24622,571 28522,-13356 780,-2788 1425,-6069 1315,-9162 -131,-3685 -1233,-5388 -4132,-6454 -4972,-1829 -13967,-1280 -19712,-1280 -330,107 -745,3024 -876,3687l-3690 18977c-231,1152 -1404,6850 -1427,7588z"/>
   <path class="fil6" d="M250164 115123c3386,-134 7117,-38 10530,-11 3167,26 6545,252 9310,1257 2873,1044 4025,2703 4175,6358 126,3073 -536,6372 -1272,9156 -3856,14574 -14935,13480 -28601,13470l5858 -30230zm-10362 33946c10389,4 25924,1621 32540,-7437 1880,-2575 3273,-5394 4236,-9133 900,-3493 1701,-7956 1130,-11706 -641,-4212 -2519,-6193 -5744,-7631 -4787,-2133 -12614,-1762 -18182,-1762 -2132,0 -4572,-109 -6667,18l-7313 37651z"/>
   <path class="fil6" d="M91307 145363c23,-738 1196,-6436 1427,-7588l3690 -18977c131,-663 546,-3580 876,-3687 5745,0 14740,-549 19712,1280 2899,1066 4001,2769 4132,6454 110,3093 -535,6374 -1315,9162 -3900,13927 -13376,13356 -28522,13356zm-4522 3710c7849,0 17955,669 24847,-1925 6580,-2476 9778,-7133 11902,-14614 944,-3325 1690,-8294 1114,-11880 -652,-4062 -2578,-6133 -5757,-7503 -3358,-1448 -7541,-1716 -11506,-1749 -2039,-17 -12035,-105 -13301,21l-7299 37650z"/>
   <path class="fil7" d="M136166 224195c824,-1 4071,-756 5049,-976 3514,-792 6237,-1618 9589,-2538l3442 -1094c599,-190 731,-26 1344,-126 -344,-315 -4439,-434 -5263,-511 -12938,-1204 -22467,-2366 -35459,-4983 -1566,-316 -3251,-747 -4782,-1016 -1311,-230 -4279,-67 -5760,-66l-8229 -485c-2563,-334 -5077,-517 -7689,-922 -3547,-550 -6293,-1058 -9741,-1813 -806,-177 -1566,-361 -2380,-565 -616,-154 -1716,-507 -2329,-523 20,23 53,25 64,63 12,38 50,48 66,60l3256 1294c1166,421 2346,890 3568,1305 3355,1141 7540,2633 10997,3620 3913,1117 7396,2136 11465,3152 2639,660 5109,1214 7816,1816l8093 1652c4346,713 8062,1425 12543,2073 1343,195 2885,334 4340,583z"/>
   <path class="fil8" d="M171872 53858c1387,179 3989,-42 5539,-32 1852,10 3701,39 5552,91 3583,103 7178,210 10815,331 3853,127 11506,679 15496,1130 1695,192 3482,428 5184,496 0,-936 -1348,-5758 -1586,-6794l-3993 -421c-756,-96 -1225,-84 -1989,-164l-12338 -919c-645,-88 -1440,-17 -2167,-99 -669,-75 -1235,-92 -2061,-93 -765,-1 -1259,-119 -2148,-117l-6462 -111c-809,4 -1227,-116 -2110,-116l1281 3227c258,725 1156,2835 1204,3471 -1445,-39 -9510,-211 -10217,120z"/>
   <path class="fil9" d="M12204 112677c297,257 666,1483 834,1954 262,740 519,1323 803,2032 286,715 535,1333 829,2005 274,628 591,1455 903,2046 229,-259 323,-597 465,-933 127,-302 262,-621 408,-952 2089,-4716 6230,-11357 9651,-14952l8203 -8381c-393,-237 -215,-196 -337,-778 -79,-375 -107,-451 -184,-839 -250,-1258 -874,-4347 -879,-5480l-9392 8697c-281,319 -356,474 -680,793 -1443,1425 -3897,4506 -5104,6114 -431,575 -776,1067 -1197,1636 -991,1341 -3573,5401 -4323,7038z"/>
   <path class="fil10" d="M265159 66868c-93,-1162 -198,-2496 -333,-3549 -83,-648 -104,-1130 -156,-1768 -41,-501 -205,-1207 -216,-1707l-3824 -1182c-1342,-379 -2518,-734 -3861,-1124 -1353,-392 -2555,-698 -3940,-1046 -713,-180 -1250,-343 -1970,-523 -579,-145 -1566,-336 -2116,-544 9,513 166,1126 245,1694 214,1541 617,3852 671,5311 1626,235 9541,2642 11651,3261 1157,339 2711,976 3849,1177z"/>
  </g>
 </g>
</svg>
