<?xml version="1.0" encoding="UTF-8"?>
<!DOCTYPE svg PUBLIC "-//W3C//DTD SVG 1.1//EN" "http://www.w3.org/Graphics/SVG/1.1/DTD/svg11.dtd">
<!-- Creator: CorelDRAW 2020 (64 Bit) -->
<svg xmlns="http://www.w3.org/2000/svg" xml:space="preserve" width="3508px" height="2480px" version="1.1" style="shape-rendering:geometricPrecision; text-rendering:geometricPrecision; image-rendering:optimizeQuality; fill-rule:evenodd; clip-rule:evenodd"
viewBox="0 0 350800 248040"
 xmlns:xlink="http://www.w3.org/1999/xlink"
 xmlns:xodm="http://www.corel.com/coreldraw/odm/2003">
 <defs>
  <style type="text/css">
   <![CDATA[
    .fil0 {fill:#3772A4}
    .fil1 {fill:#FFD242}
   ]]>
  </style>
 </defs>
 <g id="Camada_x0020_1">
  <metadata id="CorelCorpID_0Corel-Layer"/>
  <g id="_1126473376">
   <path class="fil0" d="M132434 33659c0,-12585 20536,-15210 20536,933 0,7181 -10147,13059 -17173,6438 -1508,-1421 -3363,-4659 -3363,-7371zm-76545 93871l0 -6916c381,-14156 3140,-28116 8771,-37112 5664,-9049 14976,-17172 29502,-17172l81678 0 0 -7935 -57875 0 0 -7467c0,-16694 -4448,-28033 11174,-37367 13807,-8250 31933,-8840 49968,-8840 20337,0 54607,6369 54607,30805l0 50407c0,17424 -6064,28251 -22559,32981 -14620,4192 -65300,-1185 -80186,3359 -10534,3215 -16738,11756 -19359,22180 -1129,4489 -1113,6996 -1113,12423l4 21007c62,6549 2577,5130 -17273,5130 -18055,0 -27642,-11348 -32848,-26894 -2641,-7887 -4206,-18077 -4491,-28589z"/>
   <path class="fil1" d="M198243 214284c0,-6211 5024,-10268 8401,-10268 4116,0 6017,-439 9473,3128 1535,1585 2662,3753 2662,6673 0,14174 -20536,13478 -20536,467zm42939 -123217c0,16232 -6715,28751 -18391,33416 -10759,4297 -35630,2989 -49285,2989 -17845,0 -32188,-2683 -45212,7062 -13090,9795 -10329,27017 -10329,41945l-25 38260c375,4017 1640,6891 3472,9634 14800,22158 62310,20306 83018,16168 11473,-2293 29284,-9472 29284,-22990l0 -28471 -58341 0 0 -7934 84478 0c5825,0 12923,-3175 16341,-5596 13453,-9529 19131,-28767 19131,-46678 0,-15209 182,-23841 -4604,-38335 -2033,-6156 -5454,-12191 -9742,-16862 -10300,-11222 -24463,-8745 -39795,-8745l0 26137z"/>
  </g>
 </g>
</svg>
